<svg width="134" height="129" viewBox="0 0 134 129" fill="none" xmlns="http://www.w3.org/2000/svg">
<path d="M70.8235 102.049C98.8235 102.049 121.524 79.3487 121.524 51.2487C121.524 23.1487 98.7235 0.44873 70.8235 0.44873C42.8235 0.44873 20.1235 23.1487 20.1235 51.2487C20.1235 79.3487 42.8235 102.049 70.8235 102.049Z" fill="#EAEEF9"/>
<path d="M124.673 84.0257C126.938 84.0257 128.773 82.1901 128.773 79.9257C128.773 77.6613 126.938 75.8257 124.673 75.8257C122.409 75.8257 120.573 77.6613 120.573 79.9257C120.573 82.1901 122.409 84.0257 124.673 84.0257Z" fill="#EAEEF9"/>
<path d="M130.674 68.0255C132.22 68.0255 133.474 66.7719 133.474 65.2255C133.474 63.6791 132.22 62.4255 130.674 62.4255C129.127 62.4255 127.874 63.6791 127.874 65.2255C127.874 66.7719 129.127 68.0255 130.674 68.0255Z" fill="#EAEEF9"/>
<path d="M22.8234 17.8488C24.3698 17.8488 25.6234 16.5952 25.6234 15.0488C25.6234 13.5024 24.3698 12.2488 22.8234 12.2488C21.277 12.2488 20.0234 13.5024 20.0234 15.0488C20.0234 16.5952 21.277 17.8488 22.8234 17.8488Z" fill="#EAEEF9"/>
<path d="M5.72344 71.8487C8.59532 71.8487 10.9234 69.5206 10.9234 66.6487C10.9234 63.7769 8.59532 61.4487 5.72344 61.4487C2.85156 61.4487 0.523438 63.7769 0.523438 66.6487C0.523438 69.5206 2.85156 71.8487 5.72344 71.8487Z" fill="#EAEEF9"/>
<path d="M108.635 52.4479L111.338 51.6334C111.534 51.5765 111.534 51.2924 111.338 51.2356L108.635 50.4211C108.566 50.4021 108.515 50.3516 108.496 50.2821L107.682 47.586C107.625 47.3903 107.341 47.3903 107.284 47.586L106.47 50.2821C106.451 50.3516 106.4 50.4021 106.331 50.4211L103.635 51.2356C103.439 51.2924 103.439 51.5765 103.635 51.6334L106.337 52.4479C106.406 52.4668 106.457 52.5173 106.476 52.5868L107.29 55.2893C107.347 55.485 107.631 55.485 107.688 55.2893L108.503 52.5868C108.515 52.5173 108.566 52.4668 108.635 52.4479Z" fill="#ADB6C8"/>
<path d="M92.6354 23.4484L95.3378 22.6339C95.5336 22.5771 95.5336 22.2929 95.3378 22.2361L92.6354 21.4216C92.5659 21.4027 92.5154 21.3522 92.4965 21.2827L91.682 18.5867C91.6251 18.391 91.341 18.391 91.2842 18.5867L90.4696 21.2827C90.4507 21.3522 90.4002 21.4027 90.3307 21.4216L87.6346 22.2361C87.4389 22.2929 87.4389 22.5771 87.6346 22.6339L90.337 23.4484C90.4065 23.4673 90.457 23.5178 90.476 23.5873L91.2905 26.2896C91.3473 26.4853 91.6314 26.4853 91.6883 26.2896L92.5028 23.5873C92.5154 23.5178 92.5659 23.4673 92.6354 23.4484Z" fill="#ADB6C8"/>
<path d="M51.9919 26.8223L54.3566 26.1096C54.5279 26.0599 54.5279 25.8113 54.3566 25.7616L51.9919 25.0489C51.9312 25.0323 51.887 24.9881 51.8704 24.9274L51.1577 22.5684C51.108 22.3971 50.8593 22.3971 50.8096 22.5684L50.0969 24.9274C50.0803 24.9881 50.0361 25.0323 49.9754 25.0489L47.6162 25.7616C47.445 25.8113 47.445 26.0599 47.6162 26.1096L49.9809 26.8223C50.0417 26.8389 50.0859 26.8831 50.1024 26.9438L50.8151 29.3083C50.8649 29.4796 51.1135 29.4796 51.1632 29.3083L51.8759 26.9438C51.887 26.8831 51.9312 26.8389 51.9919 26.8223Z" fill="#ADB6C8"/>
<path d="M34.9919 70.2509L37.3566 69.4363C37.5279 69.3795 37.5279 69.0954 37.3566 69.0386L34.9919 68.224C34.9312 68.2051 34.887 68.1546 34.8704 68.0851L34.1577 65.389C34.108 65.1933 33.8593 65.1933 33.8096 65.389L33.0969 68.0851C33.0803 68.1546 33.0361 68.2051 32.9754 68.224L30.6162 69.0386C30.445 69.0954 30.445 69.3795 30.6162 69.4363L32.9809 70.2509C33.0417 70.2698 33.0859 70.3203 33.1024 70.3898L33.8151 73.0922C33.8649 73.288 34.1135 73.288 34.1632 73.0922L34.8759 70.3898C34.887 70.3203 34.9312 70.2698 34.9919 70.2509Z" fill="#ADB6C8"/>
<path d="M31.206 39.4537L32.895 38.9446C33.0174 38.9091 33.0174 38.7315 32.895 38.696L31.206 38.187C31.1626 38.1752 31.131 38.1436 31.1192 38.1002L30.6101 36.4152C30.5746 36.2929 30.397 36.2929 30.3615 36.4152L29.8524 38.1002C29.8406 38.1436 29.809 38.1752 29.7656 38.187L28.0805 38.696C27.9582 38.7315 27.9582 38.9091 28.0805 38.9446L29.7696 39.4537C29.813 39.4655 29.8445 39.4971 29.8564 39.5405L30.3654 41.2294C30.401 41.3517 30.5785 41.3517 30.6141 41.2294L31.1231 39.5405C31.131 39.4971 31.1626 39.4655 31.206 39.4537Z" fill="#ADB6C8"/>
<path d="M49.2055 56.16L50.8946 55.6509C51.0169 55.6154 51.0169 55.4378 50.8946 55.4023L49.2055 54.8933C49.1621 54.8815 49.1305 54.8499 49.1187 54.8065L48.6096 53.1215C48.5741 52.9992 48.3965 52.9992 48.361 53.1215L47.8519 54.8065C47.8401 54.8499 47.8085 54.8815 47.7651 54.8933L46.08 55.4023C45.9577 55.4378 45.9577 55.6154 46.08 55.6509L47.7691 56.16C47.8125 56.1718 47.844 56.2034 47.8559 56.2468L48.365 57.9357C48.4005 58.058 48.5781 58.058 48.6136 57.9357L49.1227 56.2468C49.1305 56.2034 49.1621 56.1718 49.2055 56.16Z" fill="#ADB6C8"/>
<path d="M63.5273 8.56866L65.2163 8.05962C65.3387 8.02411 65.3387 7.84653 65.2163 7.81102L63.5273 7.30198C63.4839 7.29015 63.4523 7.25858 63.4405 7.21517L62.9314 5.53022C62.8959 5.40789 62.7183 5.40789 62.6828 5.53022L62.1737 7.21517C62.1619 7.25858 62.1303 7.29015 62.0869 7.30198L60.4018 7.81102C60.2795 7.84653 60.2795 8.02411 60.4018 8.05962L62.0908 8.56866C62.1343 8.58049 62.1658 8.61206 62.1777 8.65547L62.6867 10.3444C62.7223 10.4667 62.8998 10.4667 62.9354 10.3444L63.4444 8.65547C63.4523 8.61206 63.4839 8.58049 63.5273 8.56866Z" fill="#ADB6C8"/>
<path d="M103.55 80.9195L105.239 80.4104C105.362 80.3749 105.362 80.1974 105.239 80.1618L103.55 79.6528C103.507 79.641 103.475 79.6094 103.463 79.566L102.954 77.8811C102.919 77.7587 102.741 77.7587 102.706 77.8811L102.197 79.566C102.185 79.6094 102.153 79.641 102.11 79.6528L100.425 80.1618C100.302 80.1974 100.302 80.3749 100.425 80.4104L102.114 80.9195C102.157 80.9313 102.189 80.9629 102.201 81.0063L102.71 82.6952C102.745 82.8175 102.923 82.8175 102.958 82.6952L103.467 81.0063C103.475 80.9629 103.507 80.9313 103.55 80.9195Z" fill="#ADB6C8"/>
<path d="M55.8889 58.9993C51.6362 62.0977 46.0469 66.5934 46.0469 70.5424C46.0469 72.8552 46.0469 76.1476 46.0469 78.4787C46.0469 79.4204 47.3958 79.9898 48.1744 79.46C50.226 78.0637 53.7732 76.4552 58.8658 76.9215C67.4928 77.7113 57.347 63.252 57.347 63.252L55.8889 58.9993Z" fill="url(#paint0_linear)"/>
<path d="M86.8123 58.9993C91.065 62.1584 96.6543 66.5934 96.6543 70.5424C96.6543 72.8552 96.6543 76.1476 96.6543 78.4787C96.6543 79.4204 95.3054 79.9898 94.5268 79.46C92.4751 78.0637 88.928 76.4552 83.8354 76.9215C75.2084 77.7113 85.3542 63.252 85.3542 63.252L86.8123 58.9993Z" fill="url(#paint1_linear)"/>
<g filter="url(#filter0_d)">
<path d="M71.3204 15.5C63.301 21.2108 53.702 35.2448 55.4638 53.1062C57.1649 70.9677 58.6838 79.7769 61.9644 81.9032C65.3059 84.0296 68.5865 84.5156 71.3204 84.5156C74.0543 84.5156 77.335 84.0296 80.6764 81.9032C84.0178 79.7769 85.4759 70.9677 87.177 53.1062C88.8781 35.2448 79.2791 21.2108 71.3204 15.5Z" fill="url(#paint2_linear)"/>
</g>
<g filter="url(#filter1_d)">
<path d="M77.3957 87.0066H65.245C64.273 87.0066 63.5439 86.2168 63.5439 85.3055V82.3286H79.1575V85.2448C79.0968 86.2168 78.307 87.0066 77.3957 87.0066Z" fill="url(#paint3_linear)"/>
</g>
<path d="M72.1708 58.0273H70.4697V80.4453H72.1708V58.0273Z" fill="url(#paint4_linear)"/>
<path d="M71.3202 45.8158C74.642 45.8158 77.3348 43.1229 77.3348 39.8012C77.3348 36.4794 74.642 33.7866 71.3202 33.7866C67.9985 33.7866 65.3057 36.4794 65.3057 39.8012C65.3057 43.1229 67.9985 45.8158 71.3202 45.8158Z" stroke="#9FA8BA" stroke-width="4" stroke-miterlimit="10"/>
<path d="M79.6433 98.6104C79.6433 103.531 75.6943 128.197 70.7733 128.197C65.8523 128.197 61.9033 103.531 61.9033 98.6104C61.9033 93.6894 65.8523 89.7405 70.7733 89.7405C75.6943 89.7405 79.6433 93.7502 79.6433 98.6104Z" fill="#EAEEF9"/>
<path d="M70.7735 116.836C69.0117 113.07 67.0068 102.62 67.0068 99.2787C67.0068 97.2131 68.7079 95.512 70.7735 95.512C72.8391 95.512 74.5402 97.2131 74.5402 99.2787C74.5402 102.62 72.5354 113.009 70.7735 116.836Z" fill="white"/>
<defs>
<filter id="filter0_d" x="33.2524" y="4.5" width="76.1225" height="113.016" filterUnits="userSpaceOnUse" color-interpolation-filters="sRGB">
<feFlood flood-opacity="0" result="BackgroundImageFix"/>
<feColorMatrix in="SourceAlpha" type="matrix" values="0 0 0 0 0 0 0 0 0 0 0 0 0 0 0 0 0 0 127 0"/>
<feOffset dy="11"/>
<feGaussianBlur stdDeviation="11"/>
<feColorMatrix type="matrix" values="0 0 0 0 0.397708 0 0 0 0 0.47749 0 0 0 0 0.575 0 0 0 0.27 0"/>
<feBlend mode="normal" in2="BackgroundImageFix" result="effect1_dropShadow"/>
<feBlend mode="normal" in="SourceGraphic" in2="effect1_dropShadow" result="shape"/>
</filter>
<filter id="filter1_d" x="41.5439" y="71.3286" width="59.6136" height="48.678" filterUnits="userSpaceOnUse" color-interpolation-filters="sRGB">
<feFlood flood-opacity="0" result="BackgroundImageFix"/>
<feColorMatrix in="SourceAlpha" type="matrix" values="0 0 0 0 0 0 0 0 0 0 0 0 0 0 0 0 0 0 127 0"/>
<feOffset dy="11"/>
<feGaussianBlur stdDeviation="11"/>
<feColorMatrix type="matrix" values="0 0 0 0 0.397708 0 0 0 0 0.47749 0 0 0 0 0.575 0 0 0 0.27 0"/>
<feBlend mode="normal" in2="BackgroundImageFix" result="effect1_dropShadow"/>
<feBlend mode="normal" in="SourceGraphic" in2="effect1_dropShadow" result="shape"/>
</filter>
<linearGradient id="paint0_linear" x1="54.1959" y1="59.7738" x2="54.1959" y2="72.2886" gradientUnits="userSpaceOnUse">
<stop stop-color="#B0BACC"/>
<stop offset="1" stop-color="#969EAE"/>
</linearGradient>
<linearGradient id="paint1_linear" x1="88.5079" y1="59.7738" x2="88.5079" y2="72.2886" gradientUnits="userSpaceOnUse">
<stop stop-color="#B0BACC"/>
<stop offset="1" stop-color="#969EAE"/>
</linearGradient>
<linearGradient id="paint2_linear" x1="71.3032" y1="13.9036" x2="71.3032" y2="85.2597" gradientUnits="userSpaceOnUse">
<stop stop-color="#FDFEFF"/>
<stop offset="0.9964" stop-color="#ECF0F5"/>
</linearGradient>
<linearGradient id="paint3_linear" x1="71.3456" y1="82.2204" x2="71.3456" y2="87.057" gradientUnits="userSpaceOnUse">
<stop stop-color="#FDFEFF"/>
<stop offset="0.9964" stop-color="#ECF0F5"/>
</linearGradient>
<linearGradient id="paint4_linear" x1="71.3204" y1="58.8061" x2="71.3204" y2="71.3891" gradientUnits="userSpaceOnUse">
<stop stop-color="#B0BACC"/>
<stop offset="1" stop-color="#969EAE"/>
</linearGradient>
</defs>
</svg>
