<svg width="178" height="180" viewBox="0 0 178 180" fill="none" xmlns="http://www.w3.org/2000/svg">
<path fill-rule="evenodd" clip-rule="evenodd" d="M140.943 94.4546H171.056C174.891 94.4546 178 97.5755 178 101.425V111.596C178 115.445 174.891 118.566 171.056 118.566H149.427L141.568 126.455V118.566H140.943C137.109 118.566 134 115.445 134 111.596V101.425C134 97.5755 137.109 94.4546 140.943 94.4546Z" fill="#D2CEF9"/>
<path d="M153.781 111.243C152.311 111.243 150.94 110.815 149.786 110.077C150.766 110.141 152.494 109.989 153.57 108.963C151.952 108.889 151.223 107.649 151.127 107.119C151.265 107.172 151.92 107.235 152.29 107.087C150.43 106.62 150.144 104.987 150.208 104.489C150.557 104.733 151.149 104.818 151.381 104.797C149.647 103.556 150.271 101.69 150.578 101.287C151.822 103.011 153.687 103.979 155.994 104.033C155.95 103.842 155.927 103.643 155.927 103.439C155.927 101.975 157.11 100.789 158.57 100.789C159.333 100.789 160.02 101.113 160.502 101.631C161.012 101.511 161.779 101.232 162.154 100.99C161.965 101.669 161.377 102.235 161.021 102.445C161.024 102.452 161.018 102.437 161.021 102.445C161.333 102.397 162.179 102.235 162.513 102.008C162.348 102.389 161.724 103.023 161.212 103.378C161.308 107.579 158.094 111.243 153.781 111.243Z" fill="white"/>
<path d="M135.911 122.076C135.911 143.273 124.147 162.141 107.609 171.575C107.609 171.575 107.492 171.692 107.376 171.692C105.279 172.973 102.601 174.138 101.436 174.72H101.319C100.388 175.069 94.7972 177.399 93.8654 177.399C93.749 177.399 93.6325 177.399 93.6325 177.515C93.516 177.515 93.3996 177.515 93.2831 177.632C90.8372 178.33 87.3432 178.913 86.6444 179.029C86.6444 179.379 75.9292 180.427 66.8446 178.447C65.6799 178.447 58.2259 176.467 51.7037 173.206C33.3016 163.655 20.6064 144.322 20.6064 122.076C20.6064 90.2799 46.4626 64.5403 78.2586 64.5403C110.171 64.5403 135.911 90.2799 135.911 122.076Z" fill="#EAEEF9"/>
<path d="M95.7298 145.603V176.933C95.6134 176.933 94.0993 177.516 93.9828 177.516C93.8663 177.516 93.7499 177.516 93.7499 177.632C93.6334 177.632 93.5169 177.632 93.4005 177.748C90.9546 178.447 87.4605 179.03 86.7617 179.146V145.603H95.7298Z" fill="#4988FD"/>
<path d="M95.7298 145.603V176.933C95.6134 176.933 94.0993 177.516 93.9828 177.516C93.8663 177.516 93.7499 177.516 93.7499 177.632C93.6334 177.632 93.5169 177.632 93.4005 177.748C90.9546 178.447 87.4605 179.03 86.7617 179.146V145.603H95.7298Z" fill="white"/>
<path d="M103.882 145.603V173.672C103.3 174.021 102.251 174.371 101.436 174.837H101.32C99.8055 175.536 98.0585 176.234 95.0303 177.166V145.72H103.882V145.603Z" fill="#2767F4"/>
<path d="M103.882 145.603V173.672C103.3 174.021 102.251 174.371 101.436 174.837H101.32C99.8055 175.536 98.0585 176.234 95.0303 177.166V145.72H103.882V145.603Z" fill="#D5DAE8"/>
<path opacity="0.1" d="M103.882 157.715V171.692C102.717 172.274 101.785 172.74 101.785 172.74H101.669C99.689 173.788 96.6608 174.72 95.3797 175.069C95.2632 175.069 95.1467 175.186 95.0303 175.186V172.157C96.4279 167.965 98.7573 163.655 101.902 160.045C102.484 159.229 103.183 158.414 103.882 157.715Z" fill="#062C78"/>
<path opacity="0.1" d="M103.883 145.603H86.7617V155.503H103.883V145.603Z" fill="#062C78"/>
<path d="M140.337 110.429V146.069H112.501V146.185H56.7119V82.1272H109.705C110.404 82.0107 111.103 82.0107 111.918 82.0107C112.85 82.0107 113.665 82.0107 114.597 82.1272C115.762 82.2437 116.81 82.3601 117.858 82.5931C123.332 83.7578 128.224 86.553 131.951 90.28C137.192 95.5211 140.337 102.626 140.337 110.429Z" fill="url(#paint0_linear)"/>
<path d="M129.622 120.212C133.116 120.212 136.027 117.417 136.027 113.807C136.027 110.196 133.116 107.401 129.622 107.401C126.128 107.401 123.216 110.196 123.216 113.807C123.216 117.417 126.011 120.212 129.622 120.212Z" fill="#737C90"/>
<path d="M130.67 119.398C134.281 119.398 137.309 116.602 137.309 112.992C137.309 109.381 134.397 106.586 130.67 106.586C127.059 106.586 124.031 109.381 124.031 112.992C124.031 116.602 126.943 119.398 130.67 119.398Z" fill="#D5DAE8"/>
<path d="M131.019 119.398C134.513 119.398 137.425 116.602 137.425 112.992C137.425 109.381 134.513 106.586 131.019 106.586C127.525 106.586 124.613 109.381 124.613 112.992C124.613 116.602 127.409 119.398 131.019 119.398Z" fill="#F5F7FB"/>
<path d="M131.019 115.437C132.417 115.437 133.465 114.389 133.465 112.991C133.465 111.594 132.417 110.545 131.019 110.545C129.621 110.545 128.573 111.594 128.573 112.991C128.573 114.389 129.621 115.437 131.019 115.437Z" fill="#CED7E2"/>
<path d="M84.4316 107.634V146.185H27.5947V107.634C27.5947 95.5214 36.2134 85.2721 47.5109 82.7098C49.3744 82.2439 51.2379 82.1274 53.2179 82.1274H59.0414C71.8529 82.1274 82.3351 91.445 84.3151 103.674C84.3151 104.839 84.4316 106.237 84.4316 107.634Z" fill="#737C91"/>
<path opacity="0.7" d="M84.4315 113.341L84.0821 104.023C82.1021 91.7941 71.5035 82.4766 58.8083 82.4766H52.9849C51.0049 82.4766 49.1414 82.7095 47.2779 83.0589L46.5791 83.6413L60.9048 142.691L84.1986 143.972L84.4315 113.341Z" fill="url(#paint1_linear)"/>
<path d="M84.3151 103.674C82.3351 91.445 71.7365 82.1274 59.0414 82.1274H53.2179C51.2379 82.1274 49.3744 82.2439 47.5109 82.7098C36.097 85.2721 27.5947 95.4049 27.5947 107.634V146.185H84.4316V107.634C84.4316 106.237 84.3151 104.839 84.3151 103.674ZM82.1022 143.856H29.9241V107.634C29.9241 96.919 37.4946 87.3685 48.0933 85.0392C49.6074 84.6898 51.1215 84.5733 53.2179 84.5733H59.0414C70.4553 84.5733 80.1222 92.7261 81.9857 104.024C81.9857 104.489 81.9857 105.072 81.9857 105.654C81.9857 106.353 81.9857 107.052 81.9857 107.751V143.856H82.1022Z" fill="#C3CAD6"/>
<path d="M71.1548 167.965C69.5243 170.411 67.5443 174.371 66.3796 177.632C66.2631 177.865 66.1467 178.214 66.1467 178.447C65.3314 178.331 64.5161 178.098 63.7008 177.865C63.002 176.234 62.5361 174.487 62.5361 174.487C63.002 173.905 63.3514 173.439 63.8173 172.973C66.0302 170.294 68.3596 168.431 71.1548 167.965Z" fill="#C1C8D7"/>
<path d="M66.8447 178.563C66.6118 178.563 66.3788 178.447 66.1459 178.447C65.3306 178.33 64.5153 178.097 63.7001 177.864C63.1177 177.748 62.6518 177.515 62.0695 177.399C61.8366 177.282 61.6036 177.282 61.3707 177.166C61.1377 177.049 60.9048 177.049 60.5554 176.933C57.5272 176.001 54.6155 174.72 51.8202 173.322C48.9085 168.43 47.2779 162.491 44.4827 154.221C44.4827 154.105 44.4827 154.105 44.3662 153.988C44.3662 153.988 44.5991 153.988 45.1815 154.221C45.5309 154.454 46.1132 154.687 46.8121 155.153C48.2097 156.085 50.4226 157.715 53.6837 160.394C57.7601 163.772 61.2542 168.78 63.7001 172.856C64.7483 174.72 65.68 176.35 66.3788 177.631C66.6118 177.864 66.7283 178.214 66.8447 178.563Z" fill="#D5DAE8"/>
<path d="M62.0702 177.282C61.8373 177.166 61.6043 177.166 61.3714 177.049C61.1385 176.933 60.9055 176.933 60.5561 176.816C55.1985 166.101 49.1422 159.23 45.6481 155.27C45.2987 154.804 44.9493 154.454 44.5999 154.105C44.5999 153.989 44.5999 153.989 44.4834 153.872C44.4834 153.872 44.7163 153.872 45.2987 154.105C45.6481 154.338 46.2304 154.571 46.9292 155.037C50.5398 159.23 56.7126 166.334 62.0702 177.282Z" fill="#EAEEF9"/>
<path d="M116.461 152.242C116.461 152.242 116.345 152.475 116.112 152.941C114.714 155.503 110.055 164.005 107.842 171.459C107.726 171.459 107.726 171.576 107.61 171.576C107.61 171.576 107.493 171.692 107.377 171.692C105.28 172.973 102.601 174.138 101.437 174.72H101.32C97.8261 176.351 94.0991 177.399 93.8662 177.399C95.6132 171.692 98.1756 166.567 101.786 162.258C102.485 161.443 103.184 160.627 103.883 159.929C103.999 159.812 104.115 159.696 104.232 159.579C107.26 156.551 110.405 154.571 113.433 153.29C113.782 153.173 114.132 152.941 114.481 152.824C114.831 152.591 115.413 152.475 115.995 152.242C116.228 152.358 116.345 152.242 116.461 152.242Z" fill="#D5DAE8"/>
<path d="M116.345 152.009C116.345 152.009 116.228 152.125 116.112 152.475C116.112 152.591 115.995 152.591 115.995 152.708C109.939 158.065 105.164 167.033 102.135 174.487C101.903 174.604 101.67 174.72 101.437 174.837H101.32C101.087 174.953 100.738 175.07 100.505 175.186C100.621 174.953 100.738 174.837 100.738 174.837C102.252 171.11 106.328 160.511 113.433 153.406C113.666 153.173 113.899 152.941 114.132 152.708C114.947 152.475 115.646 152.242 116.345 152.009Z" fill="#EAEEF9"/>
<path d="M84.7812 142.109V146.185H7.09644C5.93175 146.185 5 145.254 5 144.205C5 143.041 5.93175 142.109 7.09644 142.109H84.7812Z" fill="#919AAC"/>
<path d="M132.999 81.894L132.999 112.525C132.999 113.457 132.3 114.156 131.368 114.156C130.437 114.156 129.738 113.457 129.738 112.525L129.738 81.894L132.999 81.894Z" fill="#CED7E2"/>
<path d="M148.606 80.8461C149.072 81.1955 148.839 82.0108 148.14 82.0108L133.116 82.0108L129.622 82.0108L129.622 69.4321L148.14 69.4321C148.723 69.4321 149.072 70.1309 148.606 70.5968L143.715 74.6732C143.016 75.2556 143.016 76.3038 143.715 76.8861L148.606 80.8461Z" fill="#EAEEF9"/>
<path d="M127.316 165.484C129.58 165.484 131.416 163.649 131.416 161.384C131.416 159.12 129.58 157.284 127.316 157.284C125.051 157.284 123.216 159.12 123.216 161.384C123.216 163.649 125.051 165.484 127.316 165.484Z" fill="#EAEEF9"/>
<path d="M14.158 164.182C17.0299 164.182 19.358 161.854 19.358 158.982C19.358 156.11 17.0299 153.782 14.158 153.782C11.2861 153.782 8.95801 156.11 8.95801 158.982C8.95801 161.854 11.2861 164.182 14.158 164.182Z" fill="#EAEEF9"/>
<g filter="url(#filter0_d)">
<rect x="24.3389" y="105.972" width="52.4811" height="36.137" rx="4" fill="url(#paint2_linear)"/>
</g>
<path d="M76.0853 107.331L54.7549 123.126C52.2745 124.963 48.8851 124.963 46.4047 123.126L25.0742 107.331C25.7159 106.504 26.7194 105.972 27.8471 105.972H73.3125C74.4402 105.972 75.4436 106.504 76.0853 107.331Z" fill="#E0E4F0"/>
<path d="M128.355 63.8694L124.031 52.4546" stroke="#A6B0C1" stroke-width="2.5"/>
<path d="M125.585 68.135L116.851 65.1084" stroke="#A6B0C1" stroke-width="2.5"/>
<path d="M133.465 62.1399L134.416 53.2329" stroke="#A6B0C1" stroke-width="2.5"/>
<path fill-rule="evenodd" clip-rule="evenodd" d="M8.83013 61.4546C3.95323 61.4546 0 65.4078 0 70.2847V83.1697C0 88.0461 3.95323 91.9998 8.83013 91.9998H36.3339L46.3278 101.993V91.9998H47.1219C51.9988 91.9998 55.9521 88.0461 55.9521 83.1697V70.2847C55.9521 65.4078 51.9988 61.4546 47.1219 61.4546H8.83013Z" fill="#3E66FB"/>
<path fill-rule="evenodd" clip-rule="evenodd" d="M8.83013 61.4546C3.95323 61.4546 0 65.4078 0 70.2847V83.1697C0 88.0461 3.95323 91.9998 8.83013 91.9998H36.3339L46.3278 101.993V91.9998H47.1219C51.9988 91.9998 55.9521 88.0461 55.9521 83.1697V70.2847C55.9521 65.4078 51.9988 61.4546 47.1219 61.4546H8.83013Z" fill="white" fill-opacity="0.75"/>
<path fill-rule="evenodd" clip-rule="evenodd" d="M26.5198 85.2135C31.2716 85.2135 35.1236 81.3614 35.1236 76.6097C35.1236 71.8579 31.2716 68.0059 26.5198 68.0059C21.7681 68.0059 17.916 71.8579 17.916 76.6097C17.916 78.1528 18.3222 79.601 19.0336 80.8532L17.916 85.2135L22.4114 84.1711C23.6323 84.8358 25.0319 85.2135 26.5198 85.2135ZM26.5198 83.8898C30.5405 83.8898 33.8 80.6304 33.8 76.6097C33.8 72.589 30.5405 69.3295 26.5198 69.3295C22.4991 69.3295 19.2397 72.589 19.2397 76.6097C19.2397 78.1621 19.7256 79.601 20.5536 80.7827L19.9015 83.228L22.39 82.6059C23.5634 83.4156 24.9862 83.8898 26.5198 83.8898Z" fill="#BFC8D0"/>
<path d="M33.8939 75.9948C33.8939 80.0678 30.5922 83.3695 26.5192 83.3695C24.9657 83.3695 23.5244 82.8892 22.3357 82.0689L19.815 82.6991L20.4755 80.222C19.6367 79.025 19.1445 77.5674 19.1445 75.9948C19.1445 71.9219 22.4463 68.6201 26.5192 68.6201C30.5922 68.6201 33.8939 71.9219 33.8939 75.9948Z" fill="white"/>
<path fill-rule="evenodd" clip-rule="evenodd" d="M26.5198 84.5987C31.2716 84.5987 35.1236 80.7467 35.1236 75.9949C35.1236 71.2432 31.2716 67.3911 26.5198 67.3911C21.7681 67.3911 17.916 71.2432 17.916 75.9949C17.916 77.538 18.3222 78.9862 19.0336 80.2384L17.916 84.5987L22.4114 83.5563C23.6323 84.2211 25.0319 84.5987 26.5198 84.5987ZM26.5198 83.2751C30.5405 83.2751 33.8 80.0156 33.8 75.9949C33.8 71.9742 30.5405 68.7148 26.5198 68.7148C22.4991 68.7148 19.2397 71.9742 19.2397 75.9949C19.2397 77.5473 19.7256 78.9863 20.5536 80.1679L19.9015 82.6133L22.39 81.9911C23.5634 82.8009 24.9862 83.2751 26.5198 83.2751Z" fill="white"/>
<path d="M24.3684 72.0003C24.1638 71.5894 23.85 71.6258 23.533 71.6258C22.9664 71.6258 22.083 72.3045 22.083 73.5675C22.083 74.6026 22.5391 75.7357 24.0761 77.4307C25.5594 79.0665 27.5084 79.9127 29.1264 79.8839C30.7444 79.8551 31.0773 78.4627 31.0773 77.9925C31.0773 77.7841 30.948 77.6801 30.8589 77.6519C30.3075 77.3873 29.2906 76.8942 29.0592 76.8016C28.8278 76.7089 28.707 76.8342 28.6319 76.9024C28.4221 77.1024 28.0061 77.6917 27.8637 77.8242C27.7213 77.9568 27.509 77.8897 27.4206 77.8396C27.0955 77.7091 26.2139 77.317 25.5111 76.6358C24.6421 75.7933 24.5911 75.5035 24.4273 75.2455C24.2963 75.039 24.3925 74.9124 24.4404 74.8571C24.6277 74.641 24.8862 74.3074 25.0022 74.1417C25.1181 73.9759 25.0261 73.7242 24.9708 73.5675C24.7333 72.8934 24.5321 72.329 24.3684 72.0003Z" fill="#27AE60"/>
<path fill-rule="evenodd" clip-rule="evenodd" d="M106.206 0H141.793C146.326 0 150 3.68836 150 8.23773V20.2584C150 24.8071 146.326 28.4955 141.793 28.4955H116.232L106.944 37.8182V28.4955H106.206C101.674 28.4955 98 24.8071 98 20.2584V8.23773C98 3.68836 101.674 0 106.206 0Z" fill="#D2CEF9"/>
<path fill-rule="evenodd" clip-rule="evenodd" d="M122.818 21.3786C127.06 21.3786 130.499 18.0479 130.499 13.9393C130.499 9.83068 127.06 6.5 122.818 6.5C118.575 6.5 115.136 9.83068 115.136 13.9393C115.136 16.1739 116.153 18.1784 117.764 19.542V21.0475C117.764 21.6358 118.363 22.0305 118.897 21.794L120.568 21.0545C121.279 21.2652 122.035 21.3786 122.818 21.3786Z" fill="white"/>
<path d="M120.979 12.3578L118.751 15.4043C118.512 15.731 118.942 16.1234 119.269 15.8773L121.171 14.4458C121.364 14.3001 121.636 14.2981 121.832 14.441L123.523 15.6751C123.848 15.9118 124.311 15.8437 124.548 15.5247L126.884 12.3701C127.126 12.0429 126.693 11.6473 126.366 11.8966L124.355 13.4275C124.161 13.5749 123.888 13.5776 123.691 13.4341L122.005 12.204C121.68 11.9664 121.214 12.0361 120.979 12.3578Z" fill="#006BFF"/>
<defs>
<filter id="filter0_d" x="2.33887" y="94.9717" width="96.4811" height="80.137" filterUnits="userSpaceOnUse" color-interpolation-filters="sRGB">
<feFlood flood-opacity="0" result="BackgroundImageFix"/>
<feColorMatrix in="SourceAlpha" type="matrix" values="0 0 0 0 0 0 0 0 0 0 0 0 0 0 0 0 0 0 127 0"/>
<feOffset dy="11"/>
<feGaussianBlur stdDeviation="11"/>
<feColorMatrix type="matrix" values="0 0 0 0 0.397708 0 0 0 0 0.47749 0 0 0 0 0.575 0 0 0 0.27 0"/>
<feBlend mode="normal" in2="BackgroundImageFix" result="effect1_dropShadow"/>
<feBlend mode="normal" in="SourceGraphic" in2="effect1_dropShadow" result="shape"/>
</filter>
<linearGradient id="paint0_linear" x1="98.4908" y1="82.763" x2="98.4908" y2="130.664" gradientUnits="userSpaceOnUse">
<stop stop-color="#B0BACC"/>
<stop offset="1" stop-color="#969EAE"/>
</linearGradient>
<linearGradient id="paint1_linear" x1="82.9917" y1="112.495" x2="58.9919" y2="113.613" gradientUnits="userSpaceOnUse">
<stop stop-color="#42465A"/>
<stop offset="1" stop-color="#575E84" stop-opacity="0"/>
</linearGradient>
<linearGradient id="paint2_linear" x1="50.5623" y1="105.136" x2="50.5623" y2="142.498" gradientUnits="userSpaceOnUse">
<stop stop-color="#FDFEFF"/>
<stop offset="0.9964" stop-color="#ECF0F5"/>
</linearGradient>
</defs>
</svg>
