<svg width="145" height="103" viewBox="0 0 145 103" fill="none" xmlns="http://www.w3.org/2000/svg">
<path d="M120.686 86.1244H12.1909C19.0697 70.801 40.7127 59.6159 66.4383 59.6159C92.1079 59.56 113.807 70.745 120.686 86.1244Z" fill="#EAEEF9"/>
<path d="M132.039 86.1245H143.447" stroke="#D5DAE8" stroke-width="2" stroke-miterlimit="10" stroke-linecap="round" stroke-linejoin="round"/>
<path d="M1.00635 86.1245H126.335" stroke="#D5DAE8" stroke-width="2" stroke-miterlimit="10" stroke-linecap="round" stroke-linejoin="round"/>
<path d="M35.2881 93.5625H130.529" stroke="#D5DAE8" stroke-width="2" stroke-miterlimit="10" stroke-linecap="round" stroke-linejoin="round"/>
<path d="M13.4775 93.5625H29.1925" stroke="#D5DAE8" stroke-width="2" stroke-miterlimit="10" stroke-linecap="round" stroke-linejoin="round"/>
<path d="M119.511 22.6494C105.027 35.624 96.638 51.2272 95.7432 70.5213" stroke="#D5DAE8" stroke-width="4" stroke-miterlimit="10" stroke-linecap="round" stroke-linejoin="round"/>
<path d="M16.9931 31.3794C28.2423 41.0678 34.8774 52.8533 35.8472 67.5675" stroke="#D5DAE8" stroke-width="4" stroke-miterlimit="10" stroke-linecap="round" stroke-linejoin="round"/>
<path d="M120.35 22.7052C120.35 22.7052 116.212 18.0634 111.011 13.5335L111.794 11.632L109.277 12.0794C107.544 10.6254 105.698 9.22723 103.853 8.10873C107.432 5.98358 110.508 6.20728 113.304 7.99688C118.393 11.1287 119.735 17.2245 120.35 22.7052Z" fill="url(#paint0_linear)"/>
<path d="M16.3535 31.4344C16.3535 31.4344 19.4435 27.8298 23.3462 24.2947L22.7203 22.8549L24.6479 23.159C25.9496 22.0234 27.3376 20.9287 28.7297 20.0475C25.966 18.4786 23.6215 18.695 21.5136 20.1026C17.6755 22.5688 16.7416 27.2418 16.3535 31.4344Z" fill="url(#paint1_linear)"/>
<path d="M118.616 21.8106C118.616 21.8106 113.471 20.4684 107.655 19.6854L107.32 17.9517L105.754 19.4617C103.796 19.238 101.839 19.1262 100.049 19.1821C101.615 15.9944 103.852 14.7081 106.76 14.6522C111.738 14.4844 115.596 18.2314 118.616 21.8106Z" fill="url(#paint2_linear)"/>
<path d="M17.6634 30.7257C17.6634 30.7257 21.5708 29.6247 25.9987 28.9406L26.2291 27.6123L27.4468 28.7416C28.9376 28.5417 30.43 28.4273 31.7969 28.4434C30.5542 26.0334 28.8276 25.0848 26.6069 25.0853C22.8052 25.0312 19.9153 27.9487 17.6634 30.7257Z" fill="url(#paint3_linear)"/>
<path d="M119.735 23.712C119.735 23.712 119.623 17.1129 118.561 9.95443L120.518 9.00371L118.225 7.6615C117.834 5.31265 117.275 2.90787 116.604 0.782715C120.91 1.56567 123.203 3.80267 124.265 7.2141C126.055 13.0862 122.923 18.9025 119.735 23.712Z" fill="url(#paint4_linear)"/>
<path d="M16.8379 32.1939C16.8379 32.1939 16.8252 27.155 17.5299 21.675L16.0217 20.9784L17.752 19.9198C18.0159 18.1211 18.407 16.2772 18.8877 14.645C15.6123 15.3067 13.8953 17.0483 13.1349 19.6681C11.8562 24.177 14.3332 28.57 16.8379 32.1939Z" fill="url(#paint5_linear)"/>
<path d="M118.672 23.2085C118.672 23.2085 122.699 27.9621 126.502 33.7224L128.459 33.1632L127.676 35.5679C128.851 37.5253 129.969 39.5386 130.864 41.496C133.437 38.2524 133.66 35.1765 132.262 32.1006C129.857 26.7877 123.985 24.6066 118.672 23.2085Z" fill="url(#paint6_linear)"/>
<path d="M17.6416 31.7939C17.6416 31.7939 14.6387 35.4823 11.8215 39.9358L10.319 39.538L10.9524 41.3619C10.0851 42.8735 9.26121 44.4269 8.60728 45.9343C6.5954 43.4966 6.37893 41.1521 7.40043 38.7834C9.15708 34.6922 13.607 32.9401 17.6416 31.7939Z" fill="url(#paint7_linear)"/>
<path d="M118.84 22.5376C118.84 22.5376 125.328 23.5443 132.318 25.6135L133.549 23.8239L134.555 26.2846C136.848 27.0116 139.141 27.8505 141.154 28.8572C140.987 24.495 139.085 21.8665 135.842 20.3566C130.249 17.6721 124.041 19.9651 118.84 22.5376Z" fill="url(#paint8_linear)"/>
<path d="M17.5034 31.284C17.5034 31.284 12.5665 32.1488 7.26117 33.8322L6.29542 32.4845L5.5636 34.3777C3.82417 34.9668 2.08641 35.6412 0.564579 36.4395C0.627814 33.1073 2.04016 31.0726 4.49366 29.8718C8.72262 27.7397 13.4951 29.3977 17.5034 31.284Z" fill="url(#paint9_linear)"/>
<path d="M120.861 20.7448C121.832 19.7732 121.832 18.198 120.861 17.2264C119.889 16.2548 118.314 16.2548 117.342 17.2264C116.371 18.198 116.371 19.7732 117.342 20.7448C118.314 21.7164 119.889 21.7164 120.861 20.7448Z" fill="url(#paint10_linear)"/>
<path d="M15.9347 29.9457C15.1786 29.2185 15.1552 28.0161 15.8824 27.26C16.6096 26.504 17.812 26.4805 18.568 27.2077C19.3241 27.9349 19.3475 29.1373 18.6203 29.8934C17.8931 30.6495 16.6907 30.6729 15.9347 29.9457Z" fill="url(#paint11_linear)"/>
<path d="M124.389 24.8077C125.758 23.4387 125.758 21.219 124.389 19.85C123.02 18.4809 120.8 18.4809 119.431 19.85C118.062 21.219 118.062 23.4387 119.431 24.8077C120.8 26.1768 123.02 26.1768 124.389 24.8077Z" fill="url(#paint12_linear)"/>
<path d="M13.3022 33.0994C12.2369 32.0747 12.2039 30.3804 13.2285 29.315C14.2532 28.2497 15.9475 28.2167 17.0129 29.2414C18.0782 30.266 18.1112 31.9603 17.0866 33.0257C16.0619 34.0911 14.3676 34.124 13.3022 33.0994Z" fill="url(#paint13_linear)"/>
<path d="M119.358 24.4176C120.241 23.5344 120.241 22.1023 119.358 21.2191C118.475 20.3358 117.043 20.3358 116.159 21.2191C115.276 22.1023 115.276 23.5344 116.159 24.4176C117.043 25.3009 118.475 25.3009 119.358 24.4176Z" fill="url(#paint14_linear)"/>
<path d="M17.1364 32.7269C16.4491 32.0658 16.4278 30.9727 17.0889 30.2854C17.7499 29.598 18.843 29.5768 19.5304 30.2378C20.2177 30.8989 20.239 31.992 19.5779 32.6793C18.9168 33.3667 17.8237 33.388 17.1364 32.7269Z" fill="url(#paint15_linear)"/>
<path opacity="0.4" d="M24.1592 80.8676C26.0047 80.4761 27.9621 81.0354 29.3602 82.2657" stroke="#D5DAE8" stroke-miterlimit="10" stroke-linecap="round" stroke-linejoin="round"/>
<path opacity="0.4" d="M43.9009 74.7717C45.6346 74.1006 47.3682 73.5414 49.2138 73.094C50.3323 72.8143 51.5067 72.6466 52.6252 72.8703C53.7437 73.094 54.8063 73.9328 55.03 75.0513" stroke="#D5DAE8" stroke-miterlimit="10" stroke-linecap="round" stroke-linejoin="round"/>
<path opacity="0.4" d="M69.123 77.1764C71.416 74.3801 75.5544 73.3175 78.9099 74.6038C79.637 74.8834 80.3081 75.2749 81.091 75.219C81.9299 75.1631 82.601 74.6038 83.2162 74.0446C83.8313 73.4853 84.3906 72.8701 85.1736 72.5346C85.9565 72.255 86.9632 72.4227 87.3546 73.1498" stroke="#D5DAE8" stroke-miterlimit="10" stroke-linecap="round" stroke-linejoin="round"/>
<path opacity="0.4" d="M91.437 80.1966C94.2892 78.2392 98.0362 77.624 101.392 78.4629" stroke="#D5DAE8" stroke-miterlimit="10" stroke-linecap="round" stroke-linejoin="round"/>
<path opacity="0.4" d="M39.2031 68.676C39.3709 67.7812 40.4335 67.2779 41.3842 67.3897C42.3349 67.4456 43.1738 67.893 44.1245 68.0608C45.3549 68.2845 46.6412 67.949 47.6478 67.166" stroke="#D5DAE8" stroke-miterlimit="10" stroke-linecap="round" stroke-linejoin="round"/>
<path opacity="0.4" d="M27.0112 77.1206C28.8568 77.2324 30.7582 76.6173 32.2682 75.5547" stroke="#D5DAE8" stroke-miterlimit="10" stroke-linecap="round" stroke-linejoin="round"/>
<path opacity="0.4" d="M74.8271 67.9486C76.6727 67.669 78.5741 67.9486 80.196 68.7875" stroke="#D5DAE8" stroke-miterlimit="10" stroke-linecap="round" stroke-linejoin="round"/>
<path opacity="0.6" d="M65.5999 66.1032C73.6612 66.1032 80.1963 65.0906 80.1963 63.8414C80.1963 62.5922 73.6612 61.5796 65.5999 61.5796C57.5385 61.5796 51.0034 62.5922 51.0034 63.8414C51.0034 65.0906 57.5385 66.1032 65.5999 66.1032Z" fill="#D5DAE8"/>
<path d="M50.8438 101.174H101.642" stroke="#D5DAE8" stroke-width="2" stroke-miterlimit="10" stroke-linecap="round" stroke-linejoin="round"/>
<path d="M84.7391 43.3461C84.7391 48.1462 83.0285 52.5122 80.1689 55.9335C76.5688 60.2484 71.156 62.9803 65.0794 62.9803C59.2581 62.9803 54.0495 60.4527 50.4495 56.4441C47.3601 52.9717 45.4707 48.376 45.4707 43.3461C45.4707 32.495 54.2538 23.7119 65.1049 23.7119C75.9561 23.7119 84.7391 32.495 84.7391 43.3461Z" fill="#DCE1EE"/>
<path d="M80.1945 55.9334C76.5945 60.2484 71.1817 62.9803 65.105 62.9803C59.2837 62.9803 54.0751 60.4526 50.4751 56.4441C51.0879 55.959 51.8538 55.5249 52.7985 55.1419L53.5134 54.8611C54.8666 54.3249 56.6283 53.6611 59.0028 52.6653C59.539 52.4355 59.9731 52.027 60.2028 51.4908C60.3305 51.21 60.4071 50.8781 60.4071 50.5462V46.1291C60.3305 46.027 60.2539 45.9504 60.2028 45.8482C59.8199 45.2865 59.5645 44.6227 59.4879 43.9078L59.105 43.7291C57.956 44.0099 58.0326 42.7844 57.7518 40.4354C57.6241 39.4652 57.7773 39.261 58.2113 39.1078L58.5688 38.6226C56.373 33.6439 57.4709 30.529 59.6411 29.4311C58.9262 27.8481 58.8752 27.2864 58.8752 27.2864C58.8752 27.2864 63.4965 28.0523 65.105 27.746C67.1221 27.3374 70.237 27.8226 71.3859 30.5034C73.3008 31.2694 74.0668 32.4694 74.22 33.7971C74.5008 35.8907 73.3008 38.1886 73.071 39.0822C73.0966 39.1333 73.1221 39.1588 73.1221 39.1844C73.4285 39.3375 73.5306 39.5929 73.4285 40.4354C73.1476 42.6567 73.2242 44.0355 72.0753 43.7291L71.054 45.5163C71.0029 45.7206 71.0029 45.7972 70.9774 45.9504C70.9263 46.2823 70.9519 46.9461 70.9519 50.5972C70.9519 51.0313 71.0795 51.4398 71.3093 51.8228C71.5646 52.2057 71.9221 52.5377 72.3817 52.7164C72.3817 52.7164 72.4072 52.7164 72.4327 52.7419C75.0625 53.8398 76.9519 54.5547 78.3307 55.0909C79.0456 55.3207 79.6583 55.6271 80.1945 55.9334Z" fill="white"/>
<path d="M73.122 39.0567C73.2241 38.495 72.9688 37.8056 72.7645 37.3205C72.739 37.2439 72.6879 37.1673 72.6624 37.0652C71.7687 35.2779 69.8028 34.563 67.9134 34.4609C63.0878 34.2056 62.6538 35.1247 61.1474 33.746C61.607 34.4609 61.658 35.5588 60.9431 36.9375C60.4325 37.9077 59.4623 38.3418 58.6197 38.6226C56.4239 33.6439 57.5218 30.529 59.692 29.4311C58.9771 27.8481 58.9261 27.2864 58.9261 27.2864C58.9261 27.2864 63.5474 28.0523 65.1304 27.746C67.1474 27.3374 70.2624 27.8226 71.4113 30.5034C73.3262 31.2694 74.0666 32.4694 74.2454 33.7971C74.5262 35.8652 73.3517 38.1375 73.122 39.0567Z" fill="url(#paint16_linear)"/>
<path d="M71.3602 51.7716V52.6396H60.2026V51.5162C60.3303 51.2354 60.4069 50.9035 60.4069 50.5715V46.1289C60.3303 46.0268 60.2537 45.9502 60.2026 45.8481V45.5928C60.4324 46.0013 60.7388 46.3843 61.1218 46.6907L64.6197 49.1162C65.4367 49.8056 66.6112 49.8311 67.4538 49.1673L70.7219 46.2311C70.824 46.1289 70.9517 46.0268 71.0538 45.9247C71.0027 46.2566 71.0283 46.9204 71.0283 50.5715C71.0027 51.0056 71.1304 51.4396 71.3602 51.7716Z" fill="url(#paint17_linear)"/>
<defs>
<linearGradient id="paint0_linear" x1="112.103" y1="7.14449" x2="112.103" y2="16.1929" gradientUnits="userSpaceOnUse">
<stop stop-color="#EAEEF5"/>
<stop offset="1" stop-color="#D4DAE4"/>
</linearGradient>
<linearGradient id="paint1_linear" x1="22.4178" y1="19.4341" x2="22.5523" y2="26.3409" gradientUnits="userSpaceOnUse">
<stop stop-color="#EAEEF5"/>
<stop offset="1" stop-color="#D4DAE4"/>
</linearGradient>
<linearGradient id="paint2_linear" x1="109.334" y1="14.8956" x2="109.334" y2="18.9166" gradientUnits="userSpaceOnUse">
<stop stop-color="#EAEEF5"/>
<stop offset="1" stop-color="#D4DAE4"/>
</linearGradient>
<linearGradient id="paint3_linear" x1="24.6458" y1="25.3094" x2="24.7055" y2="28.3787" gradientUnits="userSpaceOnUse">
<stop stop-color="#EAEEF5"/>
<stop offset="1" stop-color="#D4DAE4"/>
</linearGradient>
<linearGradient id="paint4_linear" x1="120.696" y1="1.57925" x2="120.696" y2="14.4492" gradientUnits="userSpaceOnUse">
<stop stop-color="#EAEEF5"/>
<stop offset="1" stop-color="#D4DAE4"/>
</linearGradient>
<linearGradient id="paint5_linear" x1="15.7756" y1="15.3139" x2="15.9669" y2="25.1377" gradientUnits="userSpaceOnUse">
<stop stop-color="#EAEEF5"/>
<stop offset="1" stop-color="#D4DAE4"/>
</linearGradient>
<linearGradient id="paint6_linear" x1="125.895" y1="23.8438" x2="125.895" y2="34.1084" gradientUnits="userSpaceOnUse">
<stop stop-color="#EAEEF5"/>
<stop offset="1" stop-color="#D4DAE4"/>
</linearGradient>
<linearGradient id="paint7_linear" x1="12.138" y1="32.3862" x2="12.2906" y2="40.2213" gradientUnits="userSpaceOnUse">
<stop stop-color="#EAEEF5"/>
<stop offset="1" stop-color="#D4DAE4"/>
</linearGradient>
<linearGradient id="paint8_linear" x1="129.999" y1="19.4916" x2="129.999" y2="24.9376" gradientUnits="userSpaceOnUse">
<stop stop-color="#EAEEF5"/>
<stop offset="1" stop-color="#D4DAE4"/>
</linearGradient>
<linearGradient id="paint9_linear" x1="8.94042" y1="29.1248" x2="9.02135" y2="33.2818" gradientUnits="userSpaceOnUse">
<stop stop-color="#EAEEF5"/>
<stop offset="1" stop-color="#D4DAE4"/>
</linearGradient>
<linearGradient id="paint10_linear" x1="117.465" y1="17.3483" x2="119.44" y2="19.3232" gradientUnits="userSpaceOnUse">
<stop stop-color="#B0BACC"/>
<stop offset="1" stop-color="#969EAE"/>
</linearGradient>
<linearGradient id="paint11_linear" x1="18.4763" y1="27.3026" x2="16.9983" y2="28.8394" gradientUnits="userSpaceOnUse">
<stop stop-color="#B0BACC"/>
<stop offset="1" stop-color="#969EAE"/>
</linearGradient>
<linearGradient id="paint12_linear" x1="119.604" y1="20.0218" x2="122.386" y2="22.8046" gradientUnits="userSpaceOnUse">
<stop stop-color="#B0BACC"/>
<stop offset="1" stop-color="#969EAE"/>
</linearGradient>
<linearGradient id="paint13_linear" x1="16.8837" y1="29.3751" x2="14.8009" y2="31.5405" gradientUnits="userSpaceOnUse">
<stop stop-color="#B0BACC"/>
<stop offset="1" stop-color="#969EAE"/>
</linearGradient>
<linearGradient id="paint14_linear" x1="116.271" y1="21.3299" x2="118.066" y2="23.1253" gradientUnits="userSpaceOnUse">
<stop stop-color="#B0BACC"/>
<stop offset="1" stop-color="#969EAE"/>
</linearGradient>
<linearGradient id="paint15_linear" x1="19.447" y1="30.3241" x2="18.1033" y2="31.7212" gradientUnits="userSpaceOnUse">
<stop stop-color="#B0BACC"/>
<stop offset="1" stop-color="#969EAE"/>
</linearGradient>
<linearGradient id="paint16_linear" x1="57.4137" y1="33.1728" x2="74.2916" y2="33.1728" gradientUnits="userSpaceOnUse">
<stop stop-color="#B0BACC"/>
<stop offset="1" stop-color="#969EAE"/>
</linearGradient>
<linearGradient id="paint17_linear" x1="65.7848" y1="52.6825" x2="65.7848" y2="48.8004" gradientUnits="userSpaceOnUse">
<stop stop-color="white"/>
<stop offset="1" stop-color="#E2E5EC"/>
</linearGradient>
</defs>
</svg>
