<svg width="152" height="117" viewBox="0 0 152 117" fill="none" xmlns="http://www.w3.org/2000/svg">
<path d="M73.3899 105.87C101.39 105.87 124.09 83.1698 124.09 55.0698C124.09 26.9698 101.29 4.26978 73.3899 4.26978C45.3899 4.26978 22.6899 26.9698 22.6899 55.0698C22.6899 83.1698 45.3899 105.87 73.3899 105.87Z" fill="#EAEEF9"/>
<path d="M120.79 21.7698C123.054 21.7698 124.89 19.9342 124.89 17.6698C124.89 15.4055 123.054 13.5698 120.79 13.5698C118.526 13.5698 116.69 15.4055 116.69 17.6698C116.69 19.9342 118.526 21.7698 120.79 21.7698Z" fill="#EAEEF9"/>
<path d="M126.79 5.76968C128.336 5.76968 129.59 4.51608 129.59 2.96968C129.59 1.42328 128.336 0.169678 126.79 0.169678C125.243 0.169678 123.99 1.42328 123.99 2.96968C123.99 4.51608 125.243 5.76968 126.79 5.76968Z" fill="#EAEEF9"/>
<path d="M25.3898 21.6698C26.9362 21.6698 28.1898 20.4162 28.1898 18.8698C28.1898 17.3234 26.9362 16.0698 25.3898 16.0698C23.8434 16.0698 22.5898 17.3234 22.5898 18.8698C22.5898 20.4162 23.8434 21.6698 25.3898 21.6698Z" fill="#EAEEF9"/>
<path d="M13.6077 82.1979C16.4796 82.1979 18.8077 79.8697 18.8077 76.9979C18.8077 74.126 16.4796 71.7979 13.6077 71.7979C10.7358 71.7979 8.40771 74.126 8.40771 76.9979C8.40771 79.8697 10.7358 82.1979 13.6077 82.1979Z" fill="#EAEEF9"/>
<g filter="url(#filter0_d)">
<path d="M127.348 77.6988H111.967C111.239 77.6988 110.616 77.2311 110.408 76.6075C108.901 72.1387 105.575 71.0475 97.5211 67.8777C97.0534 67.6698 97.0014 67.0463 97.4691 66.7865C99.8074 65.6433 99.3917 64.656 99.3917 57.7968C99.2878 57.6929 99.1839 57.537 99.1319 57.4331C98.6123 56.6536 98.2485 55.7183 98.1446 54.783L97.625 54.5231C96.0661 54.8869 96.17 53.2241 95.7543 50.0023C95.5984 48.6513 95.8063 48.3915 96.3779 48.1836L96.8975 47.5081C93.8317 40.6489 95.3906 36.336 98.4044 34.7771C97.4171 32.5946 97.3652 31.8152 97.3652 31.8152C97.3652 31.8152 103.757 32.9064 105.939 32.4387C108.745 31.8671 113.006 32.5427 114.617 36.2321C117.267 37.2713 118.306 38.9861 118.566 40.7529C118.93 43.6628 117.319 46.8326 117.007 48.0797C117.059 48.1317 117.059 48.1836 117.111 48.2356C117.527 48.4434 117.683 48.8072 117.527 49.9504C117.163 53.0162 117.215 54.9388 115.656 54.4712L114.253 56.9135C114.201 57.2252 114.149 57.3292 114.149 57.485C114.097 57.9527 114.097 58.8361 114.097 63.9285C114.097 64.5521 114.253 65.1236 114.565 65.5913C114.877 66.1629 115.396 66.5786 116.02 66.8384H116.072C119.709 68.3454 122.308 69.3327 124.23 70.1121C128.491 71.8269 129.219 72.2946 129.582 75.1526C129.686 76.5556 128.699 77.6988 127.348 77.6988Z" fill="white"/>
</g>
<path d="M116.902 48.027C117.058 47.2475 116.694 46.3122 116.382 45.6366C116.33 45.5327 116.278 45.4288 116.226 45.2729C115.031 42.8306 112.277 41.7914 109.679 41.6874C103.028 41.3237 102.404 42.6228 100.326 40.7001C100.949 41.6874 101.053 43.1944 100.014 45.117C99.3384 46.4681 97.9874 47.0397 96.7922 47.4554C93.7784 40.5962 95.2853 36.2833 98.2992 34.7244C97.3119 32.5419 97.2599 31.7625 97.2599 31.7625C97.2599 31.7625 103.651 32.8537 105.834 32.386C108.64 31.8144 112.901 32.4899 114.512 36.1793C117.162 37.2186 118.201 38.9334 118.461 40.7001C118.877 43.6101 117.214 46.7798 116.902 48.027Z" fill="url(#paint0_linear)"/>
<path opacity="0.1" d="M125.736 77.698C127.347 75.2037 126.723 72.8654 124.125 70.1113C128.386 71.8261 129.113 72.2938 129.477 75.1518C129.685 76.4508 128.646 77.646 127.295 77.646H125.736V77.698Z" fill="#9AA2B2"/>
<path d="M114.46 65.6425V66.8377H99.0269V65.2788C99.3906 64.4474 99.2867 64.4994 99.2867 57.7961C99.1827 57.6922 99.0788 57.5363 99.0269 57.4323V57.0686C99.3386 57.6402 99.8063 58.1598 100.274 58.5755L105.107 61.9532C106.25 62.8885 107.861 62.9405 109.004 62.0051L113.525 57.952C113.681 57.7961 113.836 57.6922 113.992 57.5363C113.94 58.0039 113.94 58.8873 113.94 63.9797C113.992 64.5513 114.148 65.1229 114.46 65.6425Z" fill="url(#paint1_linear)"/>
<g filter="url(#filter1_d)">
<path d="M47.8427 66.1103C45.3484 66.0583 45.0886 65.5906 45.0886 65.5906V61.4336C47.7387 59.2511 49.9732 56.7049 50.5967 53.3793C52.2595 53.0155 53.2988 51.5086 53.1429 49.8458C53.091 49.1183 52.6233 48.4428 52.5713 47.6633C52.5713 47.2996 52.5713 46.9358 52.5713 46.5721C52.5713 46.3123 52.5713 46.1044 52.5194 45.8446C52.5194 45.5848 52.4674 45.325 52.4674 45.0651C52.3115 43.818 51.9997 42.5189 51.1683 41.012C49.0898 37.1148 44.9847 34.5166 40.3599 34.5166C39.4246 34.5166 38.4893 34.6205 37.6059 34.8284C35.9431 35.1921 34.4361 35.9196 33.0851 36.9589C32.8253 37.1667 32.5655 37.3746 32.3056 37.5824C32.2537 37.6344 32.2017 37.6864 32.0978 37.7383C30.6428 39.0894 29.4996 40.8042 28.8761 42.7268C28.2525 44.6494 28.0966 46.624 28.3564 48.5986C28.3564 48.6506 28.3564 48.7026 28.3564 48.7545C28.3564 48.8065 28.3564 48.8585 28.3564 48.9104C28.4084 49.2742 28.5123 49.2222 28.2525 49.534C28.2005 49.6379 28.0966 49.7418 28.0446 49.8977C27.7329 50.4693 27.4731 51.2488 27.8368 52.1841C28.4604 53.9509 29.7075 53.6911 30.8507 54.6784C30.7987 54.7303 30.6948 54.7823 30.6428 54.7823H30.5908L29.2918 55.198C21.4973 57.6403 20.6139 65.9024 28.6162 67.4094C28.0446 67.4613 27.525 67.7731 27.1613 68.0329C24.6151 70.0075 23.0042 73.0214 22.5885 75.9833C22.4326 76.8667 23.1601 77.6981 24.0954 77.6981H36.4627C36.7225 77.6981 36.9823 77.4902 37.0863 77.2304C38.2295 73.0734 40.8276 71.6184 46.2318 69.4359L49.3496 68.1888C49.8692 67.981 50.4408 67.7731 51.0644 67.5133C51.636 67.3054 51.584 66.474 50.9605 66.3181C50.3369 66.1622 49.7133 66.1103 49.0898 66.0583C48.5701 66.1103 48.1544 66.1103 47.8427 66.1103ZM31.9939 60.81C31.9939 60.2904 32.3576 59.7188 33.1371 59.0952C33.4488 59.5109 33.8645 59.9786 34.3322 60.3943C34.6959 60.7061 35.0597 61.0179 35.4754 61.3297C35.7352 61.4855 35.995 61.6934 36.2548 61.9012C36.3068 61.9532 36.3588 62.0052 36.4107 62.0052C36.4627 62.0571 36.5666 62.1091 36.6186 62.1611V64.7073C36.5666 64.6553 36.5147 64.6033 36.4627 64.6033C36.2029 64.3955 35.995 64.1876 35.7872 64.0317C35.4234 63.7719 35.0597 63.5641 34.6959 63.3562C34.5401 63.2523 34.4361 63.2003 34.3322 63.0964C33.1371 62.317 32.0458 61.5895 31.9939 60.81Z" fill="white"/>
</g>
<path d="M47.8426 66.1103C47.4269 67.6172 46.9593 68.5525 46.9593 68.5525L33.5527 66.422L34.3322 63.0964C34.4361 63.2003 34.592 63.2523 34.6959 63.3042C35.0597 63.5121 35.4754 63.7719 35.7872 64.0317C35.995 64.1876 36.2548 64.3435 36.4627 64.6033C36.5146 64.6553 36.5666 64.7072 36.5666 64.7072V62.161C36.4627 62.1091 36.4107 62.0571 36.3588 62.0052C38.5412 63.0964 41.2433 63.668 45.1405 61.3816C45.0886 61.3816 45.0886 61.4336 45.0366 61.4336V65.5906C45.0366 65.5906 45.3484 66.0583 47.8426 66.1103Z" fill="url(#paint2_linear)"/>
<path d="M52.4675 45.8446C50.233 46.6241 47.8427 46.9359 45.4524 46.728C41.7111 46.4162 38.0736 44.9093 35.2676 42.4151C34.3323 45.1172 31.9939 47.1437 29.3438 48.3389C28.9801 48.4948 28.6163 48.6507 28.2526 48.7546C28.2526 48.7026 28.2526 48.6507 28.2526 48.6507C27.9928 46.676 28.1486 44.7014 28.7722 42.7788C29.3958 40.8562 30.539 39.1414 31.9939 37.7903C32.0459 37.7384 32.0979 37.6864 32.2018 37.6344C32.4616 37.4266 32.7214 37.2187 32.9812 37.0109C34.3323 36.0236 35.8912 35.2961 37.502 34.8804C38.4374 34.6725 39.3208 34.5686 40.2561 34.5686C44.8808 34.5686 48.9859 37.1668 51.0645 41.064C51.8439 42.5709 52.2076 43.87 52.3635 45.0652C52.4675 45.325 52.4675 45.5848 52.4675 45.8446Z" fill="url(#paint3_linear)"/>
<path d="M33.293 59.2512C33.6047 59.6669 33.9685 60.0307 34.2803 60.3424C33.9165 60.0307 33.5528 59.6669 33.293 59.2512Z" fill="#3973F4"/>
<path d="M38.1775 72.3978C37.1902 73.6449 35.3196 73.6969 33.7607 73.6449C35.4235 72.034 34.4881 66.7857 28.6683 67.4093H28.6163C20.614 65.9024 21.4973 57.6402 29.2399 55.1979L30.5389 54.7822C30.6429 54.8342 30.6948 54.8862 30.7468 54.9901C31.3703 56.6009 32.2018 57.952 33.0851 59.0432C29.9154 61.6933 34.3323 62.5248 36.4628 64.5513C38.3334 65.6426 39.8923 70.2153 38.1775 72.3978Z" fill="url(#paint4_linear)"/>
<path d="M33.2411 59.2511C33.1892 59.1991 33.1372 59.1472 33.1372 59.0952C33.1372 59.0952 33.1892 59.1991 33.2411 59.2511Z" fill="#3973F4"/>
<g filter="url(#filter2_d)">
<path d="M107.444 80.0883C107.704 82.011 106.197 83.7777 104.223 83.7777H43.3217C41.3471 83.7777 39.8402 82.011 40.1 80.0883C40.6716 76.0872 41.555 75.2558 47.4788 72.8654L48.9338 72.2938C51.6878 71.2026 55.2733 69.8516 60.1059 67.825C61.1971 67.3573 62.0805 66.5259 62.5481 65.4347C62.8079 64.8631 62.9638 64.1876 62.9638 63.5121V54.4185C62.808 54.2106 62.6521 54.0547 62.5481 53.8469C61.7687 52.7037 61.2491 51.3526 61.0932 49.8977L60.3137 49.5339C57.9754 50.1055 58.1832 47.6113 57.5597 42.8307C57.2998 40.8561 57.6116 40.4404 58.495 40.1286L59.2225 39.1413C54.7536 29.0084 56.9881 22.6689 61.4049 20.4345C60.0539 17.2128 59.95 16.0696 59.95 16.0696C59.95 16.0696 69.3553 17.6285 72.577 17.0049C76.6821 16.1735 83.0217 17.1608 85.36 22.617C89.2573 24.1759 90.7642 26.6181 91.1279 29.3202C91.6995 33.5812 89.2573 38.2579 88.7896 40.0766C88.8416 40.1805 88.8416 40.2325 88.8935 40.2845C89.5171 40.5962 89.7249 41.1159 89.5171 42.8307C88.9455 47.3515 89.1014 50.1575 86.763 49.5339L84.6845 53.1714C84.5806 53.5871 84.5806 53.743 84.5286 54.0547C84.4247 54.7303 84.4766 56.0813 84.4766 63.5121C84.4766 64.3954 84.7365 65.2788 85.2041 65.9543C85.7238 66.7338 86.4512 67.4093 87.3346 67.773C87.3866 67.773 87.3866 67.773 87.4385 67.825C92.7908 70.0594 96.636 71.5144 99.4421 72.6056C105.834 75.0999 106.821 75.8793 107.444 80.0883Z" fill="white"/>
</g>
<path d="M88.8416 40.0766C89.0495 38.9334 88.5299 37.5304 88.1142 36.5431C88.0622 36.3872 87.9583 36.2313 87.9063 36.0235C86.0876 32.386 82.0864 30.9311 78.2411 30.7232C68.4201 30.2036 67.5367 32.0743 64.4709 29.2683C65.4062 30.7232 65.5101 32.9576 64.0552 35.7637C63.0159 37.7383 61.0413 38.6216 59.3265 39.1932C54.8577 29.0604 57.0921 22.7209 61.509 20.4865C60.054 17.2128 59.9501 16.0696 59.9501 16.0696C59.9501 16.0696 69.3554 17.6285 72.5771 17.0049C76.6822 16.1735 83.0218 17.1608 85.3601 22.617C89.2573 24.1759 90.7643 26.6181 91.128 29.3202C91.7516 33.5292 89.3093 38.2059 88.8416 40.0766Z" fill="url(#paint5_linear)"/>
<path opacity="0.1" d="M101.936 83.7259C104.327 80.0884 103.391 76.6588 99.5459 72.6057C105.833 75.1 106.873 75.8794 107.444 80.0365C107.704 81.9591 106.197 83.7259 104.223 83.7259H101.936Z" fill="#9AA2B2"/>
<path d="M85.2561 65.9542V67.721H62.6001V65.4346C62.8599 64.863 63.0158 64.1875 63.0158 63.512V54.4184C62.8599 54.2105 62.704 54.0546 62.6001 53.8468V53.3271C63.0678 54.1586 63.6913 54.938 64.4708 55.5616L71.5897 60.55C73.2526 61.9531 75.6429 62.005 77.3577 60.654L84.009 54.6782C84.2168 54.4703 84.4766 54.2625 84.6845 54.0546C84.5806 54.7302 84.6325 56.0812 84.6325 63.512C84.5806 64.3953 84.8404 65.2267 85.2561 65.9542Z" fill="url(#paint6_linear)"/>
<path d="M91.3868 93.265C91.0642 94.6357 90.5805 96.087 90.0161 97.2965C88.4841 100.28 86.0653 102.618 83.0821 104.15C80.0182 105.682 76.3899 106.327 72.7616 105.521C64.215 103.747 58.7323 95.3614 60.5061 86.8148C62.28 78.2682 70.5847 72.7048 79.1313 74.5593C82.1951 75.2043 84.8559 76.7362 87.1135 78.8326C90.903 82.6221 92.5156 88.1048 91.3868 93.265Z" fill="url(#paint7_linear)"/>
<path d="M80.9858 88.6691H77.3575V85.0408C77.3575 84.3152 76.7931 83.6702 75.9868 83.6702C75.2612 83.6702 74.6161 84.2346 74.6161 85.0408V88.6691H70.9879C70.2622 88.6691 69.6172 89.2335 69.6172 90.0398C69.6172 90.8461 70.1816 91.4105 70.9879 91.4105H74.6161V95.0387C74.6161 95.7644 75.1805 96.4094 75.9868 96.4094C76.7125 96.4094 77.3575 95.845 77.3575 95.0387V91.4105H80.9858C81.7114 91.4105 82.3565 90.8461 82.3565 90.0398C82.3565 89.2335 81.7114 88.6691 80.9858 88.6691Z" fill="white"/>
<defs>
<filter id="filter0_d" x="73.2319" y="20.8152" width="78.358" height="89.8836" filterUnits="userSpaceOnUse" color-interpolation-filters="sRGB">
<feFlood flood-opacity="0" result="BackgroundImageFix"/>
<feColorMatrix in="SourceAlpha" type="matrix" values="0 0 0 0 0 0 0 0 0 0 0 0 0 0 0 0 0 0 127 0"/>
<feOffset dy="11"/>
<feGaussianBlur stdDeviation="11"/>
<feColorMatrix type="matrix" values="0 0 0 0 0.397708 0 0 0 0 0.47749 0 0 0 0 0.575 0 0 0 0.27 0"/>
<feBlend mode="normal" in2="BackgroundImageFix" result="effect1_dropShadow"/>
<feBlend mode="normal" in="SourceGraphic" in2="effect1_dropShadow" result="shape"/>
</filter>
<filter id="filter1_d" x="0.567383" y="23.5166" width="74.5909" height="87.1815" filterUnits="userSpaceOnUse" color-interpolation-filters="sRGB">
<feFlood flood-opacity="0" result="BackgroundImageFix"/>
<feColorMatrix in="SourceAlpha" type="matrix" values="0 0 0 0 0 0 0 0 0 0 0 0 0 0 0 0 0 0 127 0"/>
<feOffset dy="11"/>
<feGaussianBlur stdDeviation="11"/>
<feColorMatrix type="matrix" values="0 0 0 0 0.397708 0 0 0 0 0.47749 0 0 0 0 0.575 0 0 0 0.27 0"/>
<feBlend mode="normal" in2="BackgroundImageFix" result="effect1_dropShadow"/>
<feBlend mode="normal" in="SourceGraphic" in2="effect1_dropShadow" result="shape"/>
</filter>
<filter id="filter2_d" x="18.0708" y="5.06958" width="111.403" height="111.708" filterUnits="userSpaceOnUse" color-interpolation-filters="sRGB">
<feFlood flood-opacity="0" result="BackgroundImageFix"/>
<feColorMatrix in="SourceAlpha" type="matrix" values="0 0 0 0 0 0 0 0 0 0 0 0 0 0 0 0 0 0 127 0"/>
<feOffset dy="11"/>
<feGaussianBlur stdDeviation="11"/>
<feColorMatrix type="matrix" values="0 0 0 0 0.397708 0 0 0 0 0.47749 0 0 0 0 0.575 0 0 0 0.27 0"/>
<feBlend mode="normal" in2="BackgroundImageFix" result="effect1_dropShadow"/>
<feBlend mode="normal" in="SourceGraphic" in2="effect1_dropShadow" result="shape"/>
</filter>
<linearGradient id="paint0_linear" x1="95.1387" y1="39.8965" x2="118.531" y2="39.8965" gradientUnits="userSpaceOnUse">
<stop stop-color="#B0BACC"/>
<stop offset="1" stop-color="#969EAE"/>
</linearGradient>
<linearGradient id="paint1_linear" x1="106.748" y1="66.8972" x2="106.748" y2="61.5154" gradientUnits="userSpaceOnUse">
<stop stop-color="white"/>
<stop offset="1" stop-color="#E2E5EC"/>
</linearGradient>
<linearGradient id="paint2_linear" x1="40.702" y1="68.5962" x2="40.702" y2="64.6457" gradientUnits="userSpaceOnUse">
<stop stop-color="white"/>
<stop offset="1" stop-color="#E2E5EC"/>
</linearGradient>
<linearGradient id="paint3_linear" x1="28.1212" y1="41.6631" x2="52.4719" y2="41.6631" gradientUnits="userSpaceOnUse">
<stop stop-color="#B0BACC"/>
<stop offset="1" stop-color="#969EAE"/>
</linearGradient>
<linearGradient id="paint4_linear" x1="23.003" y1="64.222" x2="38.9199" y2="64.222" gradientUnits="userSpaceOnUse">
<stop stop-color="#B0BACC"/>
<stop offset="1" stop-color="#969EAE"/>
</linearGradient>
<linearGradient id="paint5_linear" x1="56.872" y1="28.0757" x2="91.2355" y2="28.0757" gradientUnits="userSpaceOnUse">
<stop stop-color="#B0BACC"/>
<stop offset="1" stop-color="#969EAE"/>
</linearGradient>
<linearGradient id="paint6_linear" x1="73.935" y1="67.8086" x2="73.935" y2="59.8791" gradientUnits="userSpaceOnUse">
<stop stop-color="white"/>
<stop offset="1" stop-color="#E2E5EC"/>
</linearGradient>
<linearGradient id="paint7_linear" x1="60.1584" y1="90.0395" x2="91.7462" y2="90.0395" gradientUnits="userSpaceOnUse">
<stop stop-color="#B0BACC"/>
<stop offset="1" stop-color="#969EAE"/>
</linearGradient>
</defs>
</svg>
