<svg width="136" height="125" viewBox="0 0 136 125" fill="none" xmlns="http://www.w3.org/2000/svg">
<path d="M70.6468 102.055C98.6468 102.055 121.347 79.3552 121.347 51.2552C121.347 23.1552 98.6468 0.4552 70.6468 0.4552C42.6468 0.4552 19.9468 23.1552 19.9468 51.2552C19.9468 79.3552 42.6468 102.055 70.6468 102.055Z" fill="#EAEEF9"/>
<path d="M127.147 35.3552C129.411 35.3552 131.247 33.5195 131.247 31.2551C131.247 28.9908 129.411 27.1552 127.147 27.1552C124.883 27.1552 123.047 28.9908 123.047 31.2551C123.047 33.5195 124.883 35.3552 127.147 35.3552Z" fill="#EAEEF9"/>
<path d="M133.147 19.2552C134.694 19.2552 135.947 18.0015 135.947 16.4552C135.947 14.9088 134.694 13.6552 133.147 13.6552C131.601 13.6552 130.347 14.9088 130.347 16.4552C130.347 18.0015 131.601 19.2552 133.147 19.2552Z" fill="#EAEEF9"/>
<path d="M16.447 38.2551C17.9934 38.2551 19.247 37.0015 19.247 35.4552C19.247 33.9088 17.9934 32.6552 16.447 32.6552C14.9006 32.6552 13.647 33.9088 13.647 35.4552C13.647 37.0015 14.9006 38.2551 16.447 38.2551Z" fill="#EAEEF9"/>
<path d="M88.0469 21.8983C105.31 21.8983 119.235 34.4528 119.235 49.8867C119.235 58.7554 114.631 66.7027 107.381 71.8857V83.5188C107.381 85.1313 105.54 85.9375 104.389 85.0161L94.4916 77.2991C92.4201 77.6447 90.3486 77.875 88.162 77.875C70.8993 77.875 56.9741 65.3206 56.9741 49.8867C56.9741 34.4528 70.8993 21.8983 88.0469 21.8983Z" fill="#CBD4E0"/>
<g filter="url(#filter0_d)">
<path d="M57.5494 20.5161C38.3303 20.5161 22.7939 34.4527 22.7939 51.6143C22.7939 61.5196 27.9727 70.3883 36.0287 76.0321V88.9321C36.0287 90.6597 37.9851 91.6964 39.3661 90.5446L50.4142 82.0214C52.7159 82.4821 55.0176 82.7124 57.4344 82.7124C76.6535 82.7124 92.1899 68.7758 92.1899 51.6143C92.1899 34.4527 76.6535 20.5161 57.5494 20.5161Z" fill="url(#paint0_linear)"/>
</g>
<path d="M46.2138 52.8813C48.3113 52.8813 50.0116 51.1796 50.0116 49.0804C50.0116 46.9813 48.3113 45.2795 46.2138 45.2795C44.1163 45.2795 42.416 46.9813 42.416 49.0804C42.416 51.1796 44.1163 52.8813 46.2138 52.8813Z" fill="#989FB0"/>
<path d="M67.7348 52.8813C69.8323 52.8813 71.5326 51.1796 71.5326 49.0804C71.5326 46.9813 69.8323 45.2795 67.7348 45.2795C65.6373 45.2795 63.937 46.9813 63.937 49.0804C63.937 51.1796 65.6373 52.8813 67.7348 52.8813Z" fill="#989FB0"/>
<path d="M61.7504 64.9751C61.4051 64.9751 61.0599 64.8599 60.8297 64.5143C59.909 63.2474 58.528 62.5563 56.9168 62.5563C55.4207 62.5563 53.9246 63.2474 53.1191 64.5143C52.7738 65.0902 52.0833 65.2054 51.5079 64.7447C50.9324 64.3992 50.8174 63.7081 51.2777 63.1322C52.5436 61.2894 54.7302 60.1376 57.0319 60.1376C59.3336 60.1376 61.4051 61.2894 62.7861 63.1322C63.1314 63.7081 63.0163 64.3992 62.556 64.7447C62.2107 64.9751 61.9806 64.9751 61.7504 64.9751Z" fill="#989FB0"/>
<path d="M48.9884 17.5931C48.8497 17.5931 48.7109 17.5931 48.5721 17.5931C47.8783 17.3153 47.462 16.6209 47.6008 15.9266L49.9598 8.28841C50.2373 7.59403 50.9311 7.17741 51.6249 7.31628C52.3187 7.59403 52.735 8.28841 52.5963 8.98279L50.3761 16.6209C50.2373 17.1765 49.6822 17.5931 48.9884 17.5931Z" fill="#B5BCCE"/>
<path d="M43.1605 19.2596C42.6055 19.2596 42.0504 18.843 41.7729 18.2875L38.1651 7.31633C37.8875 6.62196 38.3038 5.7887 38.9976 5.51095C39.6914 5.2332 40.524 5.64983 40.8015 6.3442L44.4094 17.3154C44.6869 18.0098 44.2706 18.843 43.5768 19.1208C43.438 19.2596 43.2993 19.2596 43.1605 19.2596Z" fill="#B5BCCE"/>
<path d="M37.7489 21.8983C37.3326 21.8983 37.0551 21.7595 36.7776 21.4817L32.3372 17.1766C31.7821 16.6211 31.7821 15.7878 32.3372 15.2323C32.8922 14.6768 33.7248 14.6768 34.2799 15.2323L38.7203 19.5374C39.2753 20.0929 39.2753 20.9262 38.7203 21.4817C38.4427 21.7595 38.0264 21.8983 37.7489 21.8983Z" fill="#B5BCCE"/>
<defs>
<filter id="filter0_d" x="0.793945" y="9.51611" width="113.396" height="114.515" filterUnits="userSpaceOnUse" color-interpolation-filters="sRGB">
<feFlood flood-opacity="0" result="BackgroundImageFix"/>
<feColorMatrix in="SourceAlpha" type="matrix" values="0 0 0 0 0 0 0 0 0 0 0 0 0 0 0 0 0 0 127 0"/>
<feOffset dy="11"/>
<feGaussianBlur stdDeviation="11"/>
<feColorMatrix type="matrix" values="0 0 0 0 0.397708 0 0 0 0 0.47749 0 0 0 0 0.575 0 0 0 0.27 0"/>
<feBlend mode="normal" in2="BackgroundImageFix" result="effect1_dropShadow"/>
<feBlend mode="normal" in="SourceGraphic" in2="effect1_dropShadow" result="shape"/>
</filter>
<linearGradient id="paint0_linear" x1="57.4693" y1="18.885" x2="57.4693" y2="91.7912" gradientUnits="userSpaceOnUse">
<stop stop-color="#FDFEFF"/>
<stop offset="0.9964" stop-color="#ECF0F5"/>
</linearGradient>
</defs>
</svg>
