<svg width="149" height="136" viewBox="0 0 149 136" fill="none" xmlns="http://www.w3.org/2000/svg">
<path d="M71.6834 105.835C99.6834 105.835 122.383 83.1347 122.383 55.0347C122.383 26.9347 99.5834 4.23474 71.6834 4.23474C43.6834 4.23474 20.9834 26.9347 20.9834 55.0347C20.9834 83.1347 43.6834 105.835 71.6834 105.835Z" fill="#EAEEF9"/>
<path d="M119.083 21.7348C121.348 21.7348 123.183 19.8992 123.183 17.6348C123.183 15.3704 121.348 13.5348 119.083 13.5348C116.819 13.5348 114.983 15.3704 114.983 17.6348C114.983 19.8992 116.819 21.7348 119.083 21.7348Z" fill="#E7EBF6"/>
<path d="M125.083 5.73477C126.63 5.73477 127.883 4.48116 127.883 2.93477C127.883 1.38837 126.63 0.134766 125.083 0.134766C123.537 0.134766 122.283 1.38837 122.283 2.93477C122.283 4.48116 123.537 5.73477 125.083 5.73477Z" fill="#E7EBF6"/>
<path d="M23.6833 21.6348C25.2297 21.6348 26.4833 20.3812 26.4833 18.8348C26.4833 17.2884 25.2297 16.0348 23.6833 16.0348C22.1369 16.0348 20.8833 17.2884 20.8833 18.8348C20.8833 20.3812 22.1369 21.6348 23.6833 21.6348Z" fill="#E7EBF6"/>
<path d="M6.5833 75.6347C9.45518 75.6347 11.7833 73.3066 11.7833 70.4347C11.7833 67.5629 9.45518 65.2347 6.5833 65.2347C3.71142 65.2347 1.3833 67.5629 1.3833 70.4347C1.3833 73.3066 3.71142 75.6347 6.5833 75.6347Z" fill="#E7EBF6"/>
<g filter="url(#filter0_d)">
<path d="M86.3834 28.0348L101.683 83.0348C102.183 84.9348 101.083 86.8348 99.1834 87.3348L45.2834 101.635C43.3834 102.135 41.4834 101.035 40.9834 99.1348L22.1834 28.1348C21.6834 26.2348 22.7834 24.3348 24.6834 23.8348L63.6834 13.5348L86.3834 28.0348Z" fill="url(#paint0_linear)"/>
</g>
<path d="M85.5832 62.8348L56.4832 70.5348L53.2832 71.3348L43.5832 73.9348C43.1832 74.0348 42.8832 74.5348 43.0832 75.0348C43.1832 75.5348 43.6832 75.8348 44.0832 75.7348L53.7832 73.1348L56.9832 72.3348L86.0832 64.6348C86.4832 64.5348 86.7832 64.0348 86.5832 63.5348C86.4832 63.0348 85.9832 62.7348 85.5832 62.8348Z" fill="#D5DDEA"/>
<path d="M83.6835 56.0348L72.8835 58.8348L69.1835 59.8348L41.8835 67.1348C41.4835 67.2348 41.1835 67.7348 41.3835 68.2348C41.4835 68.7348 41.9835 69.0348 42.3835 68.9348L69.7835 61.6348L73.4835 60.6348L84.2835 57.8348C84.6835 57.7348 84.9835 57.2348 84.7835 56.7348C84.5835 56.3348 84.0835 55.9348 83.6835 56.0348Z" fill="#D5DDEA"/>
<path d="M82.0836 49.1347L79.2836 49.8347L76.4836 50.5347L39.9836 60.2347C39.5836 60.3347 39.2836 60.8347 39.4836 61.3347C39.5836 61.8347 40.0836 62.1347 40.4836 62.0347L76.9836 52.3347L80.0836 51.5347L82.5836 50.8347C82.9836 50.7347 83.2836 50.2347 83.0836 49.7347C82.9836 49.3347 82.5836 49.0347 82.0836 49.1347Z" fill="#D5DDEA"/>
<path d="M65.1837 84.5347L63.1837 85.0347C62.7837 85.1347 62.2837 84.8347 62.1837 84.3347C62.0837 83.8347 62.2837 83.3347 62.6837 83.2347L64.6837 82.7347C65.0837 82.6347 65.5837 82.9347 65.6837 83.4347C65.7837 84.0347 65.5837 84.4347 65.1837 84.5347Z" fill="#CED7E2"/>
<path d="M59.0836 86.1348L47.5836 89.1348C47.1836 89.2348 46.6836 88.9348 46.5836 88.4348C46.4836 87.9348 46.6836 87.4348 47.0836 87.3348L58.5836 84.3348C58.9836 84.2348 59.4836 84.5348 59.5836 85.0348C59.7836 85.5348 59.5836 86.0348 59.0836 86.1348Z" fill="#D5DDEA"/>
<path d="M80.6834 42.2348L71.5834 44.6348L69.3834 45.2348L38.2834 53.4348C37.8834 53.5348 37.5834 54.0348 37.7834 54.5348C37.8834 55.0348 38.3834 55.3348 38.7834 55.2348L69.7834 47.1348L71.9834 46.5348L80.9834 44.1348C81.4834 44.0348 81.6834 43.5348 81.5834 42.9348C81.5834 42.5348 81.0834 42.1348 80.6834 42.2348Z" fill="#D5DDEA"/>
<path d="M59.1837 27.1348L33.3837 33.9348C32.7837 34.1348 32.1837 33.7348 31.9837 33.1348C31.7837 32.5348 32.1837 31.9348 32.7837 31.7348L58.5837 24.9348C59.1837 24.7348 59.7837 25.1348 59.9837 25.7348C60.1837 26.3348 59.7837 26.9348 59.1837 27.1348Z" fill="#D5DDEA"/>
<path d="M44.9834 37.5347L35.0834 40.1347C34.4834 40.3347 33.8834 39.9347 33.6834 39.3347C33.4834 38.7347 33.8834 38.1347 34.4834 37.9347L44.2834 35.3347C44.8834 35.1347 45.4834 35.5347 45.6834 36.1347C45.8834 36.7347 45.4834 37.3347 44.9834 37.5347Z" fill="#D5DDEA"/>
<path d="M63.6836 13.5348L67.6836 28.7348C68.2836 30.8348 70.5836 32.1348 72.6836 31.5348L86.3836 28.0348" fill="#D5DDEA"/>
<g filter="url(#filter1_d)">
<path d="M126.783 43.5348L117.583 99.9348C117.283 101.835 115.383 103.135 113.483 102.735L58.6833 93.1348C56.7833 92.8348 55.4833 90.9348 55.7833 89.0348L68.4833 16.7348C68.7833 14.8348 70.6833 13.5348 72.5833 13.9348L112.383 20.9348L126.783 43.5348Z" fill="url(#paint1_linear)"/>
</g>
<path d="M111.483 74.8348L81.8832 69.6348L78.6832 69.0348L68.7832 67.3348C68.3832 67.2348 67.8832 67.6348 67.8832 68.1348C67.7832 68.6348 68.0831 69.1348 68.4831 69.2348L78.3832 70.9348L81.5831 71.5348L111.183 76.7348C111.583 76.8348 112.083 76.4348 112.083 75.9348C112.183 75.4348 111.983 74.9348 111.483 74.8348Z" fill="#CED7E2"/>
<path d="M112.683 67.9347L101.683 66.0347L97.9834 65.3347L70.0834 60.4347C69.6834 60.3347 69.1834 60.7347 69.1834 61.2347C69.0834 61.7347 69.3834 62.2347 69.7834 62.3347L97.6834 67.2347L101.383 67.9347L112.383 69.8347C112.783 69.9347 113.283 69.5347 113.283 69.0347C113.383 68.5347 113.083 68.0347 112.683 67.9347Z" fill="#CED7E2"/>
<path d="M114.083 60.9347L111.183 60.4347L108.283 59.9347L71.0834 53.4347C70.6834 53.3347 70.1834 53.7347 70.1834 54.2347C70.0834 54.7347 70.3834 55.2347 70.7834 55.3347L107.983 61.8347L111.183 62.4347L113.683 62.8347C114.083 62.9347 114.583 62.5347 114.583 62.0347C114.783 61.5347 114.583 61.0347 114.083 60.9347Z" fill="#D5DDEA"/>
<path d="M83.8831 86.0348L81.8831 85.7348C81.4831 85.6348 81.1831 85.1348 81.2831 84.6348C81.3831 84.1348 81.7831 83.7348 82.1831 83.8348L84.1831 84.1348C84.5831 84.2348 84.8831 84.7348 84.7831 85.2348C84.6831 85.8348 84.2831 86.0348 83.8831 86.0348Z" fill="#CED7E2"/>
<path d="M77.7833 84.9348L66.0832 82.9348C65.6832 82.8348 65.3832 82.3348 65.4832 81.8348C65.5832 81.3348 65.9833 80.9348 66.3833 81.0348L78.0832 83.0348C78.4832 83.1348 78.7833 83.6348 78.6833 84.1348C78.5833 84.7348 78.1833 85.0348 77.7833 84.9348Z" fill="#E3EAF2"/>
<path d="M115.683 54.1348L106.383 52.5348L104.083 52.1348L72.3833 46.5348C71.9833 46.4348 71.4832 46.8348 71.4832 47.3348C71.3832 47.8348 71.6832 48.3348 72.0832 48.4348L103.783 54.0348L106.083 54.4348L115.283 56.0348C115.783 56.1348 116.183 55.7348 116.283 55.2348C116.383 54.7348 116.083 54.2348 115.683 54.1348Z" fill="#D5DDEA"/>
<path d="M102.583 31.4348L76.2835 26.8348C75.6835 26.7348 75.2835 26.1348 75.3835 25.5348C75.4835 24.9348 76.0835 24.5348 76.6835 24.6348L102.983 29.2348C103.583 29.3348 103.983 29.9348 103.883 30.5348C103.783 31.0348 103.183 31.5348 102.583 31.4348Z" fill="#D5DDEA"/>
<path d="M85.2834 34.8348L75.1834 33.0348C74.5834 32.9348 74.1834 32.3348 74.2834 31.7348C74.3834 31.1348 74.9834 30.7348 75.5834 30.8348L85.5834 32.6348C86.1834 32.7348 86.5834 33.3348 86.4834 33.9348C86.3834 34.5348 85.7834 34.9348 85.2834 34.8348Z" fill="#D5DDEA"/>
<path d="M112.283 20.9348L109.583 36.4348C109.183 38.6348 110.783 40.7348 112.983 41.1348L126.783 43.5348" fill="#D5DDEA"/>
<path d="M89.0832 94.6348C101.399 94.6348 111.383 84.6507 111.383 72.3348C111.383 60.0188 101.399 50.0348 89.0832 50.0348C76.7672 50.0348 66.7832 60.0188 66.7832 72.3348C66.7832 84.6507 76.7672 94.6348 89.0832 94.6348Z" fill="white"/>
<path d="M86.9832 75.9348C86.8832 75.5348 86.8832 75.1348 86.8832 74.6348C86.8832 72.9348 87.5832 71.4348 89.3832 70.1348L90.8832 69.0348C91.7832 68.3348 92.1832 67.5348 92.1832 66.5348C92.1832 65.1348 91.1832 63.7348 89.0832 63.7348C86.8832 63.7348 85.8832 65.5348 85.8832 67.2348C85.8832 67.6348 85.8832 67.9348 85.9832 68.2348L81.9832 68.1348C81.8832 67.7348 81.7832 67.2348 81.7832 66.7348C81.7832 63.3348 84.2832 60.1348 88.9832 60.1348C93.7832 60.1348 96.3832 63.2348 96.3832 66.3348C96.3832 68.8348 95.0832 70.5348 93.2832 71.8348L91.9832 72.7348C90.8832 73.5348 90.2832 74.5348 90.2832 75.7348V75.9348H86.9832ZM88.6832 77.9348C90.0832 77.9348 91.1832 79.0348 91.1832 80.4348C91.1832 81.8348 90.0832 82.9348 88.6832 82.9348C87.2832 82.9348 86.1832 81.8348 86.1832 80.4348C86.2832 79.1348 87.2832 77.9348 88.6832 77.9348Z" fill="#989FB0"/>
<path d="M122.463 106.958C121.597 106.958 120.731 106.612 120.039 105.833L105.583 91.3778L105.064 91.724C100.39 95.1864 94.9367 97.0042 89.397 97.0042C82.7319 97.0042 76.0669 94.3208 71.133 89.6466C65.9395 84.7128 63.083 78.0477 63.083 70.7768C63.083 56.3214 74.855 44.5494 89.3104 44.5494C99.1781 44.5494 107.834 49.7429 112.508 58.5719C117.096 67.3144 116.49 77.5284 110.864 85.7515L110.517 86.2708L125.059 100.813C126.531 102.284 126.185 103.756 125.925 104.535C125.232 105.92 123.847 106.958 122.463 106.958ZM89.3104 51.7338C78.7502 51.7338 70.2674 60.3031 70.2674 70.7768C70.2674 82.7219 80.0486 89.9063 89.5701 89.9063C95.3695 89.9063 100.65 87.3095 104.372 82.6353C108.959 76.9225 109.738 69.2187 106.536 62.5537C103.246 55.8886 96.6679 51.7338 89.3104 51.7338Z" fill="#989FB0"/>
<defs>
<filter id="filter0_d" x="0.0629883" y="2.53479" width="123.741" height="132.22" filterUnits="userSpaceOnUse" color-interpolation-filters="sRGB">
<feFlood flood-opacity="0" result="BackgroundImageFix"/>
<feColorMatrix in="SourceAlpha" type="matrix" values="0 0 0 0 0 0 0 0 0 0 0 0 0 0 0 0 0 0 127 0"/>
<feOffset dy="11"/>
<feGaussianBlur stdDeviation="11"/>
<feColorMatrix type="matrix" values="0 0 0 0 0.397708 0 0 0 0 0.47749 0 0 0 0 0.575 0 0 0 0.27 0"/>
<feBlend mode="normal" in2="BackgroundImageFix" result="effect1_dropShadow"/>
<feBlend mode="normal" in="SourceGraphic" in2="effect1_dropShadow" result="shape"/>
</filter>
<filter id="filter1_d" x="33.7402" y="2.8623" width="115.043" height="132.945" filterUnits="userSpaceOnUse" color-interpolation-filters="sRGB">
<feFlood flood-opacity="0" result="BackgroundImageFix"/>
<feColorMatrix in="SourceAlpha" type="matrix" values="0 0 0 0 0 0 0 0 0 0 0 0 0 0 0 0 0 0 127 0"/>
<feOffset dy="11"/>
<feGaussianBlur stdDeviation="11"/>
<feColorMatrix type="matrix" values="0 0 0 0 0.397708 0 0 0 0 0.47749 0 0 0 0 0.575 0 0 0 0.27 0"/>
<feBlend mode="normal" in2="BackgroundImageFix" result="effect1_dropShadow"/>
<feBlend mode="normal" in="SourceGraphic" in2="effect1_dropShadow" result="shape"/>
</filter>
<linearGradient id="paint0_linear" x1="61.9074" y1="11.4942" x2="61.9074" y2="102.706" gradientUnits="userSpaceOnUse">
<stop stop-color="#FDFEFF"/>
<stop offset="0.9964" stop-color="#ECF0F5"/>
</linearGradient>
<linearGradient id="paint1_linear" x1="91.2386" y1="11.8049" x2="91.2386" y2="103.766" gradientUnits="userSpaceOnUse">
<stop stop-color="#FDFEFF"/>
<stop offset="0.9964" stop-color="#ECF0F5"/>
</linearGradient>
</defs>
</svg>
