<svg xmlns="http://www.w3.org/2000/svg" width="295" height="274" viewBox="0 0 295 274">
    <g fill="none">
        <path fill="#EBEBEB" d="M139.58 273.035H4.41c-2.207 0-3.997-1.79-3.997-3.997V3.962C.433 1.768 2.216 0 4.41 0h135.17c1.06 0 2.077.421 2.826 1.17.75.75 1.171 1.767 1.171 2.827v265.041c0 1.06-.421 2.077-1.17 2.826-.75.75-1.767 1.171-2.827 1.171zM4.41.14C2.3.144.592 1.853.588 3.962v265.076c.004 2.11 1.713 3.818 3.822 3.822h135.17c2.11-.004 3.818-1.713 3.822-3.822V3.962c-.004-2.11-1.713-3.818-3.822-3.822H4.41zM290.99 273.035H155.82c-2.207 0-3.997-1.79-3.997-3.997V3.962C151.843 1.768 153.626 0 155.82 0h135.17c2.207 0 3.997 1.79 3.997 3.997v265.041c0 1.06-.421 2.077-1.17 2.826-.75.75-1.767 1.171-2.827 1.171zM155.82.14c-2.11.004-3.818 1.713-3.822 3.822v265.076c.004 2.11 1.713 3.818 3.822 3.822h135.17c2.11-.004 3.818-1.713 3.822-3.822V3.962c-.004-2.11-1.713-3.818-3.822-3.822H155.82z"/>
        <path fill="#EBEBEB" d="M51.835 79.275L52.969 81.564 55.503 81.935 53.669 83.72 54.103 86.24 51.835 85.05 49.574 86.24 50.008 83.72 48.174 81.935 50.708 81.564z"/>
        <path fill="#F5F5F5" d="M278.39 187.236L279.524 189.532 282.058 189.903 280.224 191.681 280.658 194.208 278.39 193.018 276.129 194.208 276.563 191.681 274.729 189.903 277.263 189.532zM233.52 253.799L234.654 256.088 237.181 256.459 235.347 258.244 235.781 260.764 233.52 259.574 231.259 260.764 231.686 258.244 229.859 256.459 232.386 256.088z"/>
        <path fill="#EBEBEB" d="M130.858 38.605l.42.854.945.14c.108.014.197.09.23.193.033.103.004.216-.076.29l-.7.665.161.938c.017.106-.027.213-.114.277-.088.063-.203.073-.299.024l-.84-.448-.84.448c-.096.049-.211.04-.299-.024-.087-.064-.13-.17-.114-.277l.154-.938-.7-.665c-.08-.075-.11-.19-.075-.293.035-.104.127-.178.236-.19l.938-.14.42-.854c.035-.124.148-.21.276-.21.13 0 .242.086.277.21z"/>
        <path fill="#F5F5F5" d="M15.246 242.9l.42.847.938.14c.109.015.2.09.234.195.034.104.006.219-.073.295l-.7.658.161.938c.017.106-.027.213-.114.277-.088.063-.203.073-.299.024l-.84-.441-.84.441c-.096.049-.211.04-.299-.024-.087-.064-.13-.17-.114-.277l.161-.938-.7-.658c-.078-.076-.107-.189-.075-.293.033-.103.122-.18.229-.197l.938-.14.427-.847c.038-.118.149-.198.273-.198.124 0 .235.08.273.198z"/>
        <path fill="#EBEBEB" d="M34.125 29.61l.42.854.945.133c.107.017.196.094.229.197.032.104.003.217-.075.293l-.7.7.161.931c.023.108-.02.22-.109.284-.09.065-.208.072-.304.017l-.84-.441-.84.441c-.096.055-.215.048-.304-.017-.09-.065-.132-.176-.109-.284l.154-.931-.7-.7c-.079-.076-.107-.191-.073-.295.035-.104.125-.18.234-.195l.938-.133.448-.854c.046-.104.149-.171.262-.171.114 0 .217.067.263.171zM32.991 198.324c.003.377-.222.719-.57.865-.348.146-.75.069-1.017-.197-.268-.266-.348-.667-.205-1.016.144-.348.484-.576.861-.576.511 0 .927.413.931.924zM165.669 81.823c.003.377-.222.719-.57.865-.348.146-.75.069-1.017-.197-.268-.266-.348-.667-.205-1.016.144-.348.484-.576.861-.576.246-.002.483.095.658.268.175.174.273.41.273.656z"/>
        <path fill="#F5F5F5" d="M117.397 30.38c0 .514-.417.931-.931.931s-.931-.417-.931-.931.417-.931.931-.931c.513.004.927.418.931.931z"/>
        <circle cx="117.689" cy="252.273" r="5.145" fill="#F0F0F0" transform="rotate(-13.28 117.69 252.273)"/>
        <path fill="#E6E6E6" d="M115.92 249.263c-1.054-.002-2.081.331-2.933.952-.893 2.048-.36 4.437 1.318 5.912 1.677 1.475 4.116 1.697 6.032.549.841-1.556.801-3.44-.104-4.958-.906-1.519-2.545-2.449-4.313-2.448v-.007z"/>
        <g fill="#3D50DF">
            <path d="M43.176 70.448H.581V51.219L43.176.581H63.56v51.73h10.563v18.137H63.56v15.736H43.176V70.448zm0-18.137V25.823L20.664 52.311h22.512zM81.41 43.757c0-16.002 2.88-27.202 8.638-33.6 5.759-6.398 14.534-9.595 26.327-9.59 5.66 0 10.311.7 13.951 2.1 3.307 1.191 6.335 3.047 8.897 5.453 2.16 2.062 3.99 4.444 5.425 7.063 1.42 2.734 2.49 5.636 3.185 8.638 1.583 6.413 2.373 12.995 2.352 19.6 0 15.27-2.583 26.444-7.749 33.523-5.166 7.08-14.063 10.621-26.691 10.626-7.084 0-12.808-1.13-17.171-3.388-4.398-2.295-8.103-5.725-10.731-9.933-2.03-3.099-3.61-7.338-4.739-12.719-1.172-5.85-1.74-11.806-1.694-17.773zm23.198.056c0 10.733.945 18.053 2.835 21.959 1.89 3.906 4.636 5.868 8.239 5.888 2.31.025 4.533-.875 6.174-2.5 1.745-1.666 3.029-4.298 3.85-7.896.821-3.598 1.232-9.198 1.232-16.8 0-11.172-.947-18.683-2.842-22.533-1.895-3.85-4.737-5.773-8.526-5.768-3.864 0-6.664 1.962-8.4 5.887-1.736 3.925-2.59 11.179-2.562 21.763zM200.018 70.448h-42.595V51.219L200.018.581h20.384v51.73H231v18.137h-10.598v15.736h-20.384V70.448zm0-18.137V25.823l-22.505 26.488h22.505z" transform="translate(32.9 92.4)"/>
        </g>
        <g transform="translate(22.4 8.4)">
            <g fill="#3D50DF" opacity=".3">
                <path d="M91 55.034c0 .53-.32 1.008-.81 1.21-.49.202-1.053.089-1.427-.287-.374-.376-.484-.94-.28-1.429.205-.489.685-.806 1.215-.803.347 0 .679.138.923.384.245.246.38.578.379.925z"/>
                <circle cx="1.379" cy="104.391" r="1"/>
                <circle cx="154.035" cy="238.931" r="1.323"/>
                <circle cx="185.85" cy="185.5" r="1"/>
                <path d="M247.219 20.034c0 .51-.414.924-.924.924s-.924-.414-.924-.924.414-.924.924-.924.924.414.924.924zM71.225 1.4c0 .374-.225.71-.57.854-.346.143-.743.064-1.007-.2-.265-.265-.344-.662-.2-1.008.142-.345.48-.57.853-.57.509.004.92.415.924.924z"/>
                <circle cx="144.69" cy="48.958" r="1"/>
            </g>
            <circle cx="49.161" cy="34.552" r="15.337" fill="#3D50DF"/>
            <circle cx="49.161" cy="34.552" r="15.337" fill="#FFF" opacity=".7"/>
            <path fill="#3D50DF" d="M43.876 22.98c-2.089-.005-4.157.416-6.076 1.24-4.86 5.342-5.338 13.351-1.145 19.233 4.192 5.881 11.918 8.042 18.554 5.19 4.08-4.496 5.125-10.973 2.667-16.524-2.458-5.55-7.958-9.13-14.028-9.131l.028-.007z" opacity=".2"/>
            <path fill="#3D50DF" d="M42.35 27.034c0 .773-.627 1.4-1.4 1.4-.773 0-1.4-.627-1.4-1.4 0-.773.627-1.4 1.4-1.4.773 0 1.4.627 1.4 1.4zM58.842 25.634c0 .773-.627 1.4-1.4 1.4-.773 0-1.4-.627-1.4-1.4 0-.773.627-1.4 1.4-1.4.773 0 1.4.627 1.4 1.4zM56.042 35.63c0 1.268-1.028 2.296-2.296 2.296-1.268 0-2.296-1.028-2.296-2.296 0-1.268 1.028-2.296 2.296-2.296.609 0 1.193.242 1.624.672.43.431.672 1.015.672 1.624zM48.748 42.175c0 1.24-.747 2.358-1.893 2.833-1.145.474-2.464.212-3.341-.665-.877-.877-1.14-2.196-.665-3.341.475-1.146 1.593-1.893 2.833-1.893 1.693 0 3.066 1.373 3.066 3.066z" opacity=".2"/>
            <circle cx="217.829" cy="216.46" r="13.461" fill="#3D50DF" transform="rotate(-76.72 217.829 216.46)"/>
            <circle cx="217.829" cy="216.46" r="13.461" fill="#FFF" opacity=".3" transform="rotate(-76.72 217.829 216.46)"/>
            <path fill="#3D50DF" d="M226.331 206.038c-6.154-1.857-12.762.898-15.774 6.577-3.011 5.679-1.585 12.695 3.405 16.747 1.255.381 2.56.575 3.871.574 5.694-.001 10.772-3.586 12.68-8.951 1.908-5.365.233-11.35-4.182-14.947z" opacity=".4"/>
            <path fill="#3D50DF" d="M204.981 220.5c-14.371 6.762-3.654 11.977 16.597 4.697 18.753-6.741 25.9-15.239 9.1-12.6.903 3.535-22.582 12.684-25.697 7.903z"/>
        </g>
        <g>
            <path fill="#000" d="M130.97 75.481C112.147 88.2 87.78 105 81.053 145.348h-1.435c6.545-39.9 30.023-57.099 48.853-69.867h2.499z" opacity=".2" transform="translate(117.6 17.5)"/>
            <path fill="#3D50DF" d="M33.6 201.79c-11.9 0-23.667-5.37-29.4-14.134-3.535-5.418-7.644-16.765 4.592-31.906l1.085.882c-8.652 10.71-10.248 21.455-4.501 30.261 7 10.71 23.513 16.1 37.611 12.264 14.441-3.927 23.205-16.485 24.052-34.454 2.891-61.467 35.546-80.402 59.388-94.227 14.819-8.589 25.522-14.791 23.17-27.888-.329-1.813-1.05-3.066-2.219-3.836-3.045-2.009-8.995-.616-15.883.987-13.517 3.15-32.025 7.462-43.05-11.291l1.211-.7c10.5 17.871 27.699 13.86 41.524 10.64 7.203-1.673 13.419-3.122 16.968-.791 1.505.987 2.429 2.548 2.8 4.76 2.527 14.056-9.1 20.804-23.835 29.344-23.569 13.664-55.839 32.375-58.695 93.1-.882 18.62-10.024 31.647-25.088 35.742-3.174.845-6.446 1.264-9.73 1.247z" transform="translate(117.6 17.5)"/>
            <path fill="#FFF" d="M33.6 201.79c-11.9 0-23.667-5.37-29.4-14.134-3.535-5.418-7.644-16.765 4.592-31.906l1.085.882c-8.652 10.71-10.248 21.455-4.501 30.261 7 10.71 23.513 16.1 37.611 12.264 14.441-3.927 23.205-16.485 24.052-34.454 2.891-61.467 35.546-80.402 59.388-94.227 14.819-8.589 25.522-14.791 23.17-27.888-.329-1.813-1.05-3.066-2.219-3.836-3.045-2.009-8.995-.616-15.883.987-13.517 3.15-32.025 7.462-43.05-11.291l1.211-.7c10.5 17.871 27.699 13.86 41.524 10.64 7.203-1.673 13.419-3.122 16.968-.791 1.505.987 2.429 2.548 2.8 4.76 2.527 14.056-9.1 20.804-23.835 29.344-23.569 13.664-55.839 32.375-58.695 93.1-.882 18.62-10.024 31.647-25.088 35.742-3.174.845-6.446 1.264-9.73 1.247z" opacity=".2" transform="translate(117.6 17.5)"/>
            <path fill="#3D50DF" d="M74.032 11.9c3.225.019 6.43.521 9.506 1.491 0 0 7.7 13.139 8.61 16.149-.322 2.968-5.327 7.833-5.327 7.833L74.032 11.9z" transform="translate(117.6 17.5)"/>
            <path fill="#FFF" d="M74.032 11.9c3.225.019 6.43.521 9.506 1.491 0 0 7.7 13.139 8.61 16.149-.322 2.968-5.327 7.833-5.327 7.833L74.032 11.9z" opacity=".3" transform="translate(117.6 17.5)"/>
            <path fill="#3D50DF" d="M96.838 75.691c-2.965-3.626-5.67-7.457-8.092-11.466-.588-1.013-1.146-2.044-1.673-3.094-.301-.595-.588-1.19-.868-1.792-.367-.586-.652-1.22-.847-1.883-.84-8.869 2.198-15.4-.7-22.519l-11.536 4.508s.98 12.684 3.22 20.3c1.4 4.711 4.536 8.785 7.567 12.558.945 1.176 1.855 2.387 2.8 3.57.945 1.183 1.897 2.142 2.8 3.255 1.365 1.687 1.813 3.304.784 5.292l-.175.315c-.294.518 1.078 1.106 1.946 0 1.4-1.806 1.204-1.694 2.422-3.234.742-.931 1.589-1.946 2.324-2.8.731-.866.743-2.13.028-3.01z" transform="translate(117.6 17.5)"/>
            <path fill="#FFF" d="M96.838 75.691c-2.965-3.626-5.67-7.457-8.092-11.466-.588-1.013-1.146-2.044-1.673-3.094-.301-.595-.588-1.19-.868-1.792-.367-.586-.652-1.22-.847-1.883-.84-8.869 2.198-15.4-.7-22.519l-11.536 4.508s.98 12.684 3.22 20.3c1.4 4.711 4.536 8.785 7.567 12.558.945 1.176 1.855 2.387 2.8 3.57.945 1.183 1.897 2.142 2.8 3.255 1.365 1.687 1.813 3.304.784 5.292l-.175.315c-.294.518 1.078 1.106 1.946 0 1.4-1.806 1.204-1.694 2.422-3.234.742-.931 1.589-1.946 2.324-2.8.731-.866.743-2.13.028-3.01z" opacity=".7" transform="translate(117.6 17.5)"/>
            <path fill="#3D50DF" d="M94.017 72.044c-1.83 1.962-3.862 3.727-6.062 5.264.301.336.595.7.896 1.022 2.202-1.488 4.202-3.255 5.95-5.257l-.784-1.029zM96.838 75.691l-.084-.098c-.539.618-.852 1.4-.889 2.219-.045.562.046 1.126.266 1.645l.665-.791c.716-.857.734-2.098.042-2.975z" opacity=".3" transform="translate(117.6 17.5)"/>
            <path fill="#3D50DF" d="M71.288 20.3c-1.25 1.873-2.75 3.566-4.459 5.033-.947.816-1.985 1.521-3.094 2.1-.582.298-1.186.553-1.806.763l-.476.154-.154.042-.329.091c-.203.048-.408.08-.616.098-.59.045-1.184-.01-1.757-.161-.722-.205-1.414-.504-2.058-.889-.518-.303-1.02-.632-1.505-.987-.875-.651-1.712-1.352-2.506-2.1-1.531-1.45-2.936-3.03-4.2-4.718-.502-.679-.45-1.619.123-2.238.573-.62 1.506-.744 2.222-.296h.056c1.652 1.05 3.318 2.156 4.942 3.143.826.483 1.624.973 2.415 1.351.361.19.733.357 1.113.504.237.105.49.166.749.182.042 0 0-.049-.259-.042-.082-.005-.163-.005-.245 0l-.154.035.231-.119c.311-.167.613-.352.903-.553.626-.442 1.212-.938 1.75-1.484 1.223-1.282 2.368-2.635 3.43-4.053 1.206-1.349 3.24-1.557 4.694-.48 1.453 1.078 1.846 3.085.906 4.631l.084-.007z" transform="translate(117.6 17.5)"/>
            <path fill="#FFF" d="M71.288 20.3c-1.25 1.873-2.75 3.566-4.459 5.033-.947.816-1.985 1.521-3.094 2.1-.582.298-1.186.553-1.806.763l-.476.154-.154.042-.329.091c-.203.048-.408.08-.616.098-.59.045-1.184-.01-1.757-.161-.722-.205-1.414-.504-2.058-.889-.518-.303-1.02-.632-1.505-.987-.875-.651-1.712-1.352-2.506-2.1-1.531-1.45-2.936-3.03-4.2-4.718-.502-.679-.45-1.619.123-2.238.573-.62 1.506-.744 2.222-.296h.056c1.652 1.05 3.318 2.156 4.942 3.143.826.483 1.624.973 2.415 1.351.361.19.733.357 1.113.504.237.105.49.166.749.182.042 0 0-.049-.259-.042-.082-.005-.163-.005-.245 0l-.154.035.231-.119c.311-.167.613-.352.903-.553.626-.442 1.212-.938 1.75-1.484 1.223-1.282 2.368-2.635 3.43-4.053 1.206-1.349 3.24-1.557 4.694-.48 1.453 1.078 1.846 3.085.906 4.631l.084-.007z" opacity=".7" transform="translate(117.6 17.5)"/>
            <path fill="#3D50DF" d="M45.703 15.694l.819 1.4s.623 1.834 1.876 2.17l3.402-1.099-.175-.287c-.434-.658-.385-1.939-.238-3.003.147-1.064-.399-1.099-.805-.833-.288.331-.49.728-.588 1.155-.167-.231-.352-.449-.553-.651l-1.036-1.036c-.45-.44-1.165-.459-1.638-.042l-.84.749c-.41.38-.503.993-.224 1.477z" transform="translate(117.6 17.5)"/>
            <path fill="#FFF" d="M45.703 15.694l.819 1.4s.623 1.834 1.876 2.17l3.402-1.099-.175-.287c-.434-.658-.385-1.939-.238-3.003.147-1.064-.399-1.099-.805-.833-.288.331-.49.728-.588 1.155-.167-.231-.352-.449-.553-.651l-1.036-1.036c-.45-.44-1.165-.459-1.638-.042l-.84.749c-.41.38-.503.993-.224 1.477z" opacity=".7" transform="translate(117.6 17.5)"/>
            <path fill="#3D50DF" d="M77.469 10.654c-3.773 1-7.388 2.525-10.738 4.529-1.07.67-1.612 1.934-1.358 3.171 1.351 6.608 4.424 15.456 7.742 21.091l15.477-6.405c.105-2.73-3.654-11.564-7.483-20.104-.686-1.533-2.009-2.674-3.64-2.282z" transform="translate(117.6 17.5)"/>
            <path fill="#FFF" d="M77.469 10.654c-3.773 1-7.388 2.525-10.738 4.529-1.07.67-1.612 1.934-1.358 3.171 1.351 6.608 4.424 15.456 7.742 21.091l15.477-6.405c.105-2.73-3.654-11.564-7.483-20.104-.686-1.533-2.009-2.674-3.64-2.282z" opacity=".8" transform="translate(117.6 17.5)"/>
            <path fill="#3D50DF" d="M83.51 18.347l-3.073-1.029c.7 1.799 3.171 4.074 4.9 5.411-.56-1.4-1.183-2.87-1.827-4.382z" opacity=".3" transform="translate(117.6 17.5)"/>
            <path fill="#3D50DF" d="M76.454 3.724C75.173 1.288 72.408.063 69.09.336c-2.8.238-5.278 3.094-4.984 4.634.294 1.54 2.646 2.198 3.094 2.73l-1.939 1.4c-.464.335-.771.845-.85 1.412-.08.567.076 1.141.43 1.591.819 1.036 1.897 2.1 2.52 2.884 5.362-.14 9.331-2.184 10.766-4.151-.539-2.492-.427-4.69-1.673-7.112z" transform="translate(117.6 17.5)"/>
            <path fill="#FFF" d="M76.454 3.724C75.173 1.288 72.408.063 69.09.336c-2.8.238-5.278 3.094-4.984 4.634.294 1.54 2.646 2.198 3.094 2.73l-1.939 1.4c-.464.335-.771.845-.85 1.412-.08.567.076 1.141.43 1.591.819 1.036 1.897 2.1 2.52 2.884 5.362-.14 9.331-2.184 10.766-4.151-.539-2.492-.427-4.69-1.673-7.112z" opacity=".8" transform="translate(117.6 17.5)"/>
            <path fill="#263238" d="M73.822 5.236c1.063 2.726-.285 5.798-3.01 6.861-2.726 1.064-5.798-.282-6.863-3.008-1.064-2.725.281-5.797 3.006-6.863 2.727-1.063 5.8.284 6.867 3.01z" transform="translate(117.6 17.5)"/>
            <path fill="#3D50DF" d="M119.273 68.32c-.077-2.303-.182-2.1-.245-4.039-.042-1.19-.049-2.513-.056-3.654-.005-1.117-.795-2.077-1.89-2.296-.924-.189-1.855-.364-2.8-.56-1.211-.259-2.408-.539-3.591-.882-.924-.266-1.834-.56-2.737-.889-.903-.329-1.918-.7-2.856-1.134-1.106-.469-2.198-.973-3.276-1.498-1.211-.574-2.408-1.176-3.605-1.785-4.606-7.623-4.704-12.649-9.646-18.543l-10.612 4.802s7.798 13.832 13.104 19.698c3.059 3.374 7.854 4.9 12.131 6.006 3.087.791 6.216 1.4 9.345 1.981 1.218.224 2.541.308 3.591 1.036.777.596 1.31 1.454 1.498 2.415.047.196.089.392.126.588.133.588 1.568.14 1.519-1.246z" transform="translate(117.6 17.5)"/>
            <path fill="#FFF" d="M119.273 68.32c-.077-2.303-.182-2.1-.245-4.039-.042-1.19-.049-2.513-.056-3.654-.005-1.117-.795-2.077-1.89-2.296-.924-.189-1.855-.364-2.8-.56-1.211-.259-2.408-.539-3.591-.882-.924-.266-1.834-.56-2.737-.889-.903-.329-1.918-.7-2.856-1.134-1.106-.469-2.198-.973-3.276-1.498-1.211-.574-2.408-1.176-3.605-1.785-4.606-7.623-4.704-12.649-9.646-18.543l-10.612 4.802s7.798 13.832 13.104 19.698c3.059 3.374 7.854 4.9 12.131 6.006 3.087.791 6.216 1.4 9.345 1.981 1.218.224 2.541.308 3.591 1.036.777.596 1.31 1.454 1.498 2.415.047.196.089.392.126.588.133.588 1.568.14 1.519-1.246z" opacity=".8" transform="translate(117.6 17.5)"/>
            <path fill="#3D50DF" d="M113.89 57.68c-.42-.091-.84-.182-1.267-.287.035 2.422-1.099 6.594-1.512 7.861l1.33.252c.872-2.522 1.36-5.16 1.449-7.826zM119 60.627c-.004-1.115-.79-2.074-1.883-2.296l-.7-.133c.112.796.52 1.52 1.141 2.03.4.37.879.642 1.4.798.042-.126.042-.266.042-.399z" opacity=".3" transform="translate(117.6 17.5)"/>
            <path fill="#FFF" d="M72.835 5.278c.28 1.064-.91 2.177-1.855 1.26-.882-.946-1.847-1.81-2.884-2.583-.973-.609.322-1.673 1.855-1.26 1.328.334 2.407 1.3 2.884 2.583z" transform="translate(117.6 17.5)"/>
            <path fill="#3D50DF" d="M72.912 39.102c-.49.182.406 1.022.406 1.022s9.8-3.353 15.75-6.804c.03-.424-.148-.836-.476-1.106-5.092 2.59-10.327 4.89-15.68 6.888z" transform="translate(117.6 17.5)"/>
            <path fill="#FFF" d="M72.912 39.102c-.49.182.406 1.022.406 1.022s9.8-3.353 15.75-6.804c.03-.424-.148-.836-.476-1.106-5.092 2.59-10.327 4.89-15.68 6.888z" opacity=".5" transform="translate(117.6 17.5)"/>
            <path fill="#3D50DF" d="M80.122 10.192c1.932.98 3.745 2.009 5.6 3.15.903.574 1.799 1.155 2.688 1.785.889.63 1.771 1.274 2.66 2.002l.329.273.413.378c.246.22.48.454.7.7.224.245.413.483.595.7.182.217.378.476.539.7.652.9 1.255 1.835 1.806 2.8 1.085 1.872 2.021 3.826 2.8 5.845.297.786-.002 1.673-.715 2.119-.713.445-1.641.326-2.218-.285l-.035-.042c-1.4-1.491-2.751-3.059-4.109-4.522s-2.737-2.947-3.878-3.598c-1.589-.987-3.36-1.974-5.117-2.94l-5.292-2.94c-1.709-.905-2.36-3.023-1.456-4.732.905-1.709 3.023-2.36 4.732-1.456l-.042.063z" transform="translate(117.6 17.5)"/>
            <path fill="#FFF" d="M80.122 10.192c1.932.98 3.745 2.009 5.6 3.15.903.574 1.799 1.155 2.688 1.785.889.63 1.771 1.274 2.66 2.002l.329.273.413.378c.246.22.48.454.7.7.224.245.413.483.595.7.182.217.378.476.539.7.652.9 1.255 1.835 1.806 2.8 1.085 1.872 2.021 3.826 2.8 5.845.297.786-.002 1.673-.715 2.119-.713.445-1.641.326-2.218-.285l-.035-.042c-1.4-1.491-2.751-3.059-4.109-4.522s-2.737-2.947-3.878-3.598c-1.589-.987-3.36-1.974-5.117-2.94l-5.292-2.94c-1.709-.905-2.36-3.023-1.456-4.732.905-1.709 3.023-2.36 4.732-1.456l-.042.063z" opacity=".8" transform="translate(117.6 17.5)"/>
            <path fill="#3D50DF" d="M99.911 32.018l-.595-1.491s-.329-1.904-1.512-2.436l-3.5.553.119.308c.322.7.077 1.981-.238 3.003s.217 1.155.665.952c.252-.112.497-.567.763-1.05.13.243.278.477.441.7l.861 1.183c.373.509 1.076.643 1.61.308l.952-.609c.459-.314.64-.904.434-1.421z" transform="translate(117.6 17.5)"/>
            <path fill="#FFF" d="M99.911 32.018l-.595-1.491s-.329-1.904-1.512-2.436l-3.5.553.119.308c.322.7.077 1.981-.238 3.003s.217 1.155.665.952c.252-.112.497-.567.763-1.05.13.243.278.477.441.7l.861 1.183c.373.509 1.076.643 1.61.308l.952-.609c.459-.314.64-.904.434-1.421z" opacity=".8" transform="translate(117.6 17.5)"/>
            <path fill="#3D50DF" d="M77.168 18.242l-.854.07-5.243 12.656c.287.02.575-.003.854-.07 0 0 6.832-2.548 8.897-3.5-1.386-2.863-3.654-9.156-3.654-9.156z" opacity=".3" transform="translate(117.6 17.5)"/>
            <path fill="#FFF" d="M67.599 21.56c.637 3.308 1.82 6.488 3.5 9.408 2.562-.882 6.832-2.548 8.904-3.5-1.393-2.986-2.629-6.042-3.703-9.156-2.191.147-7 1.988-8.701 3.248z" transform="translate(117.6 17.5)"/>
            <path fill="#3D50DF" d="M72.8 24.297c-.21.7-.82 1.205-1.547 1.28-.726.074-1.427-.297-1.773-.94-.347-.644-.272-1.432.19-1.999.462-.566 1.22-.798 1.919-.588.954.287 1.496 1.292 1.211 2.247z" opacity=".3" transform="translate(117.6 17.5)"/>
            <path fill="#3D50DF" d="M74.137 21.889c-.056.24-.253.42-.496.454-.243.034-.483-.084-.603-.299-.12-.214-.096-.48.06-.67.157-.189.414-.262.647-.185.294.094.466.4.392.7zM75.705 21.28c-.045.221-.211.398-.43.457-.218.058-.45-.012-.6-.182-.149-.17-.19-.409-.104-.618.045-.15.148-.275.286-.349.138-.073.3-.089.449-.043.312.094.49.422.399.735z" opacity=".6" transform="translate(117.6 17.5)"/>
            <path fill="#3D50DF" d="M77.903 26.733L71.428 29.288 71.043 28.014 77.511 25.459z" opacity=".5" transform="translate(117.6 17.5)"/>
        </g>
        <g transform="translate(39.9 117.6)">
            <path fill="#000" d="M119.882 23.919c-.015 4.076-.409 8.142-1.176 12.145-.826 3.598-2.11 6.23-3.85 7.896-1.638 1.626-3.86 2.526-6.167 2.499-3.598 0-6.344-1.962-8.239-5.887-.333-.705-.616-1.432-.847-2.177-4.001 3.437-7.727 7.181-11.144 11.2l-3.717 4.382c2 2.027 4.308 3.726 6.839 5.033 4.359 2.254 10.08 3.383 17.164 3.388 1.246 0 2.45-.035 3.619-.105 4.286-6.342 7.832-13.152 10.57-20.3l10.395-27.104-13.447 9.03z" opacity=".2"/>
            <path fill="#263238" d="M26.173 60.9l12.25 12.25 34.3-32.319C60.9 36.316 37.912 49.133 26.173 60.9zM68.894 103.6c-3.913-3.92-12.25-12.25-12.25-12.25l32.319-34.3c4.487 11.795-8.33 34.804-20.069 46.55z"/>
            <path fill="#3D50DF" d="M115.78 26.39L129.143.623 103.376 14c-8.276 4.292-15.918 9.71-22.708 16.1L36.743 71.449 58.324 93.03l41.349-43.925c6.392-6.791 11.813-14.436 16.107-22.715z"/>
            <path fill="#FFF" d="M115.78 26.39L129.143.623 103.376 14c-8.276 4.292-15.918 9.71-22.708 16.1L36.743 71.449 58.324 93.03l41.349-43.925c6.392-6.791 11.813-14.436 16.107-22.715z" opacity=".6"/>
            <circle cx="88.34" cy="41.426" r="9.03" fill="#FFF"/>
            <circle cx="88.34" cy="41.426" r="5.803" fill="#3D50DF"/>
            <path fill="#3D50DF" d="M65.625 85.274L44.492 64.141 61.796 47.859 81.907 67.977z" opacity=".3"/>
            <path fill="#3D50DF" d="M30.954 80.234c-15.82 1.281-21.063 11.41-22.855 24.871-.91 6.867-1.316 13.818-7.077 17.836-.712.484-1.02 1.379-.756 2.198.264.82 1.037 1.367 1.897 1.344 21.238-.665 31.143-11.06 32.389-15.4-.327 2.269-.912 4.493-1.743 6.629-.313.773-.095 1.66.541 2.2.637.539 1.548.609 2.259.173 5.957-3.731 13.433-10.605 13.93-21.756-4.382-6.209-18.585-18.095-18.585-18.095z"/>
            <path fill="#FFF" d="M30.954 80.234c-15.82 1.281-21.063 11.41-22.855 24.871-.91 6.867-1.316 13.818-7.077 17.836-.712.484-1.02 1.379-.756 2.198.264.82 1.037 1.367 1.897 1.344 21.238-.665 31.143-11.06 32.389-15.4-.327 2.269-.912 4.493-1.743 6.629-.313.773-.095 1.66.541 2.2.637.539 1.548.609 2.259.173 5.957-3.731 13.433-10.605 13.93-21.756-4.382-6.209-18.585-18.095-18.585-18.095z" opacity=".2"/>
            <path fill="#3D50DF" d="M51.996 103.11L26.656 77.77 40.152 74.851 54.915 89.614z"/>
        </g>
    </g>
</svg>
