<svg width="191" height="139" viewBox="0 0 191 139" fill="none" xmlns="http://www.w3.org/2000/svg">
<path d="M86.7591 115.977C114.759 115.977 137.459 93.2772 137.459 65.1772C137.459 37.0772 114.759 14.3772 86.7591 14.3772C58.7591 14.3772 36.0591 37.0772 36.0591 65.1772C36.0591 93.2772 58.7591 115.977 86.7591 115.977Z" fill="#EAEEF9"/>
<g filter="url(#filter0_d)">
<path d="M97.0466 45.5656C97.0466 53.005 91.0304 59.0211 83.5263 59.0211C83.397 59.0211 82.2972 59.0211 74.211 59.0211C68.5829 59.0211 59.591 59.0211 45.2298 59.0211H38.3727C29.3808 59.2152 22.2002 52.0346 22.2002 43.3661C22.2002 34.633 29.4455 27.3877 38.5668 27.8405C46.3943 3.3877 82.2325 6.81627 85.273 32.1101C92.0007 32.951 97.0466 38.6438 97.0466 45.5656Z" fill="url(#paint0_linear)"/>
</g>
<path d="M83.5266 59.0212C90.9659 59.0212 97.0468 53.005 97.0468 45.5656C97.0468 38.1263 90.9659 32.1101 83.5266 32.1101C76.0872 32.1101 70.0063 38.1263 70.0063 45.5656C70.0063 53.005 76.0872 59.0212 83.5266 59.0212Z" fill="url(#paint1_linear)"/>
<path d="M61.467 59.1504C74.7285 59.1504 85.5317 48.4118 85.5317 35.1504C85.5317 21.8889 74.7285 11.1504 61.467 11.1504C48.2056 11.1504 37.4023 21.8889 37.4023 35.1504C37.4023 48.4118 48.1409 59.1504 61.467 59.1504Z" fill="url(#paint2_linear)"/>
<g filter="url(#filter1_d)">
<path d="M168.606 80.7013C168.606 88.8718 161.998 95.4792 153.757 95.4792C153.615 95.4792 152.407 95.4792 143.526 95.4792C137.345 95.4792 127.469 95.4792 111.697 95.4792H104.166C94.2901 95.6924 86.4038 87.8061 86.4038 78.2857C86.4038 68.6943 94.3611 60.737 104.379 61.2343C112.976 34.3783 152.336 38.1438 155.675 65.9235C163.064 66.8471 168.606 73.0993 168.606 80.7013Z" fill="url(#paint3_linear)"/>
</g>
<path d="M153.757 95.4796C161.928 95.4796 168.606 88.8722 168.606 80.7017C168.606 72.5313 161.928 65.9238 153.757 65.9238C145.587 65.9238 138.908 72.5313 138.908 80.7017C138.908 88.8722 145.587 95.4796 153.757 95.4796Z" fill="url(#paint4_linear)"/>
<path d="M129.53 95.6216C144.095 95.6216 155.959 83.8277 155.959 69.2629C155.959 54.6982 144.095 42.9043 129.53 42.9043C114.965 42.9043 103.1 54.6982 103.1 69.2629C103.1 83.8277 114.894 95.6216 129.53 95.6216Z" fill="url(#paint5_linear)"/>
<g filter="url(#filter2_d)">
<path d="M85.5319 97.355C85.5319 102.005 81.7718 105.765 77.0818 105.765C77.0009 105.765 76.3136 105.765 71.2597 105.765C67.7421 105.765 62.1222 105.765 53.1465 105.765H48.8607C43.2408 105.886 38.7529 101.398 38.7529 95.9803C38.7529 90.5221 43.2812 85.9938 48.982 86.2768C53.8742 70.9938 76.2731 73.1366 78.1734 88.9453C82.3783 89.4709 85.5319 93.0288 85.5319 97.355Z" fill="url(#paint6_linear)"/>
</g>
<path d="M77.082 105.765C81.7316 105.765 85.5321 102.005 85.5321 97.355C85.5321 92.7054 81.7316 88.9453 77.082 88.9453C72.4324 88.9453 68.6318 92.7054 68.6318 97.355C68.6318 102.005 72.4324 105.765 77.082 105.765Z" fill="url(#paint7_linear)"/>
<path d="M63.2948 105.845C71.5832 105.845 78.3353 99.1339 78.3353 90.8455C78.3353 82.557 71.5832 75.8455 63.2948 75.8455C55.0064 75.8455 48.2544 82.557 48.2544 90.8455C48.2544 99.1339 54.966 105.845 63.2948 105.845Z" fill="url(#paint8_linear)"/>
<path d="M83.1163 46.1163L76.5214 51.4319C75.2917 52.3491 73.686 51.6954 73.31 50.1246L71.1085 34.8733" fill="#A5B0BE"/>
<path d="M146.144 7.56928L141.907 11.4901L97.56 52.8317C95.5392 54.7687 92.414 54.6863 90.3304 52.9014L74.3983 38.2379L71.2025 35.266L62.3905 26.9949C60.5027 25.1631 61.3642 21.8427 63.9568 21.4297L136.847 9.37958L146.144 7.56928Z" fill="#CBD4E0"/>
<path d="M146.145 7.56943L141.907 11.4903L74.5473 37.9948L71.1557 35.0698L136.996 9.13651L146.145 7.56943Z" fill="#A5B0BE"/>
<path d="M23.3519 90.8296L20.5277 93.2338C20.0003 93.6497 19.2897 93.3825 19.1067 92.6993L17.9638 86.0495" fill="#A5B0BE"/>
<path d="M50.4873 73.2162L48.6786 74.9822L29.7532 93.5992C28.8915 94.4708 27.5225 94.4715 26.5896 93.7147L19.4435 87.4836L18.0097 86.2203L14.0553 82.7035C13.2075 81.9239 13.5456 80.4604 14.6755 80.2492L46.439 74.1179L50.4873 73.2162Z" fill="#CBD4E0"/>
<path d="M50.4874 73.2164L48.6787 74.9824L19.5059 87.3756L17.9869 86.1351L46.5014 74.0098L50.4874 73.2164Z" fill="#A5B0BE"/>
<path d="M78.3758 101.333L73.2046 105.735C72.2388 106.496 70.9378 106.007 70.6026 104.756L68.51 92.5803" fill="#A5B0BE"/>
<path d="M128.06 69.0823L124.749 72.3159L90.096 106.404C88.5181 108 86.0116 108.001 84.3033 106.615L71.2187 95.2062L68.5934 92.8931L61.3529 86.4538C59.8006 85.0263 60.4195 82.3466 62.4885 81.9598L120.648 70.7333L128.06 69.0823Z" fill="#CBD4E0"/>
<path d="M128.06 69.0825L124.749 72.3161L71.3327 95.0082L68.5515 92.7369L120.762 70.5354L128.06 69.0825Z" fill="#A5B0BE"/>
<defs>
<filter id="filter0_d" x="0.200195" y="0.208984" width="118.846" height="91.816" filterUnits="userSpaceOnUse" color-interpolation-filters="sRGB">
<feFlood flood-opacity="0" result="BackgroundImageFix"/>
<feColorMatrix in="SourceAlpha" type="matrix" values="0 0 0 0 0 0 0 0 0 0 0 0 0 0 0 0 0 0 127 0"/>
<feOffset dy="11"/>
<feGaussianBlur stdDeviation="11"/>
<feColorMatrix type="matrix" values="0 0 0 0 0.397708 0 0 0 0 0.47749 0 0 0 0 0.575 0 0 0 0.27 0"/>
<feBlend mode="normal" in2="BackgroundImageFix" result="effect1_dropShadow"/>
<feBlend mode="normal" in="SourceGraphic" in2="effect1_dropShadow" result="shape"/>
</filter>
<filter id="filter1_d" x="64.4038" y="31.9683" width="126.202" height="96.5152" filterUnits="userSpaceOnUse" color-interpolation-filters="sRGB">
<feFlood flood-opacity="0" result="BackgroundImageFix"/>
<feColorMatrix in="SourceAlpha" type="matrix" values="0 0 0 0 0 0 0 0 0 0 0 0 0 0 0 0 0 0 127 0"/>
<feOffset dy="11"/>
<feGaussianBlur stdDeviation="11"/>
<feColorMatrix type="matrix" values="0 0 0 0 0.397708 0 0 0 0 0.47749 0 0 0 0 0.575 0 0 0 0.27 0"/>
<feBlend mode="normal" in2="BackgroundImageFix" result="effect1_dropShadow"/>
<feBlend mode="normal" in="SourceGraphic" in2="effect1_dropShadow" result="shape"/>
</filter>
<filter id="filter2_d" x="16.7529" y="64.8821" width="90.779" height="73.885" filterUnits="userSpaceOnUse" color-interpolation-filters="sRGB">
<feFlood flood-opacity="0" result="BackgroundImageFix"/>
<feColorMatrix in="SourceAlpha" type="matrix" values="0 0 0 0 0 0 0 0 0 0 0 0 0 0 0 0 0 0 127 0"/>
<feOffset dy="11"/>
<feGaussianBlur stdDeviation="11"/>
<feColorMatrix type="matrix" values="0 0 0 0 0.397708 0 0 0 0 0.47749 0 0 0 0 0.575 0 0 0 0.27 0"/>
<feBlend mode="normal" in2="BackgroundImageFix" result="effect1_dropShadow"/>
<feBlend mode="normal" in="SourceGraphic" in2="effect1_dropShadow" result="shape"/>
</filter>
<linearGradient id="paint0_linear" x1="59.6234" y1="30.9684" x2="59.599" y2="59.5405" gradientUnits="userSpaceOnUse">
<stop stop-color="white"/>
<stop offset="0.9964" stop-color="#ECF0F5"/>
</linearGradient>
<linearGradient id="paint1_linear" x1="68.5676" y1="29.2132" x2="80.5532" y2="42.3218" gradientUnits="userSpaceOnUse">
<stop stop-color="#BCCBE1"/>
<stop offset="0.9942" stop-color="white" stop-opacity="0"/>
</linearGradient>
<linearGradient id="paint2_linear" x1="35.1489" y1="24.1374" x2="54.0392" y2="31.5298" gradientUnits="userSpaceOnUse">
<stop stop-color="#E2E8F0"/>
<stop offset="0.9942" stop-color="white" stop-opacity="0"/>
</linearGradient>
<linearGradient id="paint3_linear" x1="127.505" y1="64.6696" x2="127.478" y2="96.0496" gradientUnits="userSpaceOnUse">
<stop stop-color="white"/>
<stop offset="0.9964" stop-color="#ECF0F5"/>
</linearGradient>
<linearGradient id="paint4_linear" x1="137.328" y1="62.7422" x2="150.492" y2="77.139" gradientUnits="userSpaceOnUse">
<stop stop-color="#BCCBE1"/>
<stop offset="0.9942" stop-color="white" stop-opacity="0"/>
</linearGradient>
<linearGradient id="paint5_linear" x1="100.625" y1="57.1677" x2="121.372" y2="65.2865" gradientUnits="userSpaceOnUse">
<stop stop-color="#E2E8F0"/>
<stop offset="0.9942" stop-color="white" stop-opacity="0"/>
</linearGradient>
<linearGradient id="paint6_linear" x1="62.1424" y1="88.2317" x2="62.1272" y2="106.089" gradientUnits="userSpaceOnUse">
<stop stop-color="white"/>
<stop offset="0.9964" stop-color="#ECF0F5"/>
</linearGradient>
<linearGradient id="paint7_linear" x1="67.7326" y1="87.1347" x2="75.2236" y2="95.3276" gradientUnits="userSpaceOnUse">
<stop stop-color="#BCCBE1"/>
<stop offset="0.9942" stop-color="white" stop-opacity="0"/>
</linearGradient>
<linearGradient id="paint8_linear" x1="46.846" y1="83.9624" x2="58.6524" y2="88.5826" gradientUnits="userSpaceOnUse">
<stop stop-color="#E2E8F0"/>
<stop offset="0.9942" stop-color="white" stop-opacity="0"/>
</linearGradient>
</defs>
</svg>
