<svg width="128" height="131" viewBox="0 0 128 131" fill="none" xmlns="http://www.w3.org/2000/svg">
<path d="M61.9505 108.123C89.9505 108.123 112.65 85.423 112.65 57.3229C112.65 29.2229 89.9505 6.52295 61.9505 6.52295C33.9505 6.52295 11.2505 29.2229 11.2505 57.3229C11.2505 85.423 33.9505 108.123 61.9505 108.123Z" fill="#EAEEF9"/>
<path d="M118.45 36.4229C120.714 36.4229 122.55 34.5873 122.55 32.3229C122.55 30.0585 120.714 28.2229 118.45 28.2229C116.186 28.2229 114.35 30.0585 114.35 32.3229C114.35 34.5873 116.186 36.4229 118.45 36.4229Z" fill="#EAEEF9"/>
<path d="M124.45 20.3229C125.997 20.3229 127.25 19.0693 127.25 17.5229C127.25 15.9765 125.997 14.7229 124.45 14.7229C122.904 14.7229 121.65 15.9765 121.65 17.5229C121.65 19.0693 122.904 20.3229 124.45 20.3229Z" fill="#EAEEF9"/>
<path d="M7.85029 39.3229C9.39669 39.3229 10.6503 38.0693 10.6503 36.5229C10.6503 34.9765 9.39669 33.7229 7.85029 33.7229C6.3039 33.7229 5.05029 34.9765 5.05029 36.5229C5.05029 38.0693 6.3039 39.3229 7.85029 39.3229Z" fill="#EAEEF9"/>
<path d="M13.0501 100.223C15.922 100.223 18.2501 97.8949 18.2501 95.023C18.2501 92.1511 15.922 89.823 13.0501 89.823C10.1782 89.823 7.8501 92.1511 7.8501 95.023C7.8501 97.8949 10.1782 100.223 13.0501 100.223Z" fill="#EAEEF9"/>
<path d="M65.9527 11.8345H57.5625V17.2952H65.9527V11.8345Z" fill="#D1D9E7"/>
<path d="M34.1497 22.7122L29.5967 27.2629L32.908 30.5726L37.4611 26.0218L34.1497 22.7122Z" fill="#D5DDEA"/>
<path d="M87.3928 25.6865L91.9458 30.2373L94.9122 27.2724L90.3591 22.7217L87.3928 25.6865Z" fill="#D5DDEA"/>
<path d="M64.8795 98.523C87.1864 98.523 105.27 80.4487 105.27 58.1529C105.27 35.857 87.1864 17.7827 64.8795 17.7827C42.5726 17.7827 24.4893 35.857 24.4893 58.1529C24.4893 80.4487 42.5726 98.523 64.8795 98.523Z" fill="#D5DDEA"/>
<g filter="url(#filter0_d)">
<path d="M62.4405 97.0601C84.7475 97.0601 102.831 78.9858 102.831 56.69C102.831 34.3942 84.7475 16.3198 62.4405 16.3198C40.1336 16.3198 22.0503 34.3942 22.0503 56.69C22.0503 78.9858 40.1336 97.0601 62.4405 97.0601Z" fill="url(#paint0_linear)"/>
</g>
<path d="M26.8308 58.9328C25.8552 58.9328 25.0747 58.1527 25.0747 57.1775C25.0747 56.9825 25.0747 56.7875 25.0747 56.69C25.0747 37.8701 39.1235 21.9755 57.7576 19.6352C58.7332 19.5377 59.6113 20.2203 59.7089 21.1954C59.8064 22.1706 59.1235 23.0482 58.1479 23.1457C41.2698 25.291 28.5869 39.7228 28.5869 56.69C28.5869 56.885 28.5869 56.9825 28.5869 57.1775C28.5869 58.1527 27.8064 58.9328 26.8308 58.9328Z" fill="white"/>
<path opacity="0.3" d="M93.9531 56.6901C93.9531 57.0802 93.9531 57.3727 93.9531 57.7628C93.3677 74.6324 79.5141 88.1866 62.4409 88.1866C45.3677 88.1866 31.5141 74.6324 30.9287 57.7628C30.9287 57.3727 30.9287 57.0802 30.9287 56.6901C30.9287 39.723 44.3921 25.7787 61.2702 25.1936C61.6604 25.1936 62.0507 25.1936 62.4409 25.1936C79.7092 25.1936 93.6604 39.0404 93.9531 56.105C93.9531 56.3001 93.9531 56.4951 93.9531 56.6901Z" fill="#CCD5E3"/>
<path d="M93.9531 57.7628C93.3677 74.6324 79.5141 88.1867 62.4409 88.1867C45.3677 88.1867 31.5141 74.6324 30.9287 57.7628C31.5141 40.8931 45.3677 27.3389 62.4409 27.3389C79.5141 27.2414 93.3677 40.7956 93.9531 57.7628Z" fill="white"/>
<path opacity="0.3" d="M70.8305 76.7776H52.7817C51.9036 76.7776 51.2207 76.095 51.2207 75.2174V66.2462C51.2207 65.3686 51.9036 64.686 52.7817 64.686H70.8305C71.7085 64.686 72.3914 65.3686 72.3914 66.2462V75.2174C72.3914 76.095 71.7085 76.7776 70.8305 76.7776Z" fill="#C9D3E1"/>
<path d="M89.7576 58.2503H84.5869C83.7088 58.2503 83.0259 57.5677 83.0259 56.6901C83.0259 55.8125 83.7088 55.1299 84.5869 55.1299H89.7576C90.6356 55.1299 91.3186 55.8125 91.3186 56.6901C91.3186 57.5677 90.5381 58.2503 89.7576 58.2503Z" fill="#CBD4E2"/>
<path d="M38.7332 58.2503H33.5624C32.6844 58.2503 32.0015 57.5677 32.0015 56.6901C32.0015 55.8125 32.6844 55.1299 33.5624 55.1299H38.7332C39.6112 55.1299 40.2941 55.8125 40.2941 56.6901C40.2941 57.5677 39.5137 58.2503 38.7332 58.2503Z" fill="#CBD4E2"/>
<path d="M61.6601 86.4314C60.782 86.4314 60.0991 85.7488 60.0991 84.8712V79.703C60.0991 78.8254 60.782 78.1428 61.6601 78.1428C62.5381 78.1428 63.2211 78.8254 63.2211 79.703V84.8712C63.1235 85.7488 62.4406 86.4314 61.6601 86.4314Z" fill="#CBD4E2"/>
<path d="M61.6601 35.4323C60.782 35.4323 60.0991 34.7497 60.0991 33.8721V28.8014C60.0991 27.9238 60.782 27.2412 61.6601 27.2412C62.5381 27.2412 63.2211 27.9238 63.2211 28.8014V33.9696C63.1235 34.7497 62.4406 35.4323 61.6601 35.4323Z" fill="#CBD4E2"/>
<path d="M62.0505 60.9805C64.6907 60.9805 66.831 58.8413 66.831 56.2024C66.831 53.5635 64.6907 51.4243 62.0505 51.4243C59.4103 51.4243 57.27 53.5635 57.27 56.2024C57.27 58.8413 59.4103 60.9805 62.0505 60.9805Z" fill="#F2F5FC"/>
<path opacity="0.3" d="M82.3429 37.2851C81.7575 36.7975 80.8795 36.7975 80.3917 37.2851L63.5136 55.0324C63.4161 55.0324 63.4161 55.0324 63.3185 55.0324C62.0502 55.0324 61.0746 56.0075 61.0746 57.2752C61.0746 57.3727 61.0746 57.4702 61.0746 57.5677L58.3429 60.3956C57.8551 60.9806 57.8551 61.8582 58.3429 62.3458C58.6356 62.6383 58.9283 62.7358 59.3185 62.7358C59.7088 62.7358 60.099 62.6383 60.2941 62.3458L63.0258 59.5179C63.1234 59.5179 63.221 59.5179 63.221 59.5179C64.4892 59.5179 65.4649 58.5428 65.4649 57.2752C65.4649 57.1776 65.4649 57.0801 65.4649 56.9826L82.3429 39.3329C82.9283 38.6503 82.9283 37.7727 82.3429 37.2851Z" fill="#DAE1ED"/>
<path d="M81.0748 36.2124C80.4895 35.7248 79.6114 35.7248 79.1236 36.2124L62.2456 53.9596C62.148 53.9596 62.148 53.9596 62.0504 53.9596C60.7822 53.9596 59.8065 54.9347 59.8065 56.2024C59.8065 56.2999 59.8065 56.3974 59.8065 56.4949L57.0748 59.3228C56.587 59.9079 56.587 60.7855 57.0748 61.273C57.3675 61.5656 57.6602 61.6631 58.0504 61.6631C58.4407 61.6631 58.8309 61.5656 59.0261 61.273L61.7578 58.4452C61.8553 58.4452 61.9529 58.4452 61.9529 58.4452C63.2212 58.4452 64.1968 57.4701 64.1968 56.2024C64.1968 56.1049 64.1968 56.0074 64.1968 55.9099L81.0748 38.2601C81.6602 37.5775 81.5626 36.6999 81.0748 36.2124Z" fill="url(#paint1_linear)"/>
<path d="M69.9529 4.13091V9.39658C69.9529 11.4443 68.2944 13.0045 66.3432 13.0045H57.3676C55.3188 13.0045 53.7578 11.3468 53.7578 9.39658V4.13091C53.7578 2.08315 55.4163 0.522949 57.3676 0.522949H66.3432C68.392 0.522949 69.9529 2.18066 69.9529 4.13091Z" fill="url(#paint2_linear)"/>
<path opacity="0.1" d="M69.9529 4.13091V9.39658C69.9529 11.4443 68.2944 13.0045 66.3432 13.0045H57.3676C55.3188 13.0045 53.7578 11.3468 53.7578 9.39658V8.42146C54.3432 10.9568 56.5871 10.9568 56.5871 10.9568H65.8554C67.1237 10.9568 68.1968 9.88414 68.1968 8.61648V4.8135C68.1968 2.18066 67.709 1.20554 66.3432 0.522949C68.392 0.522949 69.9529 2.18066 69.9529 4.13091Z" fill="#495A7C"/>
<path d="M55.1235 9.98159C54.8309 9.98159 54.6357 9.78656 54.6357 9.49403V3.44826C54.6357 3.15572 54.8309 2.96069 55.1235 2.96069C55.4162 2.96069 55.6114 3.15572 55.6114 3.44826V9.49403C55.5138 9.78656 55.3187 9.98159 55.1235 9.98159Z" fill="#AEB8C9"/>
<path d="M57.3677 9.98159C57.075 9.98159 56.8799 9.78656 56.8799 9.49403V3.44826C56.8799 3.15572 57.075 2.96069 57.3677 2.96069C57.6604 2.96069 57.8555 3.15572 57.8555 3.44826V9.49403C57.8555 9.78656 57.6604 9.98159 57.3677 9.98159Z" fill="#AEB8C9"/>
<path d="M59.709 9.98159C59.4163 9.98159 59.2212 9.78656 59.2212 9.49403V3.44826C59.2212 3.15572 59.4163 2.96069 59.709 2.96069C60.0017 2.96069 60.1968 3.15572 60.1968 3.44826V9.49403C60.0992 9.78656 59.9041 9.98159 59.709 9.98159Z" fill="#AEB8C9"/>
<path d="M61.9526 9.98159C61.66 9.98159 61.4648 9.78656 61.4648 9.49403V3.44826C61.4648 3.15572 61.66 2.96069 61.9526 2.96069C62.2453 2.96069 62.4405 3.15572 62.4405 3.44826V9.49403C62.4405 9.78656 62.2453 9.98159 61.9526 9.98159Z" fill="#AEB8C9"/>
<path d="M64.2944 9.98159C64.0018 9.98159 63.8066 9.78656 63.8066 9.49403V3.44826C63.8066 3.15572 64.0018 2.96069 64.2944 2.96069C64.5871 2.96069 64.7823 3.15572 64.7823 3.44826V9.49403C64.6847 9.78656 64.4896 9.98159 64.2944 9.98159Z" fill="#AEB8C9"/>
<path d="M66.5381 9.98159C66.2454 9.98159 66.0503 9.78656 66.0503 9.49403V3.44826C66.0503 3.15572 66.2454 2.96069 66.5381 2.96069C66.8308 2.96069 67.0259 3.15572 67.0259 3.44826V9.49403C67.0259 9.78656 66.7332 9.98159 66.5381 9.98159Z" fill="#AEB8C9"/>
<path opacity="0.7" d="M68.7818 9.98159C68.4891 9.98159 68.2939 9.78656 68.2939 9.49403V3.44826C68.2939 3.15572 68.4891 2.96069 68.7818 2.96069C69.0744 2.96069 69.2696 3.15572 69.2696 3.44826V9.49403C69.2696 9.78656 69.0744 9.98159 68.7818 9.98159Z" fill="#AEB8C9"/>
<path d="M35.0259 23.146L30.1478 28.0216C29.0746 29.0942 27.3185 29.0942 26.1478 28.0216L23.3185 25.1937C22.2454 24.1211 22.2454 22.3659 23.3185 21.1957L28.1966 16.3201C29.2698 15.2475 31.0259 15.2475 32.1966 16.3201L35.0259 19.148C36.099 20.3181 36.099 22.0733 35.0259 23.146Z" fill="url(#paint3_linear)"/>
<path d="M89.465 23.146L94.3431 28.0216C95.4163 29.0942 97.1723 29.0942 98.3431 28.0216L101.172 25.1937C102.246 24.1211 102.246 22.3659 101.172 21.1957L96.2943 16.3201C95.2211 15.2475 93.465 15.2475 92.2943 16.3201L89.465 19.148C88.3919 20.3181 88.3919 22.0733 89.465 23.146Z" fill="url(#paint4_linear)"/>
<path d="M62.0504 56.593C62.2659 56.593 62.4406 56.4183 62.4406 56.2027C62.4406 55.9872 62.2659 55.8125 62.0504 55.8125C61.8349 55.8125 61.6602 55.9872 61.6602 56.2027C61.6602 56.4183 61.8349 56.593 62.0504 56.593Z" fill="white"/>
<path d="M111.764 86.1656C111.364 87.8656 110.764 89.6656 110.064 91.1656C108.164 94.8656 105.164 97.7656 101.464 99.6656C97.6637 101.566 93.1637 102.366 88.6637 101.366C78.0637 99.1656 71.2637 88.7656 73.4637 78.1656C75.6637 67.5656 85.9637 60.6656 96.5637 62.9656C100.364 63.7656 103.664 65.6656 106.464 68.2656C111.164 72.9656 113.164 79.7656 111.764 86.1656Z" fill="url(#paint5_linear)"/>
<path d="M98.8637 80.4656H94.3637V75.9656C94.3637 75.0656 93.6637 74.2656 92.6637 74.2656C91.7637 74.2656 90.9637 74.9656 90.9637 75.9656V80.4656H86.4637C85.5637 80.4656 84.7637 81.1656 84.7637 82.1656C84.7637 83.1656 85.4637 83.8656 86.4637 83.8656H90.9637V88.3656C90.9637 89.2656 91.6637 90.0656 92.6637 90.0656C93.5637 90.0656 94.3637 89.3656 94.3637 88.3656V83.8656H98.8637C99.7637 83.8656 100.564 83.1656 100.564 82.1656C100.564 81.1656 99.7637 80.4656 98.8637 80.4656Z" fill="white"/>
<defs>
<filter id="filter0_d" x="0.050293" y="5.31982" width="124.78" height="124.74" filterUnits="userSpaceOnUse" color-interpolation-filters="sRGB">
<feFlood flood-opacity="0" result="BackgroundImageFix"/>
<feColorMatrix in="SourceAlpha" type="matrix" values="0 0 0 0 0 0 0 0 0 0 0 0 0 0 0 0 0 0 127 0"/>
<feOffset dy="11"/>
<feGaussianBlur stdDeviation="11"/>
<feColorMatrix type="matrix" values="0 0 0 0 0.397708 0 0 0 0 0.47749 0 0 0 0 0.575 0 0 0 0.27 0"/>
<feBlend mode="normal" in2="BackgroundImageFix" result="effect1_dropShadow"/>
<feBlend mode="normal" in="SourceGraphic" in2="effect1_dropShadow" result="shape"/>
</filter>
<linearGradient id="paint0_linear" x1="62.4142" y1="14.4522" x2="62.4142" y2="97.9306" gradientUnits="userSpaceOnUse">
<stop stop-color="#FDFEFF"/>
<stop offset="0.9964" stop-color="#ECF0F5"/>
</linearGradient>
<linearGradient id="paint1_linear" x1="69.0955" y1="36.7435" x2="69.0955" y2="51.234" gradientUnits="userSpaceOnUse">
<stop stop-color="#B0BACC"/>
<stop offset="1" stop-color="#969EAE"/>
</linearGradient>
<linearGradient id="paint2_linear" x1="61.8567" y1="0.956545" x2="61.8567" y2="7.96234" gradientUnits="userSpaceOnUse">
<stop stop-color="#B0BACC"/>
<stop offset="1" stop-color="#969EAE"/>
</linearGradient>
<linearGradient id="paint3_linear" x1="29.1733" y1="15.978" x2="29.1733" y2="23.449" gradientUnits="userSpaceOnUse">
<stop stop-color="#B0BACC"/>
<stop offset="1" stop-color="#969EAE"/>
</linearGradient>
<linearGradient id="paint4_linear" x1="95.3197" y1="15.978" x2="95.3197" y2="23.449" gradientUnits="userSpaceOnUse">
<stop stop-color="#B0BACC"/>
<stop offset="1" stop-color="#969EAE"/>
</linearGradient>
<linearGradient id="paint5_linear" x1="73.0324" y1="82.1651" x2="112.209" y2="82.1651" gradientUnits="userSpaceOnUse">
<stop stop-color="#B0BACC"/>
<stop offset="1" stop-color="#969EAE"/>
</linearGradient>
</defs>
</svg>
