<svg width="154" height="151" viewBox="0 0 154 151" fill="none" xmlns="http://www.w3.org/2000/svg">
<path d="M76.7184 126.031C109.518 126.031 136.118 99.6312 136.118 67.0312C136.118 34.4313 109.518 8.03125 76.7184 8.03125C43.9184 8.03125 17.3184 34.4313 17.3184 67.0312C17.3184 99.6312 43.9184 126.031 76.7184 126.031Z" fill="#EAEEF9"/>
<path d="M134.6 38.8312C136.865 38.8312 138.7 36.9956 138.7 34.7312C138.7 32.4669 136.865 30.6312 134.6 30.6312C132.336 30.6312 130.5 32.4669 130.5 34.7312C130.5 36.9956 132.336 38.8312 134.6 38.8312Z" fill="#EAEEF9"/>
<path d="M130.501 25.5313C132.047 25.5313 133.301 24.2777 133.301 22.7313C133.301 21.1849 132.047 19.9313 130.501 19.9313C128.954 19.9313 127.701 21.1849 127.701 22.7313C127.701 24.2777 128.954 25.5313 130.501 25.5313Z" fill="#EAEEF9"/>
<path d="M17.1008 34.7312C18.6472 34.7312 19.9008 33.4776 19.9008 31.9312C19.9008 30.3848 18.6472 29.1312 17.1008 29.1312C15.5544 29.1312 14.3008 30.3848 14.3008 31.9312C14.3008 33.4776 15.5544 34.7312 17.1008 34.7312Z" fill="#EAEEF9"/>
<path d="M10.8006 96.3313C13.6725 96.3313 16.0006 94.0032 16.0006 91.1313C16.0006 88.2594 13.6725 85.9313 10.8006 85.9313C7.9287 85.9313 5.60059 88.2594 5.60059 91.1313C5.60059 94.0032 7.9287 96.3313 10.8006 96.3313Z" fill="#EAEEF9"/>
<g filter="url(#filter0_d)">
<path d="M131.444 52.4243V106.565C131.444 106.788 131.444 106.9 131.444 107.123C131.332 110.249 129.881 112.928 127.648 114.826C125.751 116.5 123.183 117.616 120.392 117.616H32.9858C31.0881 117.616 29.302 117.17 27.7392 116.277C27.0694 115.942 26.3997 115.495 25.8415 114.937C24.6136 113.933 23.4973 112.481 22.9391 110.918C22.4926 109.802 22.1577 108.574 22.1577 107.346V52.4243C22.1577 52.4243 26.7346 48.5172 33.3207 43.159C40.1302 37.4658 49.0606 30.0982 56.8747 23.6237C61.3399 19.8282 60.8934 20.2748 67.8145 14.47C73.0611 10.0048 80.7636 10.0048 86.0102 14.47C87.3497 15.5863 88.8009 16.9259 90.1405 18.0422C93.0429 20.3864 96.1685 23.0655 99.5174 25.8563C106.55 31.6611 114.253 38.1356 120.281 43.159C126.42 48.1823 130.886 51.9777 131.444 52.4243Z" fill="url(#paint0_linear)"/>
</g>
<path d="M120.281 43.0473V62.471L101.192 73.9689L95.4989 77.4294L83.4429 84.6854L77.7497 88.1459L75.2939 89.5971L72.9496 88.1459L67.5914 84.6854L56.0935 77.4294L50.7352 73.9689L33.0977 62.9175V43.1589C39.9071 37.4658 48.8375 30.0982 56.6516 23.6237L99.406 25.7446C106.55 31.661 114.253 38.024 120.281 43.0473Z" fill="#989FB0"/>
<path d="M116.485 27.6424V61.8012L99.0708 72.1828L93.9358 75.3084L82.8844 81.783L77.7494 84.9086L75.5168 86.1366L73.3958 84.9086L68.4841 81.783L57.9909 75.3084L53.0791 72.1828L37.0044 62.1361V27.6424C37.0044 24.0702 39.9068 21.1678 43.5906 21.1678H109.899C113.471 21.0562 116.485 24.0702 116.485 27.6424Z" fill="white"/>
<path opacity="0.5" d="M22.604 52.201L75.0702 55.6616L130.662 52.201L128.541 62.1361C128.541 62.1361 76.2981 89.3739 76.633 89.3739C76.9679 89.3739 22.7156 57.1128 22.7156 57.1128L22.604 52.201Z" fill="url(#paint1_linear)"/>
<path d="M131.444 52.4243V107.123C131.332 110.249 129.881 112.928 127.648 114.826C125.751 116.5 123.183 117.616 120.392 117.616H32.9858C31.0881 117.616 29.302 117.17 27.7392 116.277C27.0694 115.942 26.3997 115.495 25.8415 114.937C24.6136 113.933 23.4973 112.481 22.9391 110.919C22.4926 109.802 22.1577 108.574 22.1577 107.346V107.235V52.4243L71.0517 83.011L75.2937 85.6901L76.7449 84.7971L78.0844 84.0157L131.444 52.4243Z" fill="#738DFF"/>
<path d="M127.76 114.826C125.862 116.5 123.295 117.616 120.504 117.616H32.9858C31.0881 117.616 29.302 117.17 27.7392 116.277C27.0694 115.942 26.3997 115.495 25.8415 114.937C24.6136 113.933 23.4973 112.481 22.9391 110.919C22.4926 109.802 22.1577 108.574 22.1577 107.346V107.235V52.4243L27.8509 55.8849L76.7449 84.7971L78.0844 85.5785L78.1961 85.6901L122.067 111.588L127.76 114.826Z" fill="url(#paint2_linear)"/>
<path d="M78.0843 83.904V87.6994L27.7391 116.277C27.0693 115.942 26.3995 115.495 25.8413 114.937C24.6134 113.933 23.4971 112.481 22.939 110.919L71.9446 81.8947L76.1866 84.5738L76.7447 84.797L78.0843 83.904Z" fill="url(#paint3_linear)"/>
<path d="M22.1577 52.4243L76.7449 84.7971" stroke="white" stroke-miterlimit="10"/>
<path d="M131.443 52.4243V107.123C131.332 110.249 129.881 112.928 127.648 114.826C125.75 116.5 123.183 117.616 120.392 117.616H32.9856C31.0879 117.616 29.3018 117.17 27.739 116.277C27.0692 115.942 26.3995 115.495 25.8413 114.937L31.4228 111.588L75.2935 85.6901L76.7447 84.7971L78.0842 84.0157L125.639 55.7732L131.443 52.4243Z" fill="url(#paint4_linear)"/>
<path d="M131.443 52.4243L78.0842 83.904L76.7447 84.7971L75.2935 85.6901L25.8413 114.826" stroke="white" stroke-miterlimit="10"/>
<path d="M118.271 90.7134H89.2475C88.5777 90.7134 88.0195 90.1553 88.0195 89.4855C88.0195 88.8157 88.5777 88.2576 89.2475 88.2576H118.271C118.941 88.2576 119.499 88.8157 119.499 89.4855C119.611 90.1553 119.053 90.7134 118.271 90.7134Z" fill="#CED7E2"/>
<path d="M118.271 99.0856H89.2475C88.5777 99.0856 88.0195 98.5275 88.0195 97.8577C88.0195 97.1879 88.5777 96.6298 89.2475 96.6298H118.271C118.941 96.6298 119.499 97.1879 119.499 97.8577C119.611 98.5275 119.053 99.0856 118.271 99.0856Z" fill="#CED7E2"/>
<path d="M124.299 116.5L127.871 114.714C127.76 114.826 127.76 114.826 127.648 114.937C127.648 114.937 127.648 114.937 127.537 114.937L124.299 116.5Z" fill="#526DFF"/>
<path d="M73.951 63.8466C73.0859 63.8466 72.2716 63.5287 71.6099 62.8397L60.3625 51.1277C59.0901 49.8028 59.0901 47.577 60.3625 46.2521C61.6348 44.9272 63.7723 44.9272 65.0447 46.2521L73.951 55.5263L94.9192 33.7451C96.1915 32.4202 98.3291 32.4202 99.6014 33.7451C100.874 35.07 100.874 37.2958 99.6014 38.6207L76.2921 62.8397C75.6814 63.5287 74.8162 63.8466 73.951 63.8466Z" fill="url(#paint5_linear)"/>
<defs>
<filter id="filter0_d" x="0.157715" y="0.121094" width="153.286" height="150.495" filterUnits="userSpaceOnUse" color-interpolation-filters="sRGB">
<feFlood flood-opacity="0" result="BackgroundImageFix"/>
<feColorMatrix in="SourceAlpha" type="matrix" values="0 0 0 0 0 0 0 0 0 0 0 0 0 0 0 0 0 0 127 0"/>
<feOffset dy="11"/>
<feGaussianBlur stdDeviation="11"/>
<feColorMatrix type="matrix" values="0 0 0 0 0.397708 0 0 0 0 0.47749 0 0 0 0 0.575 0 0 0 0.27 0"/>
<feBlend mode="normal" in2="BackgroundImageFix" result="effect1_dropShadow"/>
<feBlend mode="normal" in="SourceGraphic" in2="effect1_dropShadow" result="shape"/>
</filter>
<linearGradient id="paint0_linear" x1="76.7569" y1="12.3695" x2="76.7569" y2="91.8603" gradientUnits="userSpaceOnUse">
<stop stop-color="#B0BACC"/>
<stop offset="1" stop-color="#969EAE"/>
</linearGradient>
<linearGradient id="paint1_linear" x1="76.585" y1="101.159" x2="76.585" y2="54.706" gradientUnits="userSpaceOnUse">
<stop stop-color="#8A90B5"/>
<stop offset="1" stop-color="#A7AED2" stop-opacity="0"/>
</linearGradient>
<linearGradient id="paint2_linear" x1="74.9244" y1="50.9164" x2="74.9244" y2="118.319" gradientUnits="userSpaceOnUse">
<stop stop-color="#FDFEFF"/>
<stop offset="0.9964" stop-color="#ECF0F5"/>
</linearGradient>
<linearGradient id="paint3_linear" x1="53.6606" y1="102.234" x2="49.3801" y2="95.9693" gradientUnits="userSpaceOnUse">
<stop stop-color="#D5D8E4"/>
<stop offset="1" stop-color="#E1E4F0" stop-opacity="0"/>
</linearGradient>
<linearGradient id="paint4_linear" x1="78.608" y1="50.9164" x2="78.608" y2="118.319" gradientUnits="userSpaceOnUse">
<stop stop-color="#FDFEFF"/>
<stop offset="0.9964" stop-color="#ECF0F5"/>
</linearGradient>
<linearGradient id="paint5_linear" x1="79.9852" y1="33.8317" x2="79.9852" y2="51.2851" gradientUnits="userSpaceOnUse">
<stop stop-color="#B0BACC"/>
<stop offset="1" stop-color="#969EAE"/>
</linearGradient>
</defs>
</svg>
