<svg width="149" height="146" viewBox="0 0 149 146" fill="none" xmlns="http://www.w3.org/2000/svg">
<path d="M71.1487 117.948C99.1487 117.948 121.849 95.2477 121.849 67.1477C121.849 39.0477 99.0487 16.3477 71.1487 16.3477C43.1487 16.3477 20.4487 39.0477 20.4487 67.1477C20.4487 95.2477 43.1487 117.948 71.1487 117.948Z" fill="#EAEEF9"/>
<path d="M118.549 33.8475C120.813 33.8475 122.649 32.0118 122.649 29.7475C122.649 27.4831 120.813 25.6475 118.549 25.6475C116.284 25.6475 114.449 27.4831 114.449 29.7475C114.449 32.0118 116.284 33.8475 118.549 33.8475Z" fill="#EAEEF9"/>
<path d="M124.549 17.8476C126.095 17.8476 127.349 16.594 127.349 15.0476C127.349 13.5012 126.095 12.2476 124.549 12.2476C123.002 12.2476 121.749 13.5012 121.749 15.0476C121.749 16.594 123.002 17.8476 124.549 17.8476Z" fill="#EAEEF9"/>
<path d="M23.1486 33.7475C24.695 33.7475 25.9486 32.4939 25.9486 30.9475C25.9486 29.4011 24.695 28.1475 23.1486 28.1475C21.6022 28.1475 20.3486 29.4011 20.3486 30.9475C20.3486 32.4939 21.6022 33.7475 23.1486 33.7475Z" fill="#EAEEF9"/>
<path d="M6.04863 87.7477C8.92051 87.7477 11.2486 85.4195 11.2486 82.5477C11.2486 79.6758 8.92051 77.3477 6.04863 77.3477C3.17675 77.3477 0.848633 79.6758 0.848633 82.5477C0.848633 85.4195 3.17675 87.7477 6.04863 87.7477Z" fill="#EAEEF9"/>
<path d="M148.417 51.1977H143.456V46.2366H139.204V51.1977H134.243V55.5919H139.204V60.553H143.456V55.5919H148.417V51.1977Z" fill="url(#paint0_linear)"/>
<path d="M66.317 4.25008H62.0759V0.0090332H58.4408V4.25008H54.1997V8.00644H58.4408V12.2475H62.0759V8.00644H66.317V4.25008Z" fill="url(#paint1_linear)"/>
<path d="M16.4018 46.5618H12.7783V42.9382H9.67236V46.5618H6.04883V49.7712H9.67236V53.3947H12.7783V49.7712H16.4018V46.5618Z" fill="url(#paint2_linear)"/>
<g filter="url(#filter0_d)">
<path d="M106.813 57.3509L96.7994 32.8994C95.014 28.5524 90.3566 26.0685 85.7768 27.0776L59.928 32.6665C57.7545 33.1322 55.8915 34.6071 54.8048 36.5477L30.198 83.4326C29.1889 85.3732 29.8875 87.8571 31.9057 88.8662L76.4619 112.309C78.4025 113.318 80.8864 112.619 81.8956 110.601L106.502 63.7161C107.589 61.7755 107.667 59.4468 106.813 57.3509ZM82.0508 47.4927C78.8682 45.8626 77.6262 41.9038 79.334 38.7212C80.9641 35.5386 84.9229 34.2966 88.1055 36.0043C91.2881 37.6344 92.53 41.5933 90.8223 44.7758C89.1922 47.9584 85.2334 49.2004 82.0508 47.4927Z" fill="url(#paint3_linear)"/>
</g>
<path d="M85.2334 41.5156C105.493 31.0364 113.489 15.434 102.932 8.6807C92.3748 1.92741 81.9732 8.6807 79.334 28.3196" stroke="#ADB6C8" stroke-width="5" stroke-miterlimit="10" stroke-linecap="round" stroke-linejoin="round"/>
<path d="M79.946 75.3437C81.3166 76.1024 83.1417 75.5779 83.9004 74.2074C84.6591 72.8368 84.1346 71.0117 82.7641 70.253C81.3935 69.4943 79.5684 70.0188 78.8097 71.3893C77.9968 72.8578 78.4776 74.5308 79.946 75.3437Z" fill="#AAB2C5"/>
<path d="M72.1359 78.9243L70.8632 78.2198C71.087 75.2742 68.7357 72.8215 65.8337 72.7498C64.7359 72.6537 63.5192 73.0033 62.6398 73.6676L61.3672 72.9631C64.124 70.5244 68.5154 70.909 70.802 73.7096C71.8474 75.0557 72.4698 76.9349 72.1359 78.9243Z" fill="#AAB2C5"/>
<path d="M60.3664 64.5051C61.737 65.2638 63.5621 64.7393 64.3208 63.3688C65.0795 61.9982 64.5551 60.1731 63.1845 59.4144C61.8139 58.6557 59.9888 59.1801 59.2301 60.5507C58.5151 62.0733 58.9959 63.7463 60.3664 64.5051Z" fill="#AAB2C5"/>
<defs>
<filter id="filter0_d" x="7.74023" y="15.8538" width="121.652" height="129.913" filterUnits="userSpaceOnUse" color-interpolation-filters="sRGB">
<feFlood flood-opacity="0" result="BackgroundImageFix"/>
<feColorMatrix in="SourceAlpha" type="matrix" values="0 0 0 0 0 0 0 0 0 0 0 0 0 0 0 0 0 0 127 0"/>
<feOffset dy="11"/>
<feGaussianBlur stdDeviation="11"/>
<feColorMatrix type="matrix" values="0 0 0 0 0.397708 0 0 0 0 0.47749 0 0 0 0 0.575 0 0 0 0.27 0"/>
<feBlend mode="normal" in2="BackgroundImageFix" result="effect1_dropShadow"/>
<feBlend mode="normal" in="SourceGraphic" in2="effect1_dropShadow" result="shape"/>
</filter>
<linearGradient id="paint0_linear" x1="141.331" y1="46.7339" x2="141.331" y2="54.7696" gradientUnits="userSpaceOnUse">
<stop stop-color="#B0BACC"/>
<stop offset="1" stop-color="#969EAE"/>
</linearGradient>
<linearGradient id="paint1_linear" x1="60.2593" y1="0.434183" x2="60.2593" y2="7.3035" gradientUnits="userSpaceOnUse">
<stop stop-color="#B0BACC"/>
<stop offset="1" stop-color="#969EAE"/>
</linearGradient>
<linearGradient id="paint2_linear" x1="11.2261" y1="43.3015" x2="11.2261" y2="49.1706" gradientUnits="userSpaceOnUse">
<stop stop-color="#B0BACC"/>
<stop offset="1" stop-color="#969EAE"/>
</linearGradient>
<linearGradient id="paint3_linear" x1="68.5411" y1="24.8665" x2="68.5411" y2="113.693" gradientUnits="userSpaceOnUse">
<stop stop-color="#FDFEFF"/>
<stop offset="0.9964" stop-color="#ECF0F5"/>
</linearGradient>
</defs>
</svg>
