<svg width="425" height="856" viewBox="0 0 425 856" fill="none" xmlns="http://www.w3.org/2000/svg">
<rect x="14" y="11" width="397" height="834" rx="51" stroke="#AFAFAF" stroke-width="22"/>
<path d="M422 195H423.5C424.328 195 425 195.672 425 196.5V289.5C425 290.328 424.328 291 423.5 291H422V195Z" fill="#AFAFAF"/>
<path d="M3 176H1.5C0.671573 176 0 176.672 0 177.5V232.5C0 233.328 0.671573 234 1.5 234H3V176Z" fill="#AFAFAF"/>
<path d="M3 253H1.5C0.671573 253 0 253.672 0 254.5V309.5C0 310.328 0.671573 311 1.5 311H3V253Z" fill="#AFAFAF"/>
<path d="M3 115H1.5C0.671573 115 0 115.672 0 116.5V142.5C0 143.328 0.671573 144 1.5 144H3V115Z" fill="#AFAFAF"/>
<g clip-path="url(#clip0)">
<rect x="17" y="14" width="391" height="828" rx="48" fill="#1E1E20"/>
<g filter="url(#filter0_d)">
<rect x="25" y="22" width="375" height="812" rx="20" fill="#1E1E20"/>
<rect width="375" height="812" transform="translate(25 22)" fill="white"/>
<path opacity="0.35" d="M361.5 41.9999C361.5 40.8033 362.47 39.8333 363.667 39.8333H380.333C381.53 39.8333 382.5 40.8033 382.5 41.9999V47.9999C382.5 49.1965 381.53 50.1666 380.333 50.1666H363.667C362.47 50.1666 361.5 49.1965 361.5 47.9999V41.9999Z" stroke="black"/>
<path opacity="0.4" d="M384 43V47C384.805 46.6612 385.328 45.8731 385.328 45C385.328 44.1269 384.805 43.3388 384 43Z" fill="black"/>
<path d="M363 42.6666C363 41.9302 363.597 41.3333 364.333 41.3333H379.667C380.403 41.3333 381 41.9302 381 42.6666V47.3333C381 48.0696 380.403 48.6666 379.667 48.6666H364.333C363.597 48.6666 363 48.0696 363 47.3333V42.6666Z" fill="black"/>
<path fill-rule="evenodd" clip-rule="evenodd" d="M348.33 41.6079C350.546 41.608 352.678 42.4594 354.283 43.9862C354.404 44.1041 354.598 44.1026 354.717 43.9829L355.873 42.8162C355.933 42.7555 355.967 42.6733 355.966 42.5877C355.966 42.5021 355.931 42.4202 355.87 42.3602C351.655 38.3207 345.005 38.3207 340.79 42.3602C340.729 42.4202 340.694 42.502 340.694 42.5876C340.693 42.6732 340.727 42.7555 340.787 42.8162L341.943 43.9829C342.062 44.1028 342.256 44.1043 342.377 43.9862C343.983 42.4593 346.114 41.6079 348.33 41.6079ZM348.33 45.4036C349.548 45.4035 350.722 45.856 351.624 46.6732C351.747 46.7892 351.939 46.7867 352.058 46.6676L353.212 45.5009C353.273 45.4397 353.307 45.3567 353.306 45.2704C353.305 45.1842 353.27 45.1018 353.208 45.0419C350.46 42.4855 346.204 42.4855 343.455 45.0419C343.393 45.1018 343.358 45.1842 343.357 45.2705C343.356 45.3568 343.39 45.4398 343.451 45.5009L344.605 46.6676C344.724 46.7867 344.917 46.7892 345.039 46.6732C345.941 45.8566 347.114 45.4041 348.33 45.4036ZM350.643 47.9574C350.645 48.0439 350.611 48.1273 350.549 48.1879L348.552 50.2036C348.494 50.2628 348.414 50.2961 348.33 50.2961C348.247 50.2961 348.167 50.2628 348.109 50.2036L346.111 48.1879C346.049 48.1272 346.015 48.0438 346.017 47.9573C346.019 47.8708 346.057 47.7889 346.121 47.7309C347.396 46.652 349.265 46.652 350.54 47.7309C350.604 47.7889 350.642 47.8709 350.643 47.9574Z" fill="black"/>
<path fill-rule="evenodd" clip-rule="evenodd" d="M334.667 39.6667H333.667C333.114 39.6667 332.667 40.1145 332.667 40.6667V49.3334C332.667 49.8857 333.114 50.3334 333.667 50.3334H334.667C335.219 50.3334 335.667 49.8857 335.667 49.3334V40.6667C335.667 40.1145 335.219 39.6667 334.667 39.6667ZM329 42.0001H330C330.552 42.0001 331 42.4478 331 43.0001V49.3334C331 49.8857 330.552 50.3334 330 50.3334H329C328.448 50.3334 328 49.8857 328 49.3334V43.0001C328 42.4478 328.448 42.0001 329 42.0001ZM325.333 44.3334H324.333C323.781 44.3334 323.333 44.7811 323.333 45.3334V49.3334C323.333 49.8857 323.781 50.3334 324.333 50.3334H325.333C325.886 50.3334 326.333 49.8857 326.333 49.3334V45.3334C326.333 44.7811 325.886 44.3334 325.333 44.3334ZM320.667 46.3334H319.667C319.114 46.3334 318.667 46.7811 318.667 47.3334V49.3334C318.667 49.8857 319.114 50.3334 319.667 50.3334H320.667C321.219 50.3334 321.667 49.8857 321.667 49.3334V47.3334C321.667 46.7811 321.219 46.3334 320.667 46.3334Z" fill="black"/>
<path d="M65.9858 47.1104H66.9975V48.8877H65.9858V51H63.6821V48.8877H59.8334L59.6967 47.4795L63.6821 41.0674V41.0469H65.9858V47.1104ZM61.8911 47.1104H63.6821V44.0479L63.5385 44.2803L61.8911 47.1104ZM69.1989 48.7646C69.5635 48.7646 69.8666 48.874 70.1081 49.0928C70.3497 49.307 70.4704 49.5827 70.4704 49.9199C70.4704 50.2572 70.3497 50.5352 70.1081 50.7539C69.8666 50.9681 69.5635 51.0752 69.1989 51.0752C68.8298 51.0752 68.5245 50.9658 68.2829 50.7471C68.046 50.5283 67.9275 50.2526 67.9275 49.9199C67.9275 49.5872 68.046 49.3115 68.2829 49.0928C68.5245 48.874 68.8298 48.7646 69.1989 48.7646ZM69.1989 43.3096C69.5635 43.3096 69.8666 43.4189 70.1081 43.6377C70.3497 43.8519 70.4704 44.1276 70.4704 44.4648C70.4704 44.8021 70.3497 45.0801 70.1081 45.2988C69.8666 45.513 69.5635 45.6201 69.1989 45.6201C68.8298 45.6201 68.5245 45.5107 68.2829 45.292C68.046 45.0732 67.9275 44.7975 67.9275 44.4648C67.9275 44.1322 68.046 43.8564 68.2829 43.6377C68.5245 43.4189 68.8298 43.3096 69.1989 43.3096ZM78.5713 46.9326C78.5713 48.277 78.2682 49.3138 77.6621 50.043C77.0605 50.7721 76.2106 51.1367 75.1123 51.1367C74.0049 51.1367 73.1481 50.7699 72.542 50.0361C71.9359 49.3024 71.6328 48.2679 71.6328 46.9326V45.1143C71.6328 43.7699 71.9336 42.7331 72.5352 42.0039C73.1413 41.2747 73.9958 40.9102 75.0986 40.9102C76.2015 40.9102 77.056 41.277 77.6621 42.0107C78.2682 42.7445 78.5713 43.7812 78.5713 45.1211V46.9326ZM76.2676 44.8203C76.2676 44.1048 76.1742 43.5716 75.9873 43.2207C75.8005 42.8652 75.5042 42.6875 75.0986 42.6875C74.7021 42.6875 74.4128 42.8516 74.2305 43.1797C74.0527 43.5078 73.957 44.0046 73.9434 44.6699V47.2129C73.9434 47.9557 74.0368 48.5003 74.2236 48.8467C74.4105 49.1885 74.7067 49.3594 75.1123 49.3594C75.5042 49.3594 75.7936 49.193 75.9805 48.8604C76.1673 48.5231 76.263 47.9967 76.2676 47.2812V44.8203ZM79.6243 46.1328L80.2327 41.0469H86.0501V42.8379H82.1057L81.8802 44.8135C82.0442 44.7178 82.2584 44.6335 82.5227 44.5605C82.7916 44.4876 83.0537 44.4512 83.3089 44.4512C84.2978 44.4512 85.0566 44.7451 85.5852 45.333C86.1184 45.9163 86.385 46.7367 86.385 47.7939C86.385 48.432 86.2415 49.0107 85.9544 49.5303C85.6718 50.0452 85.2731 50.4417 84.7581 50.7197C84.2431 50.9977 83.6347 51.1367 82.9329 51.1367C82.3085 51.1367 81.7229 51.0091 81.1761 50.7539C80.6292 50.4941 80.2008 50.141 79.8909 49.6943C79.581 49.2432 79.4283 48.735 79.4329 48.1699H81.7434C81.7662 48.5345 81.8824 48.8239 82.0921 49.0381C82.3017 49.2523 82.5774 49.3594 82.9192 49.3594C83.694 49.3594 84.0813 48.7852 84.0813 47.6367C84.0813 46.5749 83.6074 46.0439 82.6595 46.0439C82.1217 46.0439 81.7207 46.2171 81.4563 46.5635L79.6243 46.1328Z" fill="black"/>
</g>
<mask id="path-14-inside-1" fill="white">
<path fill-rule="evenodd" clip-rule="evenodd" d="M28.2698 38.3803C25 44.7976 25 53.1984 25 70V786.241C25 803.042 25 811.443 28.2698 817.86C31.146 823.505 35.7354 828.095 41.3803 830.971C47.7976 834.241 56.1984 834.241 73 834.241H352C368.802 834.241 377.202 834.241 383.62 830.971C389.265 828.095 393.854 823.505 396.73 817.86C400 811.443 400 803.042 400 786.241V70C400 53.1984 400 44.7976 396.73 38.3803C393.854 32.7354 389.265 28.146 383.62 25.2698C377.202 22 368.802 22 352 22H316.753C313.641 22 311.307 24.334 311.307 27.4461V22L311.307 35.6057C311.307 43.56 304.859 50.0083 296.904 50.0083H128.095C120.141 50.0083 113.693 43.56 113.693 35.6057V28.1948C113.673 25.0926 110.571 22 107.469 22H73C56.1984 22 47.7976 22 41.3803 25.2698C35.7354 28.146 31.146 32.7354 28.2698 38.3803Z"/>
</mask>
<path d="M28.2698 38.3803L27.8243 38.1533L28.2698 38.3803ZM28.2698 817.86L28.7153 817.633H28.7153L28.2698 817.86ZM41.3803 830.971L41.1533 831.416H41.1533L41.3803 830.971ZM383.62 830.971L383.847 831.416L383.62 830.971ZM396.73 817.86L396.285 817.633L396.73 817.86ZM396.73 38.3803L396.285 38.6073L396.73 38.3803ZM383.62 25.2698L383.847 24.8243L383.62 25.2698ZM311.307 22H311.807L310.807 22L311.307 22ZM311.307 35.6057L310.807 35.6057V35.6057H311.307ZM113.693 28.1948H114.193L114.193 28.1917L113.693 28.1948ZM41.3803 25.2698L41.1533 24.8243L41.3803 25.2698ZM25.5 70C25.5 61.591 25.5004 55.3143 25.9071 50.3368C26.3133 45.3651 27.1223 41.7337 28.7153 38.6073L27.8243 38.1533C26.1475 41.4442 25.3216 45.2219 24.9104 50.2553C24.4996 55.283 24.5 61.6075 24.5 70H25.5ZM25.5 786.241V70H24.5V786.241H25.5ZM28.7153 817.633C27.1223 814.507 26.3133 810.875 25.9071 805.904C25.5004 800.926 25.5 794.65 25.5 786.241H24.5C24.5 794.633 24.4996 800.958 24.9104 805.985C25.3216 811.019 26.1475 814.796 27.8243 818.087L28.7153 817.633ZM41.6073 830.525C36.0565 827.697 31.5436 823.184 28.7153 817.633L27.8243 818.087C30.7484 823.826 35.4143 828.492 41.1533 831.416L41.6073 830.525ZM73 833.741C64.591 833.741 58.3143 833.74 53.3368 833.334C48.3651 832.927 44.7337 832.118 41.6073 830.525L41.1533 831.416C44.4442 833.093 48.2219 833.919 53.2553 834.33C58.283 834.741 64.6075 834.741 73 834.741V833.741ZM352 833.741H73V834.741H352V833.741ZM383.393 830.525C380.266 832.118 376.635 832.927 371.663 833.334C366.686 833.74 360.409 833.741 352 833.741V834.741C360.393 834.741 366.717 834.741 371.745 834.33C376.778 833.919 380.556 833.093 383.847 831.416L383.393 830.525ZM396.285 817.633C393.456 823.184 388.944 827.697 383.393 830.525L383.847 831.416C389.586 828.492 394.252 823.826 397.176 818.087L396.285 817.633ZM399.5 786.241C399.5 794.65 399.5 800.926 399.093 805.904C398.687 810.875 397.878 814.507 396.285 817.633L397.176 818.087C398.853 814.796 399.678 811.019 400.09 805.985C400.5 800.958 400.5 794.633 400.5 786.241H399.5ZM399.5 70V786.241H400.5V70H399.5ZM396.285 38.6073C397.878 41.7337 398.687 45.3651 399.093 50.3368C399.5 55.3143 399.5 61.591 399.5 70H400.5C400.5 61.6075 400.5 55.283 400.09 50.2553C399.678 45.2219 398.853 41.4442 397.176 38.1533L396.285 38.6073ZM383.393 25.7153C388.944 28.5436 393.456 33.0565 396.285 38.6073L397.176 38.1533C394.252 32.4143 389.586 27.7484 383.847 24.8243L383.393 25.7153ZM352 22.5C360.409 22.5 366.686 22.5004 371.663 22.9071C376.635 23.3133 380.266 24.1223 383.393 25.7153L383.847 24.8243C380.556 23.1475 376.778 22.3216 371.745 21.9104C366.717 21.4996 360.393 21.5 352 21.5V22.5ZM316.753 22.5H352V21.5H316.753V22.5ZM311.807 27.4461C311.807 24.6102 313.917 22.5 316.753 22.5V21.5C313.365 21.5 310.807 24.0579 310.807 27.4461H311.807ZM310.807 22V27.4461H311.807V22H310.807ZM311.807 35.6057L311.807 22L310.807 22L310.807 35.6057L311.807 35.6057ZM296.904 50.5083C305.135 50.5083 311.807 43.8362 311.807 35.6057H310.807C310.807 43.2839 304.583 49.5083 296.904 49.5083V50.5083ZM128.095 50.5083H296.904V49.5083H128.095V50.5083ZM113.193 35.6057C113.193 43.8362 119.865 50.5083 128.095 50.5083V49.5083C120.417 49.5083 114.193 43.2839 114.193 35.6057H113.193ZM113.193 28.1948V35.6057H114.193V28.1948H113.193ZM107.469 22.5C108.858 22.5 110.289 23.1973 111.384 24.2884C112.48 25.3794 113.184 26.8083 113.193 28.1979L114.193 28.1917C114.182 26.4791 113.326 24.8106 112.09 23.5798C110.854 22.349 109.182 21.5 107.469 21.5V22.5ZM73 22.5H107.469V21.5H73V22.5ZM41.6073 25.7153C44.7337 24.1223 48.3651 23.3133 53.3368 22.9071C58.3143 22.5004 64.591 22.5 73 22.5V21.5C64.6075 21.5 58.283 21.4996 53.2553 21.9104C48.2219 22.3216 44.4442 23.1475 41.1533 24.8243L41.6073 25.7153ZM28.7153 38.6073C31.5436 33.0565 36.0565 28.5436 41.6073 25.7153L41.1533 24.8243C35.4143 27.7484 30.7484 32.4143 27.8243 38.1533L28.7153 38.6073Z" fill="#1E1E20" style="mix-blend-mode:overlay" mask="url(#path-14-inside-1)"/>
<path fill-rule="evenodd" clip-rule="evenodd" d="M107.469 22C110.575 22 113.682 25.1008 113.693 28.2072V35.6057C113.693 43.56 120.141 50.0083 128.096 50.0083H296.905C304.859 50.0083 311.307 43.56 311.307 35.6057V22H113.693H113.693H107.469ZM311.307 27.4461C311.307 24.334 313.641 22 316.753 22H311.307V27.4461Z" fill="#1E1E20"/>
<circle r="6" transform="matrix(-1 0 0 1 245 32)" fill="#333333"/>
<rect x="174" y="28" width="50" height="8" rx="4" fill="#333333"/>
</g>
<rect x="17" y="14" width="391" height="828" rx="48" stroke="#1E1E20" stroke-width="16"/>
<defs>
<filter id="filter0_d" x="-15" y="-18" width="495" height="932" filterUnits="userSpaceOnUse" color-interpolation-filters="sRGB">
<feFlood flood-opacity="0" result="BackgroundImageFix"/>
<feColorMatrix in="SourceAlpha" type="matrix" values="0 0 0 0 0 0 0 0 0 0 0 0 0 0 0 0 0 0 127 0"/>
<feOffset dx="20" dy="20"/>
<feGaussianBlur stdDeviation="30"/>
<feColorMatrix type="matrix" values="0 0 0 0 0.575 0 0 0 0 0.575 0 0 0 0 0.575 0 0 0 0.25 0"/>
<feBlend mode="normal" in2="BackgroundImageFix" result="effect1_dropShadow"/>
<feBlend mode="normal" in="SourceGraphic" in2="effect1_dropShadow" result="shape"/>
</filter>
<clipPath id="clip0">
</clipPath>
</defs>
</svg>
