<svg width="185" height="138" viewBox="0 0 185 138" fill="none" xmlns="http://www.w3.org/2000/svg">
<g filter="url(#filter0_d)">
<path d="M115.284 88.67H70.6408C68.7373 88.67 67.1963 87.129 67.1963 85.2254V23.9943C67.1963 22.0908 68.7373 20.5498 70.6408 20.5498H115.284C117.187 20.5498 118.728 22.0908 118.728 23.9943V85.2254C118.728 87.129 117.187 88.67 115.284 88.67Z" fill="url(#paint0_linear)"/>
</g>
<path d="M98.7634 72.1497H87.1608C85.8691 72.1497 84.8267 71.1073 84.8267 69.8156C84.8267 68.5239 85.8691 67.4814 87.1608 67.4814H98.7634C100.055 67.4814 101.098 68.5239 101.098 69.8156C101.098 71.1073 100.055 72.1497 98.7634 72.1497Z" fill="#D5DDEA"/>
<path d="M104.089 77.2033H81.8131C81.1332 77.2033 80.5894 76.6594 80.5894 75.9796C80.5894 75.2997 81.1332 74.7559 81.8131 74.7559H104.089C104.769 74.7559 105.313 75.2997 105.313 75.9796C105.313 76.6368 104.769 77.2033 104.089 77.2033Z" fill="#D5DDEA"/>
<path d="M108.191 44.8427C108.191 49.4203 106.174 53.522 102.979 56.3093C100.305 58.6435 96.7921 60.0485 92.9623 60.0485C89.1326 60.0485 85.6201 58.6435 82.946 56.2867C79.7507 53.4993 77.7339 49.3976 77.7339 44.82C77.7339 36.4126 84.555 29.5916 92.9623 29.5916C101.37 29.5916 108.191 36.4353 108.191 44.8427Z" fill="#D9DEEA"/>
<path d="M102.978 56.3093C100.304 58.6435 96.7919 60.0485 92.9621 60.0485C89.1324 60.0485 85.6198 58.6435 82.9458 56.2867C84.0562 55.8561 85.5065 55.2896 87.4554 54.4964C87.9087 54.3151 88.2486 53.9752 88.4525 53.5447C88.5658 53.2954 88.6112 53.0461 88.6112 52.7742V49.1257C88.5432 49.0577 88.4978 48.9671 88.4525 48.8991C88.1353 48.4232 87.9313 47.8793 87.8633 47.3128L87.5461 47.1541C86.617 47.3808 86.6849 46.3837 86.4357 44.4574C86.345 43.6643 86.4583 43.5057 86.8209 43.3697L87.1155 42.9618C85.3026 38.8827 86.209 36.322 87.9993 35.4155C87.4101 34.1238 87.3648 33.6479 87.3648 33.6479C87.3648 33.6479 91.1719 34.2825 92.4636 34.0332C94.1179 33.6933 96.6786 34.1012 97.6304 36.2993C99.2167 36.9112 99.8285 37.931 99.9645 38.996C100.1 39.9931 99.8059 41.0809 99.5113 41.9194C99.4886 41.9873 99.466 42.0327 99.4433 42.078C99.4433 42.1007 99.4206 42.1233 99.4206 42.146C99.3753 42.2593 99.3527 42.3499 99.3073 42.4406C99.2847 42.4859 99.2847 42.5312 99.262 42.5765C99.2393 42.6672 99.194 42.7578 99.1714 42.8258C99.1714 42.8485 99.1714 42.8485 99.1487 42.8711C99.126 42.9391 99.1034 43.0071 99.0807 43.0751C99.0581 43.1657 99.0354 43.2337 99.0127 43.3017C99.0354 43.3244 99.0354 43.3697 99.0581 43.3924C99.3073 43.5057 99.398 43.7323 99.3073 44.4348C99.0807 46.2704 99.1487 47.3808 98.1969 47.1315L97.3585 48.5818C97.3358 48.7404 97.3131 48.8311 97.2905 48.9217C97.2678 49.1937 97.2678 49.7375 97.2678 52.7288C97.2678 53.0914 97.3811 53.4314 97.5624 53.726C97.7664 54.0432 98.061 54.3151 98.4235 54.4738C98.4235 54.4738 98.4462 54.4738 98.4462 54.4964C100.418 55.3349 101.868 55.8788 102.978 56.3093Z" fill="white"/>
<path d="M99.0355 43.3244C99.1035 42.8711 98.8996 42.2819 98.7409 41.8967C98.7183 41.8287 98.6729 41.7607 98.6503 41.6927C97.9251 40.2424 96.2935 39.6306 94.7525 39.5399C90.8094 39.336 90.4242 40.0838 89.2005 38.9507C89.5857 39.5173 89.6084 40.4464 89.0192 41.5794C88.6113 42.3726 87.8181 42.7352 87.093 42.9618C85.2801 38.8827 86.1865 36.322 87.9768 35.4155C87.3876 34.1238 87.3423 33.6479 87.3423 33.6479C87.3423 33.6479 91.1494 34.2825 92.4411 34.0332C94.0953 33.6933 96.6561 34.1012 97.6079 36.2993C99.1942 36.9112 99.806 37.931 99.942 38.996C100.214 40.6956 99.2168 42.5765 99.0355 43.3244Z" fill="url(#paint1_linear)"/>
<path d="M97.5849 53.7712V54.4737H88.4297V53.5446C88.543 53.2953 88.5883 53.046 88.5883 52.7741V49.1256C88.5203 49.0576 88.475 48.967 88.4297 48.899V48.6724C88.6336 49.0123 88.8829 49.3069 89.1775 49.5788L92.0328 51.5957C92.69 52.1622 93.6645 52.1622 94.3443 51.6183L97.0184 49.2162C97.109 49.1483 97.1996 49.0576 97.2903 48.967C97.2676 49.2389 97.2676 49.7828 97.2676 52.7741C97.313 53.1367 97.4036 53.4766 97.5849 53.7712Z" fill="url(#paint2_linear)"/>
<g filter="url(#filter1_d)">
<path d="M54.6419 78.1325H25.9299C24.0263 78.1325 22.4854 76.5915 22.4854 74.6879V34.5319C22.4854 32.6284 24.0263 31.0874 25.9299 31.0874H54.6419C56.5454 31.0874 58.0864 32.6284 58.0864 34.5319V74.7106C58.0864 76.6142 56.5454 78.1325 54.6419 78.1325Z" fill="url(#paint3_linear)"/>
</g>
<path d="M44.2854 66.7338H36.2633C35.3795 66.7338 34.6543 66.0086 34.6543 65.1248C34.6543 64.241 35.3795 63.5159 36.2633 63.5159H44.2854C45.1692 63.5159 45.8944 64.241 45.8944 65.1248C45.8944 66.0086 45.1692 66.7338 44.2854 66.7338Z" fill="#D5DDEA"/>
<path d="M47.9795 70.2236H32.5924C32.1165 70.2236 31.7539 69.8383 31.7539 69.3851C31.7539 68.9092 32.1391 68.5466 32.5924 68.5466H47.9795C48.4554 68.5466 48.8179 68.9319 48.8179 69.3851C48.8179 69.8383 48.4327 70.2236 47.9795 70.2236Z" fill="#D5DDEA"/>
<path d="M50.7895 47.8567C50.7895 51.0293 49.3845 53.862 47.1864 55.7882C45.3281 57.3971 42.926 58.3716 40.2747 58.3716C37.6233 58.3716 35.1985 57.3971 33.3629 55.7882C31.1648 53.862 29.7598 51.0293 29.7598 47.8567C29.7598 42.0554 34.4733 37.3418 40.2747 37.3418C46.076 37.3418 50.7895 42.0554 50.7895 47.8567Z" fill="#D9DEEA"/>
<path d="M47.1862 55.7887C45.328 57.3977 42.9259 58.3721 40.2745 58.3721C37.6231 58.3721 35.1984 57.3977 33.3628 55.7887C34.1333 55.4941 35.1304 55.1089 36.4674 54.5423C36.7847 54.4064 37.0113 54.1798 37.1472 53.8852C37.2152 53.7265 37.2606 53.5452 37.2606 53.3413V50.8259C37.2152 50.7805 37.1699 50.7126 37.1472 50.6672C36.9206 50.35 36.7847 49.9647 36.7393 49.5795L36.5127 49.4662C35.8782 49.6248 35.9235 48.9223 35.7422 47.6079C35.6743 47.0641 35.7649 46.9508 35.9915 46.8601L36.1955 46.5882C34.9491 43.7555 35.5836 41.9879 36.8073 41.3761C36.3994 40.4923 36.3768 40.1523 36.3768 40.1523C36.3768 40.1523 39.0055 40.5829 39.9119 40.4243C41.0677 40.1977 42.8126 40.4696 43.4698 41.9879C44.5575 42.4185 44.9881 43.121 45.0787 43.8462C45.1694 44.5487 44.9654 45.2738 44.7841 45.863C44.7615 45.9083 44.7615 45.931 44.7388 45.9763C44.7388 45.999 44.7162 45.999 44.7162 46.0216C44.6935 46.0896 44.6708 46.1576 44.6482 46.2256C44.6255 46.2483 44.6255 46.2936 44.6028 46.3162C44.5802 46.3842 44.5575 46.4296 44.5349 46.4975V46.5202C44.5122 46.5655 44.4895 46.6108 44.4895 46.6562C44.4669 46.7242 44.4442 46.7695 44.4442 46.8148C44.4669 46.8375 44.4669 46.8601 44.4669 46.8828C44.6482 46.9734 44.6935 47.1094 44.6255 47.5853C44.4669 48.8543 44.5122 49.6248 43.855 49.4435L43.2885 50.4633C43.2658 50.5766 43.2432 50.6219 43.2432 50.7126C43.2205 50.8938 43.2205 51.2791 43.2205 53.3413C43.2205 53.5906 43.2885 53.8172 43.4245 54.0211C43.5604 54.2477 43.7644 54.429 44.0137 54.5197H44.0363C45.4413 55.1089 46.4384 55.4941 47.1862 55.7887Z" fill="white"/>
<path d="M44.4895 46.8143C44.5348 46.497 44.3988 46.1118 44.2855 45.8172C44.2628 45.7718 44.2402 45.7265 44.2175 45.6812C43.719 44.6841 42.5859 44.2535 41.5208 44.2082C38.8015 44.0722 38.5295 44.5934 37.691 43.8003C37.963 44.2082 37.9856 44.8201 37.5777 45.6132C37.2831 46.1571 36.7393 46.4064 36.2634 46.565C35.017 43.7323 35.6515 41.9647 36.8752 41.3529C36.4673 40.4691 36.4447 40.1292 36.4447 40.1292C36.4447 40.1292 39.0734 40.5597 39.9798 40.4011C41.1356 40.1745 42.8805 40.4464 43.5377 41.9647C44.6254 42.3953 45.056 43.0978 45.1466 43.823C45.2826 45.0014 44.6028 46.2931 44.4895 46.8143Z" fill="url(#paint4_linear)"/>
<path d="M43.4925 54.0433V54.5418H37.1699V53.8846C37.2379 53.726 37.2832 53.5447 37.2832 53.3408V50.8254C37.2379 50.78 37.1926 50.7121 37.1699 50.6667V50.5308C37.3059 50.7574 37.4872 50.984 37.6911 51.1426L39.6627 52.525C40.1159 52.9102 40.7957 52.9329 41.2716 52.5476L43.1299 50.8933C43.1979 50.848 43.2658 50.78 43.3112 50.7121C43.2885 50.8933 43.2885 51.2786 43.2885 53.3408C43.2885 53.5901 43.3565 53.8393 43.4925 54.0433Z" fill="url(#paint5_linear)"/>
<g filter="url(#filter2_d)">
<path d="M159.315 78.1325H130.603C128.699 78.1325 127.158 76.5915 127.158 74.6879V34.5319C127.158 32.6284 128.699 31.0874 130.603 31.0874H159.315C161.218 31.0874 162.759 32.6284 162.759 34.5319V74.7106C162.759 76.6142 161.218 78.1325 159.315 78.1325Z" fill="url(#paint6_linear)"/>
</g>
<path d="M148.959 66.7338H140.937C140.053 66.7338 139.328 66.0086 139.328 65.1248C139.328 64.241 140.053 63.5159 140.937 63.5159H148.959C149.843 63.5159 150.568 64.241 150.568 65.1248C150.59 66.0086 149.865 66.7338 148.959 66.7338Z" fill="#D5DDEA"/>
<path d="M152.652 70.2236H137.265C136.789 70.2236 136.427 69.8383 136.427 69.3851C136.427 68.9092 136.812 68.5466 137.265 68.5466H152.652C153.128 68.5466 153.491 68.9319 153.491 69.3851C153.491 69.8383 153.128 70.2236 152.652 70.2236Z" fill="#D5DDEA"/>
<path d="M155.485 47.8567C155.485 51.0293 154.08 53.862 151.882 55.7882C150.023 57.3971 147.621 58.3716 144.97 58.3716C142.319 58.3716 139.894 57.3971 138.058 55.7882C135.86 53.862 134.455 51.0293 134.455 47.8567C134.455 42.0554 139.169 37.3418 144.97 37.3418C150.771 37.3418 155.485 42.0554 155.485 47.8567Z" fill="#D9DEEA"/>
<path d="M151.882 55.7887C150.024 57.3977 147.622 58.3721 144.97 58.3721C142.319 58.3721 139.894 57.3977 138.059 55.7887C138.829 55.4941 139.826 55.1089 141.163 54.5423C141.48 54.4064 141.707 54.1798 141.843 53.8852C141.911 53.7265 141.956 53.5452 141.956 53.3413V50.8259C141.911 50.7805 141.866 50.7126 141.843 50.6672C141.616 50.35 141.48 49.9647 141.435 49.5795L141.209 49.4662C140.574 49.6248 140.619 48.9223 140.438 47.6079C140.37 47.0641 140.461 46.9508 140.687 46.8601L140.891 46.5882C139.645 43.7555 140.279 41.9879 141.503 41.3761C141.095 40.4923 141.073 40.1523 141.073 40.1523C141.073 40.1523 143.701 40.5829 144.608 40.4243C145.763 40.1977 147.508 40.4696 148.166 41.9879C149.253 42.4185 149.684 43.121 149.775 43.8462C149.865 44.5487 149.661 45.2738 149.48 45.863C149.457 45.9083 149.457 45.931 149.435 45.9763C149.435 45.999 149.412 45.999 149.412 46.0216C149.389 46.0896 149.367 46.1576 149.344 46.2256C149.321 46.2483 149.321 46.2936 149.299 46.3162C149.276 46.3842 149.253 46.4296 149.231 46.4975V46.5202C149.208 46.5655 149.185 46.6108 149.185 46.6562C149.163 46.7242 149.14 46.7695 149.14 46.8148C149.163 46.8375 149.163 46.8601 149.163 46.8828C149.344 46.9734 149.389 47.1094 149.321 47.5853C149.163 48.8543 149.208 49.6248 148.551 49.4435L147.984 50.4633C147.962 50.5766 147.939 50.6219 147.939 50.7126C147.916 50.8938 147.916 51.2791 147.916 53.3413C147.916 53.5906 147.984 53.8172 148.12 54.0211C148.256 54.2477 148.46 54.429 148.709 54.5197H148.732C150.114 55.1089 151.112 55.4941 151.882 55.7887Z" fill="white"/>
<path d="M149.163 46.8143C149.208 46.497 149.072 46.1118 148.959 45.8172C148.936 45.7718 148.914 45.7265 148.891 45.6812C148.392 44.6841 147.259 44.2535 146.194 44.2082C143.475 44.0722 143.203 44.5934 142.364 43.8003C142.636 44.2082 142.659 44.8201 142.251 45.6132C141.956 46.1571 141.413 46.4064 140.937 46.565C139.69 43.7323 140.325 41.9647 141.549 41.3529C141.141 40.4691 141.118 40.1292 141.118 40.1292C141.118 40.1292 143.747 40.5597 144.653 40.4011C145.809 40.1745 147.554 40.4464 148.211 41.9647C149.299 42.3953 149.729 43.0978 149.82 43.823C149.956 45.0014 149.299 46.2931 149.163 46.8143Z" fill="url(#paint7_linear)"/>
<path d="M148.166 54.0433V54.5418H141.843V53.8846C141.911 53.726 141.957 53.5447 141.957 53.3408V50.8254C141.911 50.78 141.866 50.7121 141.843 50.6667V50.5308C141.979 50.7574 142.161 50.984 142.364 51.1426L144.336 52.525C144.789 52.9102 145.469 52.9329 145.945 52.5476L147.803 50.8933C147.871 50.848 147.939 50.78 147.984 50.7121C147.962 50.8933 147.962 51.2786 147.962 53.3408C147.962 53.5901 148.03 53.8393 148.166 54.0433Z" fill="url(#paint8_linear)"/>
<path d="M153.944 121.348L125.277 92.7036L131.849 86.1318L160.493 114.799L153.944 121.348Z" fill="#858B9B"/>
<path d="M168.221 135.738L146.239 113.756C144.404 111.921 144.404 108.929 146.239 107.094C148.075 105.258 151.066 105.258 152.902 107.094L174.883 129.075C176.719 130.911 176.719 133.902 174.883 135.738C173.048 137.573 170.057 137.573 168.221 135.738Z" fill="#858B9B"/>
<path d="M166.657 137.143L138.376 108.861C137.719 108.204 137.719 107.139 138.376 106.459L145.605 99.2302C146.262 98.573 147.327 98.573 148.007 99.2302L176.288 127.512C176.945 128.169 176.945 129.234 176.288 129.914L169.059 137.143C168.379 137.8 167.314 137.8 166.657 137.143Z" fill="url(#paint9_linear)"/>
<path d="M92.8262 0.403809C62.8225 0.403809 38.5068 24.7195 38.5068 54.7232C38.5068 84.7042 62.8225 109.043 92.8035 109.043C122.807 109.043 147.123 84.7269 147.123 54.7232C147.123 24.7195 122.807 0.403809 92.8262 0.403809ZM92.8262 98.9809C68.7371 98.9809 49.2257 79.1522 49.2257 54.7005C49.2257 30.2489 68.7371 10.4428 92.8262 10.4428C116.915 10.4428 136.427 30.2715 136.427 54.7232C136.427 79.1748 116.893 98.9809 92.8262 98.9809Z" fill="url(#paint10_linear)"/>
<defs>
<filter id="filter0_d" x="45.1963" y="9.5498" width="95.532" height="112.12" filterUnits="userSpaceOnUse" color-interpolation-filters="sRGB">
<feFlood flood-opacity="0" result="BackgroundImageFix"/>
<feColorMatrix in="SourceAlpha" type="matrix" values="0 0 0 0 0 0 0 0 0 0 0 0 0 0 0 0 0 0 127 0"/>
<feOffset dy="11"/>
<feGaussianBlur stdDeviation="11"/>
<feColorMatrix type="matrix" values="0 0 0 0 0.397708 0 0 0 0 0.47749 0 0 0 0 0.575 0 0 0 0.27 0"/>
<feBlend mode="normal" in2="BackgroundImageFix" result="effect1_dropShadow"/>
<feBlend mode="normal" in="SourceGraphic" in2="effect1_dropShadow" result="shape"/>
</filter>
<filter id="filter1_d" x="0.485352" y="20.0874" width="79.6011" height="91.0451" filterUnits="userSpaceOnUse" color-interpolation-filters="sRGB">
<feFlood flood-opacity="0" result="BackgroundImageFix"/>
<feColorMatrix in="SourceAlpha" type="matrix" values="0 0 0 0 0 0 0 0 0 0 0 0 0 0 0 0 0 0 127 0"/>
<feOffset dy="11"/>
<feGaussianBlur stdDeviation="11"/>
<feColorMatrix type="matrix" values="0 0 0 0 0.397708 0 0 0 0 0.47749 0 0 0 0 0.575 0 0 0 0.27 0"/>
<feBlend mode="normal" in2="BackgroundImageFix" result="effect1_dropShadow"/>
<feBlend mode="normal" in="SourceGraphic" in2="effect1_dropShadow" result="shape"/>
</filter>
<filter id="filter2_d" x="105.158" y="20.0874" width="79.6011" height="91.0451" filterUnits="userSpaceOnUse" color-interpolation-filters="sRGB">
<feFlood flood-opacity="0" result="BackgroundImageFix"/>
<feColorMatrix in="SourceAlpha" type="matrix" values="0 0 0 0 0 0 0 0 0 0 0 0 0 0 0 0 0 0 127 0"/>
<feOffset dy="11"/>
<feGaussianBlur stdDeviation="11"/>
<feColorMatrix type="matrix" values="0 0 0 0 0.397708 0 0 0 0 0.47749 0 0 0 0 0.575 0 0 0 0.27 0"/>
<feBlend mode="normal" in2="BackgroundImageFix" result="effect1_dropShadow"/>
<feBlend mode="normal" in="SourceGraphic" in2="effect1_dropShadow" result="shape"/>
</filter>
<linearGradient id="paint0_linear" x1="92.9455" y1="18.9741" x2="92.9455" y2="89.4043" gradientUnits="userSpaceOnUse">
<stop stop-color="#FDFEFF"/>
<stop offset="0.9964" stop-color="#ECF0F5"/>
</linearGradient>
<linearGradient id="paint1_linear" x1="86.0972" y1="38.4872" x2="99.9912" y2="38.4872" gradientUnits="userSpaceOnUse">
<stop stop-color="#B0BACC"/>
<stop offset="1" stop-color="#969EAE"/>
</linearGradient>
<linearGradient id="paint2_linear" x1="93.0101" y1="54.509" x2="93.0101" y2="51.3131" gradientUnits="userSpaceOnUse">
<stop stop-color="white"/>
<stop offset="1" stop-color="#E2E5EC"/>
</linearGradient>
<linearGradient id="paint3_linear" x1="40.2743" y1="29.9992" x2="40.2743" y2="78.6396" gradientUnits="userSpaceOnUse">
<stop stop-color="#FDFEFF"/>
<stop offset="0.9964" stop-color="#ECF0F5"/>
</linearGradient>
<linearGradient id="paint4_linear" x1="35.582" y1="43.4724" x2="45.1663" y2="43.4724" gradientUnits="userSpaceOnUse">
<stop stop-color="#B0BACC"/>
<stop offset="1" stop-color="#969EAE"/>
</linearGradient>
<linearGradient id="paint5_linear" x1="40.3331" y1="54.5662" x2="40.3331" y2="52.3566" gradientUnits="userSpaceOnUse">
<stop stop-color="white"/>
<stop offset="1" stop-color="#E2E5EC"/>
</linearGradient>
<linearGradient id="paint6_linear" x1="144.947" y1="29.9992" x2="144.947" y2="78.6396" gradientUnits="userSpaceOnUse">
<stop stop-color="#FDFEFF"/>
<stop offset="0.9964" stop-color="#ECF0F5"/>
</linearGradient>
<linearGradient id="paint7_linear" x1="140.255" y1="43.4724" x2="149.84" y2="43.4724" gradientUnits="userSpaceOnUse">
<stop stop-color="#B0BACC"/>
<stop offset="1" stop-color="#969EAE"/>
</linearGradient>
<linearGradient id="paint8_linear" x1="145.006" y1="54.5662" x2="145.006" y2="52.3566" gradientUnits="userSpaceOnUse">
<stop stop-color="white"/>
<stop offset="1" stop-color="#E2E5EC"/>
</linearGradient>
<linearGradient id="paint9_linear" x1="137.865" y1="118.191" x2="176.788" y2="118.191" gradientUnits="userSpaceOnUse">
<stop stop-color="#B0BACC"/>
<stop offset="1" stop-color="#969EAE"/>
</linearGradient>
<linearGradient id="paint10_linear" x1="38.4571" y1="54.735" x2="147.143" y2="54.735" gradientUnits="userSpaceOnUse">
<stop stop-color="#B0BACC"/>
<stop offset="1" stop-color="#969EAE"/>
</linearGradient>
</defs>
</svg>
