<svg width="909" height="241" viewBox="0 0 909 241" fill="none" xmlns="http://www.w3.org/2000/svg">
<path d="M118.174 169.968C114.369 169.968 110.65 168.687 107.487 166.287C104.323 163.887 101.857 160.476 100.401 156.485C98.9451 152.495 98.5642 148.103 99.3064 143.867C100.049 139.63 101.881 135.739 104.571 132.684L160.37 69.364C164.01 65.4706 168.843 63.3399 173.844 63.4234C178.845 63.5069 183.621 65.7982 187.159 69.8115C190.697 73.8248 192.72 79.2446 192.798 84.922C192.875 90.5994 191.002 96.0881 187.576 100.224L131.755 163.571C129.975 165.603 127.859 167.214 125.528 168.313C123.198 169.411 120.698 169.973 118.174 169.968Z" fill="#3D43DF"/>
<path d="M90.4442 211.856C87.6062 214.871 83.9909 216.924 80.0554 217.755C76.1198 218.586 72.0409 218.158 68.3339 216.526C64.627 214.894 61.4587 212.13 59.2296 208.584C57.0005 205.038 55.8105 200.87 55.8105 196.605C55.8105 192.341 57.0005 188.172 59.2296 184.626C61.4587 181.081 64.627 178.317 68.3339 176.684C72.0409 175.052 76.1198 174.625 80.0554 175.456C83.9909 176.287 87.6062 178.34 90.4442 181.354C92.332 183.355 93.8299 185.732 94.8519 188.349C95.8739 190.966 96.4 193.772 96.4 196.605C96.4 199.439 95.8739 202.244 94.8519 204.861C93.8299 207.478 92.332 209.855 90.4442 211.856Z" fill="#3D43DF"/>
<path d="M19.567 154.747C15.6972 154.742 11.9155 153.47 8.6989 151.092C5.48231 148.715 2.9748 145.337 1.493 141.387C0.0112059 137.436 -0.37849 133.089 0.372741 128.894C1.12397 124.698 2.98255 120.843 5.71422 117.814L62.5366 55.0185C64.3333 52.9071 66.4952 51.2158 68.8944 50.045C71.2936 48.8742 73.8813 48.2477 76.5036 48.2026C79.126 48.1575 81.7299 48.6947 84.1609 49.7825C86.5919 50.8702 88.8006 52.4862 90.6559 54.5348C92.5112 56.5834 93.9752 59.0228 94.9615 61.7084C95.9479 64.394 96.4365 67.2712 96.3979 70.1693C96.3593 73.0673 95.7944 75.9274 94.737 78.5797C93.6796 81.2321 92.1512 83.6229 90.2422 85.6103L33.4198 148.405C31.6023 150.418 29.4427 152.015 27.0655 153.103C24.6883 154.191 22.1402 154.75 19.567 154.747Z" fill="#3D43DF"/>
<path d="M131.42 38.963C134.08 35.7703 135.891 31.7031 136.624 27.2755C137.358 22.848 136.981 18.2589 135.54 14.0886C134.1 9.91825 131.661 6.35391 128.533 3.8462C125.404 1.33848 121.726 0 117.963 0C114.201 0 110.522 1.33848 107.393 3.8462C104.265 6.35391 101.826 9.91825 100.386 14.0886C98.9455 18.2589 98.5683 22.848 99.3018 27.2755C100.035 31.7031 101.847 35.7703 104.507 38.963C106.272 41.0868 108.369 42.7719 110.678 43.9216C112.988 45.0713 115.463 45.6632 117.963 45.6632C120.463 45.6632 122.939 45.0713 125.248 43.9216C127.557 42.7719 129.654 41.0868 131.42 38.963Z" fill="#3D43DF"/>
<path d="M311.039 197.603C320.52 197.603 329.538 195.995 338.094 192.781C346.419 189.566 353.818 183.826 360.062 176.019C366.074 168.212 369.312 158.568 369.312 147.087C369.312 131.932 363.299 120.452 351.506 112.415C346.187 108.971 335.088 103.919 318.207 97.2604C307.57 93.1273 300.171 89.6831 296.239 86.9277C292.308 84.1723 290.458 80.4984 290.458 75.6765C290.458 70.6249 292.308 66.7215 296.008 63.7365C299.708 60.9811 304.333 59.3737 310.345 59.3737C320.982 59.3737 332.776 64.8845 346.187 75.4469L365.149 51.1076C348.037 37.3306 329.538 30.4421 309.651 30.4421C294.852 30.6718 282.365 35.2641 272.19 44.2191C262.016 53.1741 256.928 64.1957 256.928 77.0542C256.928 83.0242 257.853 88.535 259.703 93.5865C261.553 98.6381 264.097 102.771 267.103 105.986C269.878 109.2 273.809 112.415 278.434 115.17C283.059 118.155 287.452 120.452 291.615 122.289C295.777 124.125 300.633 125.962 306.645 127.799C317.282 131.473 324.682 134.917 328.844 137.902C333.007 141.117 335.088 145.48 335.088 150.991C335.088 156.272 333.007 160.405 329.076 163.619C324.913 166.834 319.132 168.212 311.733 168.212C304.795 168.212 297.858 166.604 290.458 162.931C283.059 159.486 276.584 154.435 270.803 147.776L251.147 171.656C268.028 189.107 287.915 197.603 311.039 197.603Z" fill="#3D43DF"/>
<path d="M410.248 68.0992C415.567 68.0992 420.192 66.4919 423.892 62.818C427.592 59.1441 429.441 54.7814 429.441 49.5003C429.441 44.4487 427.592 40.3156 423.892 36.6418C420.192 32.9679 415.567 31.131 410.248 31.131C404.699 31.131 400.074 32.9679 396.374 36.6418C392.674 40.3156 391.055 44.4487 391.055 49.5003C391.055 54.7814 392.674 59.1441 396.374 62.818C400.074 66.4919 404.699 68.0992 410.248 68.0992ZM394.755 195.536H425.048V83.2538H394.755V195.536Z" fill="#3D43DF"/>
<path d="M456.598 195.536H486.89V139.51C486.89 129.866 488.972 122.289 493.365 116.778C497.759 111.267 503.54 108.512 510.708 108.512C523.889 108.512 530.595 118.385 530.595 137.673V195.536H560.887V139.51C560.887 129.866 562.969 122.289 567.362 116.778C571.756 111.267 577.306 108.512 584.012 108.512C596.961 108.512 603.667 118.385 603.667 137.673V195.536H633.96V130.555C633.96 97.9492 620.548 81.6465 594.186 81.6465C577.074 81.6465 563.894 87.6165 554.644 99.3269H554.181C547.707 87.6165 536.607 81.6465 520.883 81.6465C507.471 81.6465 496.14 87.1573 487.122 97.9492H486.89V83.2538H456.598V195.536Z" fill="#3D43DF"/>
<path d="M662.321 241H692.613V183.137L693.076 182.907C701.169 192.781 712.269 197.603 726.143 197.603C741.868 197.603 755.049 192.321 765.223 181.529C775.398 170.967 780.485 156.961 780.485 139.739C780.485 122.977 775.398 109.2 765.223 98.1789C755.049 87.1573 742.33 81.6465 727.068 81.6465C712.731 81.6465 701.401 86.4684 693.076 96.1123H692.613V83.2538H662.321V241ZM720.825 170.508C712.269 170.508 705.1 167.753 699.551 162.012C694.001 156.501 691.226 149.154 691.226 139.969C691.226 130.784 693.77 123.437 699.319 117.467C704.869 111.497 711.806 108.512 720.594 108.512C728.918 108.512 735.856 111.497 741.405 117.237C746.955 122.977 749.73 130.555 749.73 139.969C749.73 148.924 746.955 156.272 741.637 162.012C736.087 167.753 729.15 170.508 720.825 170.508Z" fill="#3D43DF"/>
<path d="M843.905 197.603C857.317 197.603 868.416 192.551 877.203 181.989L877.666 182.218V195.536H908.19V83.2538H877.666V137.902C877.666 148.235 875.122 156.272 870.266 162.012C865.41 167.753 859.629 170.508 852.692 170.508C845.292 170.508 840.205 168.671 836.967 164.538C833.73 160.405 832.343 153.287 832.343 143.184V83.2538H802.281V150.991C802.281 182.218 816.156 197.603 843.905 197.603Z" fill="#3D43DF"/>
</svg>
