<svg width="143" height="116" viewBox="0 0 143 116" fill="none" xmlns="http://www.w3.org/2000/svg">
<path d="M71.7986 101.663C99.7986 101.663 122.499 78.9627 122.499 50.8627C122.499 22.7627 99.7986 0.0627441 71.7986 0.0627441C43.7986 0.0627441 21.0986 22.7627 21.0986 50.8627C21.0986 78.9627 43.7986 101.663 71.7986 101.663Z" fill="#EAEEF9"/>
<path d="M128.298 29.9627C130.563 29.9627 132.398 28.1271 132.398 25.8627C132.398 23.5983 130.563 21.7627 128.298 21.7627C126.034 21.7627 124.198 23.5983 124.198 25.8627C124.198 28.1271 126.034 29.9627 128.298 29.9627Z" fill="#EAEEF9"/>
<path d="M134.299 13.8627C135.845 13.8627 137.099 12.6091 137.099 11.0627C137.099 9.5163 135.845 8.2627 134.299 8.2627C132.752 8.2627 131.499 9.5163 131.499 11.0627C131.499 12.6091 132.752 13.8627 134.299 13.8627Z" fill="#EAEEF9"/>
<path d="M17.6984 32.8627C19.2448 32.8627 20.4984 31.6091 20.4984 30.0627C20.4984 28.5163 19.2448 27.2627 17.6984 27.2627C16.152 27.2627 14.8984 28.5163 14.8984 30.0627C14.8984 31.6091 16.152 32.8627 17.6984 32.8627Z" fill="#EAEEF9"/>
<path d="M22.8982 93.7628C25.7701 93.7628 28.0982 91.4347 28.0982 88.5628C28.0982 85.6909 25.7701 83.3628 22.8982 83.3628C20.0264 83.3628 17.6982 85.6909 17.6982 88.5628C17.6982 91.4347 20.0264 93.7628 22.8982 93.7628Z" fill="#EAEEF9"/>
<g filter="url(#filter0_d)">
<path d="M112.115 82.9321H31.682C26.7883 82.9321 22.8984 79.0423 22.8984 74.1485V27.8464C22.8984 22.9526 26.7883 19.0627 31.682 19.0627H112.115C117.009 19.0627 120.898 22.9526 120.898 27.8464V74.1485C120.898 79.0423 117.009 82.9321 112.115 82.9321Z" fill="url(#paint0_linear)"/>
</g>
<path d="M47.7437 68.5019H34.9447C33.8154 68.5019 32.937 67.6236 32.937 66.4943C32.937 65.3649 33.8154 64.4866 34.9447 64.4866H47.7437C48.873 64.4866 49.7514 65.3649 49.7514 66.4943C49.7514 67.6236 48.873 68.5019 47.7437 68.5019Z" fill="#D5DDEA"/>
<path d="M68.4478 68.5019H55.6488C54.5195 68.5019 53.6411 67.6236 53.6411 66.4943C53.6411 65.3649 54.5195 64.4866 55.6488 64.4866H68.4478C69.5771 64.4866 70.4555 65.3649 70.4555 66.4943C70.4555 67.6236 69.5771 68.5019 68.4478 68.5019Z" fill="#D5DDEA"/>
<path d="M89.1519 68.5019H76.3529C75.2236 68.5019 74.3452 67.6236 74.3452 66.4943C74.3452 65.3649 75.2236 64.4866 76.3529 64.4866H89.1519C90.2812 64.4866 91.1596 65.3649 91.1596 66.4943C91.1596 67.6236 90.2812 68.5019 89.1519 68.5019Z" fill="#D5DDEA"/>
<path d="M109.856 68.5019H97.057C95.9277 68.5019 95.0493 67.6236 95.0493 66.4943C95.0493 65.3649 95.9277 64.4866 97.057 64.4866H109.856C110.985 64.4866 111.864 65.3649 111.864 66.4943C111.864 67.6236 110.985 68.5019 109.856 68.5019Z" fill="#D5DDEA"/>
<path d="M105.213 44.4098C109.371 44.4098 112.742 41.039 112.742 36.881C112.742 32.7229 109.371 29.3522 105.213 29.3522C101.055 29.3522 97.6846 32.7229 97.6846 36.881C97.6846 41.039 101.055 44.4098 105.213 44.4098Z" fill="#989FB0"/>
<path d="M95.3003 44.4098C99.4583 44.4098 102.829 41.039 102.829 36.881C102.829 32.7229 99.4583 29.3522 95.3003 29.3522C91.1422 29.3522 87.7715 32.7229 87.7715 36.881C87.7715 41.039 91.1422 44.4098 95.3003 44.4098Z" fill="#D5DDEA"/>
<path d="M48.873 46.7938H34.8192C33.8154 46.7938 32.937 45.9155 32.937 44.9116V35.8771C32.937 34.8732 33.8154 33.9949 34.8192 33.9949H48.7475C49.7514 33.9949 50.6297 34.8732 50.6297 35.8771V44.9116C50.7552 45.9155 49.8768 46.7938 48.873 46.7938Z" fill="#D5DDEA"/>
<path d="M128.612 83.7054C128.212 85.4054 127.612 87.2054 126.912 88.7054C125.012 92.4054 122.012 95.3054 118.312 97.2054C114.512 99.1054 110.012 99.9054 105.512 98.9054C94.9118 96.7054 88.1118 86.3054 90.3118 75.7054C92.5118 65.1054 102.812 58.2054 113.412 60.5054C117.212 61.3054 120.512 63.2054 123.312 65.8054C128.012 70.5054 130.012 77.3054 128.612 83.7054Z" fill="url(#paint1_linear)"/>
<path d="M115.712 78.0054H111.212V73.5054C111.212 72.6054 110.512 71.8054 109.512 71.8054C108.612 71.8054 107.812 72.5054 107.812 73.5054V78.0054H103.312C102.412 78.0054 101.612 78.7054 101.612 79.7054C101.612 80.7054 102.312 81.4054 103.312 81.4054H107.812V85.9054C107.812 86.8054 108.512 87.6054 109.512 87.6054C110.412 87.6054 111.212 86.9054 111.212 85.9054V81.4054H115.712C116.612 81.4054 117.412 80.7054 117.412 79.7054C117.412 78.7054 116.612 78.0054 115.712 78.0054Z" fill="white"/>
<defs>
<filter id="filter0_d" x="0.898438" y="8.06274" width="142" height="107.869" filterUnits="userSpaceOnUse" color-interpolation-filters="sRGB">
<feFlood flood-opacity="0" result="BackgroundImageFix"/>
<feColorMatrix in="SourceAlpha" type="matrix" values="0 0 0 0 0 0 0 0 0 0 0 0 0 0 0 0 0 0 127 0"/>
<feOffset dy="11"/>
<feGaussianBlur stdDeviation="11"/>
<feColorMatrix type="matrix" values="0 0 0 0 0.397708 0 0 0 0 0.47749 0 0 0 0 0.575 0 0 0 0.27 0"/>
<feBlend mode="normal" in2="BackgroundImageFix" result="effect1_dropShadow"/>
<feBlend mode="normal" in="SourceGraphic" in2="effect1_dropShadow" result="shape"/>
</filter>
<linearGradient id="paint0_linear" x1="71.8665" y1="17.5854" x2="71.8665" y2="83.6207" gradientUnits="userSpaceOnUse">
<stop stop-color="#FDFEFF"/>
<stop offset="0.9964" stop-color="#ECF0F5"/>
</linearGradient>
<linearGradient id="paint1_linear" x1="89.8805" y1="79.7048" x2="129.058" y2="79.7048" gradientUnits="userSpaceOnUse">
<stop stop-color="#B0BACC"/>
<stop offset="1" stop-color="#969EAE"/>
</linearGradient>
</defs>
</svg>
