<svg width="120" height="124" viewBox="0 0 120 124" fill="none" xmlns="http://www.w3.org/2000/svg">
<path d="M105.01 46.082C107.122 46.082 108.835 44.3682 108.835 42.254C108.835 40.1399 107.122 38.426 105.01 38.426C102.898 38.426 101.186 40.1399 101.186 42.254C101.186 44.3682 102.898 46.082 105.01 46.082Z" fill="#EAEEF9"/>
<path d="M3.41657 66.7832C4.80621 66.7832 5.93274 65.6557 5.93274 64.2648C5.93274 62.8739 4.80621 61.7463 3.41657 61.7463C2.02692 61.7463 0.900391 62.8739 0.900391 64.2648C0.900391 65.6557 2.02692 66.7832 3.41657 66.7832Z" fill="#EAEEF9"/>
<path d="M14.983 112.06C16.3726 112.06 17.4991 110.932 17.4991 109.541C17.4991 108.15 16.3726 107.023 14.983 107.023C13.5933 107.023 12.4668 108.15 12.4668 109.541C12.4668 110.932 13.5933 112.06 14.983 112.06Z" fill="#EAEEF9"/>
<path d="M28.4326 112.06L63.7416 100.996V55.6343L28.4326 66.613V112.06Z" fill="#B7BFCD"/>
<path opacity="0.4" d="M99.0507 112.06L63.7417 100.996V55.6343L99.0507 66.613V112.06Z" fill="#6D7C9A"/>
<g opacity="0.13">
<path d="M28.4326 112.06L63.7416 100.996V55.6343L28.4326 66.613V112.06Z" fill="url(#paint0_linear)"/>
<path d="M99.0506 112.06L63.7416 100.996V55.6343L99.0506 66.613V112.06Z" fill="url(#paint1_linear)"/>
</g>
<path d="M63.7416 123.209L28.4326 112.145V66.7832L63.7416 77.847V123.209Z" fill="#EDF1F9"/>
<path d="M63.7417 123.209L99.0507 112.145V66.7832L63.7417 77.847V123.209Z" fill="#DAE1ED"/>
<path opacity="0.09" d="M55.7416 115.209L28.4326 112.145V66.7832L63.7416 77.847L55.7416 115.209Z" fill="url(#paint2_linear)"/>
<path opacity="0.2" d="M71.7417 107.209L99.0507 112.145V66.7832L63.7417 77.847L71.7417 107.209Z" fill="url(#paint3_linear)"/>
<path d="M63.7417 55.6343L47.1406 43.2087L11.2417 55.2938L28.4327 66.613L63.7417 55.6343Z" fill="#DAE1ED"/>
<path d="M63.7417 55.6343L80.3428 43.2087L116.242 55.2938L99.0507 66.613L63.7417 55.6343Z" fill="#DAE1ED"/>
<path d="M28.4327 66.7832L63.7417 77.847L46.1293 89.0811L11.2417 77.5066L28.4327 66.7832Z" fill="#EFF4FD"/>
<path d="M99.0507 66.7832L63.7417 77.847L81.3541 89.0811L116.242 77.5066L99.0507 66.7832Z" fill="#EDF1F9"/>
<path d="M73.5932 12.0855C78.5397 25.51 80.0142 28.4928 80.4981 41.7207C80.312 44.7402 80.1966 48.0236 78.773 50.6674C76.8719 54.7119 72.2219 57.5129 67.8285 57.5582C63.3026 57.6391 58.8655 54.868 56.8684 50.5949C55.4633 48.0016 55.508 44.4543 57.4354 42.0997C59.5307 39.8416 63.2169 39.2785 65.8686 40.6895C68.7855 42.0295 70.5265 44.8156 71.1714 47.754C71.8162 50.6923 71.5329 53.8793 70.7457 56.7769C69.0995 63.8244 67.736 64.1653 63.6987 76.0971" stroke="#ABB5CC" stroke-width="2" stroke-miterlimit="10" stroke-dasharray="4 4"/>
<path d="M79.6136 4.98007C79.6021 6.95405 77.7651 8.16274 75.4356 7.53245C72.9829 7.11434 71.2469 6.68342 71.1352 4.92162C71.1914 3.11482 73.1627 2.40767 75.4701 1.61053C78.2366 0.511205 79.4571 3.05109 79.6136 4.98007Z" fill="#DAE2EB"/>
<path d="M63.7643 11.0164C65.0074 12.2961 67.6281 12.6692 68.9052 10.7146C70.3055 8.54782 71.5042 6.97258 70.2164 5.52576C68.9733 4.24613 67.7636 5.10765 64.997 6.20697C62.7792 7.33848 62.3085 9.61462 63.7643 11.0164Z" fill="#DAE2EB"/>
<path d="M69.5 2.85111C70.6313 2.36895 71.9864 2.72268 72.5911 3.63577C72.8487 3.92513 73.151 4.38168 73.2405 4.71604C74.2034 6.96657 73.9007 9.19772 72.6014 9.72488C71.1789 10.4642 69.2191 9.19739 68.469 7.06905C68.2899 6.40033 68.2003 6.06597 68.066 5.56442C67.9206 4.34917 68.3687 3.33327 69.5 2.85111C69.5 2.85111 69.668 2.80611 69.5 2.85111Z" fill="#989FB0"/>
<path d="M17.499 39.079H15.3089V36.8889H13.4317V39.079H11.2417V41.0187H13.4317V43.2088H15.3089V41.0187H17.499V39.079Z" fill="url(#paint4_linear)"/>
<path d="M22.31 94.0262H20.12V91.8362H18.2428V94.0262H16.0527V95.966H18.2428V98.156H20.12V95.966H22.31V94.0262Z" fill="url(#paint5_linear)"/>
<path d="M118.048 94.1501L115.368 92.7972L116.721 90.1177L114.424 88.9581L113.071 91.6376L110.392 90.2848L109.194 92.6581L111.873 94.011L110.52 96.6905L112.817 97.8501L114.17 95.1706L116.849 96.5234L118.048 94.1501Z" fill="url(#paint6_linear)"/>
<defs>
<linearGradient id="paint0_linear" x1="52.5954" y1="58.9196" x2="47.7793" y2="78.9694" gradientUnits="userSpaceOnUse">
<stop offset="0.00289017" stop-color="#606673" stop-opacity="0"/>
<stop offset="1" stop-color="#373C47"/>
</linearGradient>
<linearGradient id="paint1_linear" x1="52.5954" y1="58.9196" x2="47.7793" y2="78.9694" gradientUnits="userSpaceOnUse">
<stop offset="0.00289017" stop-color="#606673" stop-opacity="0"/>
<stop offset="1" stop-color="#373C47"/>
</linearGradient>
<linearGradient id="paint2_linear" x1="36.3487" y1="97.8285" x2="44.8313" y2="73.8704" gradientUnits="userSpaceOnUse">
<stop offset="0.00289017" stop-color="#6C80AA" stop-opacity="0"/>
<stop offset="1" stop-color="#5D6A86"/>
</linearGradient>
<linearGradient id="paint3_linear" x1="82.7975" y1="104.373" x2="83.4646" y2="73.9703" gradientUnits="userSpaceOnUse">
<stop offset="0.00289017" stop-color="#314F91" stop-opacity="0"/>
<stop offset="1" stop-color="#324264"/>
</linearGradient>
<linearGradient id="paint4_linear" x1="14.3708" y1="37.1085" x2="14.3708" y2="40.6557" gradientUnits="userSpaceOnUse">
<stop stop-color="#B0BACC"/>
<stop offset="1" stop-color="#969EAE"/>
</linearGradient>
<linearGradient id="paint5_linear" x1="19.1819" y1="92.0557" x2="19.1819" y2="95.603" gradientUnits="userSpaceOnUse">
<stop stop-color="#B0BACC"/>
<stop offset="1" stop-color="#969EAE"/>
</linearGradient>
<linearGradient id="paint6_linear" x1="115.438" y1="89.8068" x2="113.246" y2="94.1469" gradientUnits="userSpaceOnUse">
<stop stop-color="#B0BACC"/>
<stop offset="1" stop-color="#969EAE"/>
</linearGradient>
</defs>
</svg>
