<svg width="141" height="121" viewBox="0 0 141 121" fill="none" xmlns="http://www.w3.org/2000/svg">
<path d="M122.768 69.453C122.768 87.5942 113.303 103.566 98.9087 112.44C98.12 112.834 97.3312 113.426 96.7397 113.82C89.4438 117.961 80.9648 120.327 72.0914 120.327C63.8096 120.327 55.9221 118.355 49.0206 114.806C32.4569 106.327 21.2173 89.1717 21.2173 69.453C21.2173 41.4526 43.8937 18.7761 71.8942 18.7761C81.162 18.7761 89.641 21.1424 97.1341 25.4805C102.261 28.2411 106.599 31.9876 110.346 36.5229C111.134 37.3116 111.923 38.2976 112.515 39.2835C119.022 47.5653 122.768 58.0162 122.768 69.453Z" fill="#EAEEF9"/>
<path d="M59.2745 18.3817V72.608C59.2745 77.5376 55.3308 81.4813 50.4011 81.4813C50.0068 81.4813 49.6124 81.4813 49.0208 81.4813C44.6827 80.8898 41.3306 77.1432 41.3306 72.608V18.3817C41.3306 13.8464 44.6827 10.0999 49.0208 9.5083C49.4152 9.5083 49.8096 9.5083 50.4011 9.5083C52.9646 9.5083 55.1336 10.4942 56.7111 12.0717C58.2886 13.6492 59.2745 15.8183 59.2745 18.3817Z" fill="#A4ADBE"/>
<path d="M77.0211 42.8328V97.059C77.0211 101.989 73.0774 105.932 68.1477 105.932C67.7533 105.932 67.359 105.932 66.7674 105.735C62.4293 105.144 59.0771 101.397 59.0771 96.8619V42.8328C59.0771 38.2975 62.4293 34.551 66.7674 33.9594C67.1618 33.9594 67.5562 33.7622 68.1477 33.7622C70.7111 33.7622 72.8802 34.7481 74.4577 36.3256C76.0352 38.1003 77.0211 40.2694 77.0211 42.8328Z" fill="#A4ADBE"/>
<path d="M94.965 48.7483V102.975C94.965 107.904 91.0212 111.848 86.0916 111.848C85.6972 111.848 85.3028 111.848 84.7113 111.651C80.3732 111.059 77.021 107.313 77.021 102.777V48.7483C77.021 44.213 80.3732 40.6637 84.7113 39.8749C85.1056 39.8749 85.5 39.6777 86.0916 39.6777C88.655 39.6777 90.8241 40.6637 92.4015 42.2412C93.7818 44.0158 94.965 46.1849 94.965 48.7483Z" fill="#A4ADBE"/>
<path d="M61.6407 103.369C60.6547 104.158 59.4716 104.749 58.2885 105.144C54.542 106.13 50.401 104.749 47.8376 101.594L21.2175 66.6923C17.8653 62.3542 18.654 56.0442 23.1893 52.6921L23.3865 52.4949C25.1612 51.3118 27.1331 50.7202 29.1049 50.7202C32.0627 50.7202 35.0205 52.1005 36.9924 54.6639L63.4154 89.5659C66.7675 93.904 65.9788 100.214 61.6407 103.369Z" fill="#7F3F98"/>
<path d="M41.3305 60.3824V93.3125L21.2175 66.6923C17.8653 62.3542 18.654 56.0442 23.1893 52.6921L23.3865 52.4949C25.1612 51.3118 27.1331 50.7202 29.1049 50.7202C32.0627 50.7202 35.0205 52.1005 36.9924 54.6639L41.3305 60.3824Z" fill="#A4ADBE"/>
<path d="M112.712 31.3959V70.6359C112.712 93.1152 98.9092 96.073 98.9092 101.003V112.439C98.1204 112.834 97.3317 113.425 96.7401 113.82C89.4442 117.961 80.9652 120.327 72.0918 120.327C63.81 120.327 55.9225 118.355 49.021 114.806V58.6076L89.8386 57.4245H92.0076L92.7964 58.016L94.9654 59.3963V31.3959C94.9654 29.0296 95.9514 26.8606 97.3317 25.2831C98.712 23.7056 100.684 22.7196 102.853 22.5225C103.247 22.5225 103.642 22.5225 104.036 22.5225C108.768 22.5225 112.712 26.4662 112.712 31.3959Z" fill="#A4ADBE"/>
<path d="M74.4578 42.8329V50.7203H76.824V48.7484C76.824 44.2131 80.1762 40.6637 84.5143 39.875C86.4861 40.0722 88.2608 41.0581 89.4439 42.4384C91.2186 44.0159 92.2045 46.185 92.2045 48.7484V54.8612H94.9652V31.396C94.9652 29.0297 95.9511 26.8607 97.3314 25.2832C98.7117 23.7057 100.684 22.7198 102.853 22.5226C106.994 23.1141 110.543 26.8607 110.543 31.396V70.6361C110.543 85.9459 104.14 92.2007 100.056 96.1905C98.1439 98.0589 96.7399 99.4305 96.7399 101.003V113.623C89.444 117.764 80.965 120.13 72.0916 120.13C63.8097 120.13 55.9223 118.158 49.0208 114.609V102.83C48.5983 102.455 48.202 102.043 47.8376 101.594L21.2175 66.6923C17.8653 62.3542 18.654 56.0442 23.1893 52.692L23.3865 52.4948C24.1753 52.2977 25.1612 52.1005 25.9499 52.1005C28.9077 52.1005 31.8655 53.4808 33.8374 56.0442L41.1333 65.6813V18.3817C41.1333 13.8464 44.4855 10.0999 48.8236 9.5083C50.7954 9.70549 52.5701 10.6914 53.7532 12.0717C55.5279 13.6492 56.5138 15.8183 56.5138 18.3817V47.7625H59.0772V42.8329C59.0772 38.2976 62.4294 34.551 66.7675 33.9595C68.7394 34.1567 70.514 35.1426 71.6972 36.5229C73.4718 38.1004 74.4578 40.2694 74.4578 42.8329Z" fill="#C6D0DE"/>
<path d="M77.4712 14.1839C80.0849 14.1839 82.2037 12.0651 82.2037 9.45147C82.2037 6.8378 80.0849 4.71899 77.4712 4.71899C74.8576 4.71899 72.7388 6.8378 72.7388 9.45147C72.7388 12.0651 74.8576 14.1839 77.4712 14.1839Z" fill="#E7EBF6"/>
<path d="M135.98 60.974C138.594 60.974 140.713 58.8552 140.713 56.2415C140.713 53.6278 138.594 51.509 135.98 51.509C133.366 51.509 131.248 53.6278 131.248 56.2415C131.248 58.8552 133.366 60.974 135.98 60.974Z" fill="#E7EBF6"/>
<path d="M127.084 5.27975H122.123V0.318604H117.87V5.27975H112.909V9.67391H117.87V14.6351H122.123V9.67391H127.084V5.27975Z" fill="url(#paint0_linear)"/>
<path d="M14.4868 28.8792H9.66445V24.0569H5.531V28.8792H0.880859V33.0127H5.531V37.6628H9.66445V33.0127H14.4868V28.8792Z" fill="url(#paint1_linear)"/>
<defs>
<linearGradient id="paint0_linear" x1="119.998" y1="0.81594" x2="119.998" y2="8.85162" gradientUnits="userSpaceOnUse">
<stop stop-color="#B0BACC"/>
<stop offset="1" stop-color="#969EAE"/>
</linearGradient>
<linearGradient id="paint1_linear" x1="7.68491" y1="24.5295" x2="7.68491" y2="32.1664" gradientUnits="userSpaceOnUse">
<stop stop-color="#B0BACC"/>
<stop offset="1" stop-color="#969EAE"/>
</linearGradient>
</defs>
</svg>
