<svg width="128" height="131" viewBox="0 0 128 131" fill="none" xmlns="http://www.w3.org/2000/svg">
<path d="M62.4334 108.123C90.4334 108.123 113.133 85.423 113.133 57.3229C113.133 29.2229 90.4334 6.52295 62.4334 6.52295C34.4334 6.52295 11.7334 29.2229 11.7334 57.3229C11.7334 85.423 34.4334 108.123 62.4334 108.123Z" fill="#EAEEF9"/>
<path d="M118.933 36.4229C121.197 36.4229 123.033 34.5873 123.033 32.3229C123.033 30.0585 121.197 28.2229 118.933 28.2229C116.669 28.2229 114.833 30.0585 114.833 32.3229C114.833 34.5873 116.669 36.4229 118.933 36.4229Z" fill="#EAEEF9"/>
<path d="M124.933 20.3229C126.48 20.3229 127.733 19.0693 127.733 17.5229C127.733 15.9765 126.48 14.7229 124.933 14.7229C123.387 14.7229 122.133 15.9765 122.133 17.5229C122.133 19.0693 123.387 20.3229 124.933 20.3229Z" fill="#EAEEF9"/>
<path d="M8.3332 39.3229C9.8796 39.3229 11.1332 38.0693 11.1332 36.5229C11.1332 34.9765 9.8796 33.7229 8.3332 33.7229C6.78681 33.7229 5.5332 34.9765 5.5332 36.5229C5.5332 38.0693 6.78681 39.3229 8.3332 39.3229Z" fill="#EAEEF9"/>
<path d="M13.533 100.223C16.4049 100.223 18.733 97.8949 18.733 95.023C18.733 92.1511 16.4049 89.823 13.533 89.823C10.6611 89.823 8.33301 92.1511 8.33301 95.023C8.33301 97.8949 10.6611 100.223 13.533 100.223Z" fill="#EAEEF9"/>
<path d="M66.4357 11.8345H58.0454V17.2952H66.4357V11.8345Z" fill="#D1D9E7"/>
<path d="M34.6327 22.7122L30.0796 27.2629L33.3909 30.5726L37.944 26.0218L34.6327 22.7122Z" fill="#D5DDEA"/>
<path d="M87.8757 25.6865L92.4287 30.2373L95.3951 27.2724L90.842 22.7217L87.8757 25.6865Z" fill="#D5DDEA"/>
<path d="M65.3624 98.523C87.6693 98.523 105.753 80.4487 105.753 58.1529C105.753 35.857 87.6693 17.7827 65.3624 17.7827C43.0555 17.7827 24.9722 35.857 24.9722 58.1529C24.9722 80.4487 43.0555 98.523 65.3624 98.523Z" fill="#D5DDEA"/>
<g filter="url(#filter0_d)">
<path d="M62.9235 97.0601C85.2304 97.0601 103.314 78.9858 103.314 56.69C103.314 34.3942 85.2304 16.3198 62.9235 16.3198C40.6165 16.3198 22.5332 34.3942 22.5332 56.69C22.5332 78.9858 40.6165 97.0601 62.9235 97.0601Z" fill="url(#paint0_linear)"/>
</g>
<path d="M27.3137 58.9328C26.3381 58.9328 25.5576 58.1527 25.5576 57.1775C25.5576 56.9825 25.5576 56.7875 25.5576 56.69C25.5576 37.8701 39.6064 21.9755 58.2405 19.6352C59.2162 19.5377 60.0942 20.2203 60.1918 21.1954C60.2893 22.1706 59.6064 23.0482 58.6308 23.1457C41.7527 25.291 29.0698 39.7228 29.0698 56.69C29.0698 56.885 29.0698 56.9825 29.0698 57.1775C29.0698 58.1527 28.2893 58.9328 27.3137 58.9328Z" fill="white"/>
<path opacity="0.3" d="M94.4355 56.6901C94.4355 57.0802 94.4355 57.3727 94.4355 57.7628C93.8502 74.6324 79.9965 88.1866 62.9233 88.1866C45.8502 88.1866 31.9965 74.6324 31.4111 57.7628C31.4111 57.3727 31.4111 57.0802 31.4111 56.6901C31.4111 39.723 44.8745 25.7787 61.7526 25.1936C62.1428 25.1936 62.5331 25.1936 62.9233 25.1936C80.1916 25.1936 94.1428 39.0404 94.4355 56.105C94.4355 56.3001 94.4355 56.4951 94.4355 56.6901Z" fill="#CCD5E3"/>
<path d="M94.4355 57.7628C93.8502 74.6324 79.9965 88.1867 62.9233 88.1867C45.8502 88.1867 31.9965 74.6324 31.4111 57.7628C31.9965 40.8931 45.8502 27.3389 62.9233 27.3389C79.9965 27.2414 93.8502 40.7956 94.4355 57.7628Z" fill="white"/>
<path d="M90.2405 58.2503H85.0698C84.1917 58.2503 83.5088 57.5677 83.5088 56.6901C83.5088 55.8125 84.1917 55.1299 85.0698 55.1299H90.2405C91.1185 55.1299 91.8015 55.8125 91.8015 56.6901C91.8015 57.5677 91.021 58.2503 90.2405 58.2503Z" fill="#CBD4E2"/>
<path d="M39.2161 58.2503H34.0454C33.1673 58.2503 32.4844 57.5677 32.4844 56.6901C32.4844 55.8125 33.1673 55.1299 34.0454 55.1299H39.2161C40.0941 55.1299 40.7771 55.8125 40.7771 56.6901C40.7771 57.5677 39.9966 58.2503 39.2161 58.2503Z" fill="#CBD4E2"/>
<path d="M62.143 86.4314C61.265 86.4314 60.582 85.7488 60.582 84.8712V79.703C60.582 78.8254 61.265 78.1428 62.143 78.1428C63.0211 78.1428 63.704 78.8254 63.704 79.703V84.8712C63.6064 85.7488 62.9235 86.4314 62.143 86.4314Z" fill="#CBD4E2"/>
<path d="M62.143 35.4323C61.265 35.4323 60.582 34.7497 60.582 33.8721V28.8014C60.582 27.9238 61.265 27.2412 62.143 27.2412C63.0211 27.2412 63.704 27.9238 63.704 28.8014V33.9696C63.6064 34.7497 62.9235 35.4323 62.143 35.4323Z" fill="#CBD4E2"/>
<path d="M62.5334 60.9805C65.1736 60.9805 67.3139 58.8413 67.3139 56.2024C67.3139 53.5635 65.1736 51.4243 62.5334 51.4243C59.8932 51.4243 57.7529 53.5635 57.7529 56.2024C57.7529 58.8413 59.8932 60.9805 62.5334 60.9805Z" fill="#F2F5FC"/>
<path opacity="0.3" d="M88.4969 58.4741C88.4654 57.7615 87.9119 57.1537 87.2668 57.1234L64.3414 56.6284C64.2799 56.5609 64.2799 56.5609 64.2184 56.4933C63.4188 55.6154 62.1288 55.5548 61.2513 56.354C61.1838 56.4154 61.1163 56.4769 61.0488 56.5384L57.3691 56.4302C56.6566 56.4614 56.0491 57.0146 56.0191 57.6597C56.0011 58.0467 56.1181 58.3108 56.3641 58.5809C56.6102 58.8511 56.9237 59.0597 57.2492 59.0104L60.9288 59.1186C60.9904 59.1861 61.0519 59.2536 61.0519 59.2536C61.8514 60.1316 63.1415 60.1922 64.019 59.393C64.0865 59.3315 64.154 59.27 64.2215 59.2086L87.0794 59.7651C87.921 59.7399 88.5285 59.1867 88.4969 58.4741Z" fill="#DAE1ED"/>
<path d="M88.4403 56.9201C88.4088 56.2076 87.8552 55.5998 87.2102 55.5695L64.2847 55.0744C64.2232 55.0069 64.2232 55.0069 64.1617 54.9394C63.3622 54.0614 62.0721 54.0008 61.1946 54.8C61.1271 54.8615 61.0596 54.923 60.9921 54.9844L57.3125 54.8762C56.5999 54.9074 55.9924 55.4607 55.9624 56.1057C55.9445 56.4928 56.0615 56.7568 56.3075 57.027C56.5535 57.2971 56.867 57.5058 57.1926 57.4564L60.8722 57.5646C60.9337 57.6321 60.9952 57.6997 60.9952 57.6997C61.7948 58.5776 63.0848 58.6382 63.9623 57.839C64.0298 57.7776 64.0973 57.7161 64.1648 57.6546L87.0228 58.2111C87.8643 58.186 88.4103 57.5652 88.4403 56.9201Z" fill="url(#paint1_linear)"/>
<path d="M70.4358 4.13091V9.39658C70.4358 11.4443 68.7773 13.0045 66.8261 13.0045H57.8505C55.8017 13.0045 54.2407 11.3468 54.2407 9.39658V4.13091C54.2407 2.08315 55.8993 0.522949 57.8505 0.522949H66.8261C68.8749 0.522949 70.4358 2.18066 70.4358 4.13091Z" fill="url(#paint2_linear)"/>
<path opacity="0.1" d="M70.4358 4.13091V9.39658C70.4358 11.4443 68.7773 13.0045 66.8261 13.0045H57.8505C55.8017 13.0045 54.2407 11.3468 54.2407 9.39658V8.42146C54.8261 10.9568 57.07 10.9568 57.07 10.9568H66.3383C67.6066 10.9568 68.6797 9.88414 68.6797 8.61648V4.8135C68.6797 2.18066 68.1919 1.20554 66.8261 0.522949C68.8749 0.522949 70.4358 2.18066 70.4358 4.13091Z" fill="#495A7C"/>
<path d="M55.606 9.98159C55.3133 9.98159 55.1182 9.78656 55.1182 9.49403V3.44826C55.1182 3.15572 55.3133 2.96069 55.606 2.96069C55.8987 2.96069 56.0938 3.15572 56.0938 3.44826V9.49403C55.9962 9.78656 55.8011 9.98159 55.606 9.98159Z" fill="#AEB8C9"/>
<path d="M57.8501 9.98159C57.5574 9.98159 57.3623 9.78656 57.3623 9.49403V3.44826C57.3623 3.15572 57.5574 2.96069 57.8501 2.96069C58.1428 2.96069 58.3379 3.15572 58.3379 3.44826V9.49403C58.3379 9.78656 58.1428 9.98159 57.8501 9.98159Z" fill="#AEB8C9"/>
<path d="M60.1919 9.98159C59.8992 9.98159 59.7041 9.78656 59.7041 9.49403V3.44826C59.7041 3.15572 59.8992 2.96069 60.1919 2.96069C60.4846 2.96069 60.6797 3.15572 60.6797 3.44826V9.49403C60.5822 9.78656 60.387 9.98159 60.1919 9.98159Z" fill="#AEB8C9"/>
<path d="M62.4356 9.98159C62.1429 9.98159 61.9478 9.78656 61.9478 9.49403V3.44826C61.9478 3.15572 62.1429 2.96069 62.4356 2.96069C62.7282 2.96069 62.9234 3.15572 62.9234 3.44826V9.49403C62.9234 9.78656 62.7282 9.98159 62.4356 9.98159Z" fill="#AEB8C9"/>
<path d="M64.7769 9.98159C64.4842 9.98159 64.2891 9.78656 64.2891 9.49403V3.44826C64.2891 3.15572 64.4842 2.96069 64.7769 2.96069C65.0696 2.96069 65.2647 3.15572 65.2647 3.44826V9.49403C65.1671 9.78656 64.972 9.98159 64.7769 9.98159Z" fill="#AEB8C9"/>
<path d="M67.021 9.98159C66.7283 9.98159 66.5332 9.78656 66.5332 9.49403V3.44826C66.5332 3.15572 66.7283 2.96069 67.021 2.96069C67.3137 2.96069 67.5088 3.15572 67.5088 3.44826V9.49403C67.5088 9.78656 67.2161 9.98159 67.021 9.98159Z" fill="#AEB8C9"/>
<path opacity="0.7" d="M69.2651 9.98159C68.9725 9.98159 68.7773 9.78656 68.7773 9.49403V3.44826C68.7773 3.15572 68.9725 2.96069 69.2651 2.96069C69.5578 2.96069 69.753 3.15572 69.753 3.44826V9.49403C69.753 9.78656 69.5578 9.98159 69.2651 9.98159Z" fill="#AEB8C9"/>
<path d="M35.5093 23.146L30.6312 28.0216C29.558 29.0942 27.8019 29.0942 26.6312 28.0216L23.8019 25.1937C22.7288 24.1211 22.7288 22.3659 23.8019 21.1957L28.68 16.3201C29.7532 15.2475 31.5093 15.2475 32.68 16.3201L35.5093 19.148C36.5824 20.3181 36.5824 22.0733 35.5093 23.146Z" fill="url(#paint3_linear)"/>
<path d="M89.9475 23.146L94.8255 28.0216C95.8987 29.0942 97.6548 29.0942 98.8255 28.0216L101.655 25.1937C102.728 24.1211 102.728 22.3659 101.655 21.1957L96.7767 16.3201C95.7036 15.2475 93.9475 15.2475 92.7767 16.3201L89.9475 19.148C88.8743 20.3181 88.8743 22.0733 89.9475 23.146Z" fill="url(#paint4_linear)"/>
<path d="M62.3391 56.5996C62.4749 56.7488 62.706 56.7596 62.8552 56.6237C63.0044 56.4878 63.0152 56.2567 62.8793 56.1075C62.7434 55.9583 62.5124 55.9475 62.3632 56.0834C62.214 56.2193 62.2032 56.4504 62.3391 56.5996Z" fill="white"/>
<path d="M51.3557 52.2704C52.9829 52.2704 54.3598 50.8935 54.3598 49.2663C54.3598 47.6391 52.9829 46.2622 51.3557 46.2622C49.7284 46.2622 48.3516 47.6391 48.3516 49.2663C48.3516 50.8935 49.7284 52.2704 51.3557 52.2704Z" fill="#989FB0"/>
<path d="M74.3869 52.2704C76.0141 52.2704 77.391 50.8935 77.391 49.2663C77.391 47.6391 76.0141 46.2622 74.3869 46.2622C72.7597 46.2622 71.3828 47.6391 71.3828 49.2663C71.3828 51.0187 72.7597 52.2704 74.3869 52.2704Z" fill="#989FB0"/>
<path d="M51.2382 39.3274L44.6299 42.8955L45.5219 44.5476L52.1302 40.9795L51.2382 39.3274Z" fill="#989FB0"/>
<path d="M73.9788 39.2799L73.0869 40.9321L79.696 44.4995L80.5878 42.8472L73.9788 39.2799Z" fill="#989FB0"/>
<rect x="58.1089" y="66.2798" width="9" height="2" fill="#989FB0"/>
<defs>
<filter id="filter0_d" x="0.533203" y="5.31982" width="124.78" height="124.74" filterUnits="userSpaceOnUse" color-interpolation-filters="sRGB">
<feFlood flood-opacity="0" result="BackgroundImageFix"/>
<feColorMatrix in="SourceAlpha" type="matrix" values="0 0 0 0 0 0 0 0 0 0 0 0 0 0 0 0 0 0 127 0"/>
<feOffset dy="11"/>
<feGaussianBlur stdDeviation="11"/>
<feColorMatrix type="matrix" values="0 0 0 0 0.397708 0 0 0 0 0.47749 0 0 0 0 0.575 0 0 0 0.27 0"/>
<feBlend mode="normal" in2="BackgroundImageFix" result="effect1_dropShadow"/>
<feBlend mode="normal" in="SourceGraphic" in2="effect1_dropShadow" result="shape"/>
</filter>
<linearGradient id="paint0_linear" x1="62.8971" y1="14.4522" x2="62.8971" y2="97.9306" gradientUnits="userSpaceOnUse">
<stop stop-color="#FDFEFF"/>
<stop offset="0.9964" stop-color="#ECF0F5"/>
</linearGradient>
<linearGradient id="paint1_linear" x1="80.5205" y1="48.9626" x2="70.4899" y2="58.0978" gradientUnits="userSpaceOnUse">
<stop stop-color="#B0BACC"/>
<stop offset="1" stop-color="#969EAE"/>
</linearGradient>
<linearGradient id="paint2_linear" x1="62.3396" y1="0.956545" x2="62.3396" y2="7.96234" gradientUnits="userSpaceOnUse">
<stop stop-color="#B0BACC"/>
<stop offset="1" stop-color="#969EAE"/>
</linearGradient>
<linearGradient id="paint3_linear" x1="29.6567" y1="15.978" x2="29.6567" y2="23.449" gradientUnits="userSpaceOnUse">
<stop stop-color="#B0BACC"/>
<stop offset="1" stop-color="#969EAE"/>
</linearGradient>
<linearGradient id="paint4_linear" x1="95.8022" y1="15.978" x2="95.8022" y2="23.449" gradientUnits="userSpaceOnUse">
<stop stop-color="#B0BACC"/>
<stop offset="1" stop-color="#969EAE"/>
</linearGradient>
</defs>
</svg>
