<svg width="129" height="136" viewBox="0 0 129 136" fill="none" xmlns="http://www.w3.org/2000/svg">
<path d="M71.2005 110.397C99.2005 110.397 121.9 87.6968 121.9 59.5968C121.9 31.4968 99.1005 8.79675 71.2005 8.79675C43.2005 8.79675 20.5005 31.4968 20.5005 59.5968C20.5005 87.6968 43.2005 110.397 71.2005 110.397Z" fill="#EAEEF9"/>
<path d="M118.6 26.2968C120.865 26.2968 122.7 24.4612 122.7 22.1968C122.7 19.9324 120.865 18.0968 118.6 18.0968C116.336 18.0968 114.5 19.9324 114.5 22.1968C114.5 24.4612 116.336 26.2968 118.6 26.2968Z" fill="#EAEEF9"/>
<path d="M124.6 10.2968C126.147 10.2968 127.4 9.04317 127.4 7.49678C127.4 5.95038 126.147 4.69678 124.6 4.69678C123.054 4.69678 121.8 5.95038 121.8 7.49678C121.8 9.04317 123.054 10.2968 124.6 10.2968Z" fill="#EAEEF9"/>
<path d="M23.2004 26.1968C24.7468 26.1968 26.0004 24.9432 26.0004 23.3968C26.0004 21.8504 24.7468 20.5968 23.2004 20.5968C21.654 20.5968 20.4004 21.8504 20.4004 23.3968C20.4004 24.9432 21.654 26.1968 23.2004 26.1968Z" fill="#EAEEF9"/>
<path d="M6.10039 80.1968C8.97227 80.1968 11.3004 77.8686 11.3004 74.9968C11.3004 72.1249 8.97227 69.7968 6.10039 69.7968C3.22851 69.7968 0.900391 72.1249 0.900391 74.9968C0.900391 77.8686 3.22851 80.1968 6.10039 80.1968Z" fill="#EAEEF9"/>
<g filter="url(#filter0_d)">
<path d="M105.7 34.1968L106.5 98.5968C106.5 100.797 104.7 102.497 102.5 102.497H39.7002C37.5002 102.497 35.7002 100.697 35.7002 98.5968V15.7968C35.7002 13.5968 37.5002 11.8968 39.7002 11.8968H85.2002L105.7 34.1968Z" fill="url(#paint0_linear)"/>
</g>
<path d="M66.3006 89.5968H64.0006C63.5006 89.5968 63.1006 89.0968 63.1006 88.4968C63.1006 87.8968 63.5006 87.3968 64.0006 87.3968H66.3006C66.8006 87.3968 67.2006 87.8968 67.2006 88.4968C67.2006 89.1968 66.8006 89.5968 66.3006 89.5968Z" fill="#CED7E2"/>
<path d="M59.3005 89.5968H45.9005C45.4005 89.5968 45.0005 89.0968 45.0005 88.4968C45.0005 87.8968 45.4005 87.3968 45.9005 87.3968H59.3005C59.8005 87.3968 60.2005 87.8968 60.2005 88.4968C60.2005 89.1968 59.8005 89.5968 59.3005 89.5968Z" fill="#D5DDEA"/>
<path d="M76.4005 25.3968H46.3005C45.6005 25.3968 45.0005 24.7968 45.0005 24.0968C45.0005 23.3968 45.6005 22.7968 46.3005 22.7968H76.4005C77.1005 22.7968 77.7005 23.3968 77.7005 24.0968C77.7005 24.7968 77.1005 25.3968 76.4005 25.3968Z" fill="#D5DDEA"/>
<path d="M57.9005 32.5968H46.3005C45.6005 32.5968 45.0005 31.9968 45.0005 31.2968C45.0005 30.5968 45.6005 29.9968 46.3005 29.9968H57.8005C58.5005 29.9968 59.1005 30.5968 59.1005 31.2968C59.1005 31.9968 58.5005 32.5968 57.9005 32.5968Z" fill="#D5DDEA"/>
<path d="M85.2002 11.8968V29.6968C85.2002 32.1968 87.4002 34.1968 89.9002 34.1968H105.7" fill="#D5DDEA"/>
<path d="M110.5 103.997C109.5 103.997 108.5 103.597 107.7 102.697L91.0004 85.9968L90.4004 86.3968C85.0004 90.3968 78.7004 92.4968 72.3004 92.4968C64.6004 92.4968 56.9004 89.3968 51.2004 83.9968C45.2004 78.2968 41.9004 70.5968 41.9004 62.1968C41.9004 45.4968 55.5004 31.8968 72.2004 31.8968C83.6004 31.8968 93.6004 37.8968 99.0004 48.0968C104.3 58.1968 103.6 69.9968 97.1004 79.4968L96.7004 80.0968L113.5 96.8968C115.2 98.5968 114.8 100.297 114.5 101.197C113.7 102.797 112.1 103.997 110.5 103.997ZM72.2004 40.1968C60.0004 40.1968 50.2004 50.0968 50.2004 62.1968C50.2004 75.9968 61.5004 84.2968 72.5004 84.2968C79.2004 84.2968 85.3004 81.2968 89.6004 75.8968C94.9004 69.2968 95.8004 60.3968 92.1004 52.6968C88.3004 44.9968 80.7004 40.1968 72.2004 40.1968Z" fill="#989FB0"/>
<path d="M62.7003 65.7968C64.0003 65.7968 65.1003 64.6968 65.1003 63.3968C65.1003 62.0968 64.0003 60.9968 62.7003 60.9968C61.4003 60.9968 60.3003 62.0968 60.3003 63.3968C60.3003 64.6968 61.4003 65.7968 62.7003 65.7968Z" fill="#989FB0"/>
<path d="M81.1002 65.7968C82.4002 65.7968 83.5002 64.6968 83.5002 63.3968C83.5002 62.0968 82.4002 60.9968 81.1002 60.9968C79.8002 60.9968 78.7002 62.0968 78.7002 63.3968C78.7002 64.7968 79.8002 65.7968 81.1002 65.7968Z" fill="#989FB0"/>
<path d="M62.6066 55.4567L57.3271 58.3073L58.0398 59.6271L63.3192 56.7765L62.6066 55.4567Z" fill="#989FB0"/>
<path d="M80.774 55.4187L80.0615 56.7387L85.3415 59.5887L86.054 58.2687L80.774 55.4187Z" fill="#989FB0"/>
<path d="M71.9006 71.3968C73.447 71.3968 74.7006 70.4566 74.7006 69.2968C74.7006 68.137 73.447 67.1968 71.9006 67.1968C70.3542 67.1968 69.1006 68.137 69.1006 69.2968C69.1006 70.4566 70.3542 71.3968 71.9006 71.3968Z" fill="#989FB0"/>
<defs>
<filter id="filter0_d" x="13.7002" y="0.89679" width="114.8" height="134.6" filterUnits="userSpaceOnUse" color-interpolation-filters="sRGB">
<feFlood flood-opacity="0" result="BackgroundImageFix"/>
<feColorMatrix in="SourceAlpha" type="matrix" values="0 0 0 0 0 0 0 0 0 0 0 0 0 0 0 0 0 0 127 0"/>
<feOffset dy="11"/>
<feGaussianBlur stdDeviation="11"/>
<feColorMatrix type="matrix" values="0 0 0 0 0.397708 0 0 0 0 0.47749 0 0 0 0 0.575 0 0 0 0.27 0"/>
<feBlend mode="normal" in2="BackgroundImageFix" result="effect1_dropShadow"/>
<feBlend mode="normal" in="SourceGraphic" in2="effect1_dropShadow" result="shape"/>
</filter>
<linearGradient id="paint0_linear" x1="71.0771" y1="9.80113" x2="71.0771" y2="103.474" gradientUnits="userSpaceOnUse">
<stop stop-color="#FDFEFF"/>
<stop offset="0.9964" stop-color="#ECF0F5"/>
</linearGradient>
</defs>
</svg>
