<svg width="175" height="124" viewBox="0 0 175 124" fill="none" xmlns="http://www.w3.org/2000/svg">
<path d="M86.8304 111.5C116.53 111.5 140.73 87.4 140.73 57.8C140.63 28.1 116.53 4 86.8304 4C57.0304 4 32.9304 28.1 32.9304 57.7C32.9304 87.4 57.0304 111.5 86.8304 111.5Z" fill="#EAEEF9"/>
<g filter="url(#filter0_d)">
<path d="M144.33 64.6001C144.33 76.1001 135.03 85.4001 123.43 85.4001C123.23 85.4001 121.53 85.4001 109.03 85.4001C100.33 85.4001 86.4304 85.4001 64.2304 85.4001H53.6304C39.7304 85.7001 28.6304 74.6001 28.6304 61.2001C28.6304 47.7001 39.8304 36.5001 53.9304 37.2001C66.0304 -0.599916 121.43 4.70008 126.13 43.8001C136.53 45.1001 144.33 53.9001 144.33 64.6001Z" fill="url(#paint0_linear)"/>
</g>
<path d="M123.43 85.4001C134.93 85.4001 144.33 76.1 144.33 64.6C144.33 53.1 134.93 43.8 123.43 43.8C111.93 43.8 102.53 53.1 102.53 64.6C102.53 76.1 111.93 85.4001 123.43 85.4001Z" fill="url(#paint1_linear)"/>
<path d="M89.3304 85.5999C109.83 85.5999 126.53 68.9999 126.53 48.4999C126.53 27.9999 109.83 11.3999 89.3304 11.3999C68.8304 11.3999 52.1304 27.9999 52.1304 48.4999C52.1304 68.9999 68.7304 85.5999 89.3304 85.5999Z" fill="url(#paint2_linear)"/>
<path d="M75.5716 58.0189C77.1462 58.0189 78.4786 56.6865 78.4786 55.1119C78.4786 53.5372 77.1462 52.2048 75.5716 52.2048C73.9969 52.2048 72.6646 53.5372 72.6646 55.1119C72.6646 56.6865 73.9969 58.0189 75.5716 58.0189Z" fill="#989FB0"/>
<path d="M97.8589 58.0189C99.4336 58.0189 100.766 56.6865 100.766 55.1119C100.766 53.5372 99.4336 52.2048 97.8589 52.2048C96.2843 52.2048 94.9519 53.5372 94.9519 55.1119C94.9519 56.8076 96.2843 58.0189 97.8589 58.0189Z" fill="#989FB0"/>
<path d="M75.458 45.4942L69.0632 48.947L69.9264 50.5457L76.3212 47.0929L75.458 45.4942Z" fill="#989FB0"/>
<path d="M97.4636 45.4483L96.6006 47.0471L102.996 50.4992L103.859 48.9003L97.4636 45.4483Z" fill="#989FB0"/>
<path d="M86.7153 64.8019C88.5884 64.8019 90.1068 63.6631 90.1068 62.2583C90.1068 60.8534 88.5884 59.7146 86.7153 59.7146C84.8422 59.7146 83.3237 60.8534 83.3237 62.2583C83.3237 63.6631 84.8422 64.8019 86.7153 64.8019Z" fill="#989FB0"/>
<path d="M17.085 18.3555C17.085 18.3555 3.10641 21.9046 7.34234 24.7439C11.5783 27.4412 21.6033 32.126 31.0635 29.0028C40.5237 25.8796 31.0635 21.4787 31.2047 21.4787C31.3459 21.4787 17.085 18.3555 17.085 18.3555Z" fill="#CED7E2"/>
<path d="M0 17.2199C5.08311 18.7815 20.756 16.2262 30.781 9.6958C38.6881 19.4913 41.6532 22.0467 44.4772 22.3306C40.1001 26.7315 25.5567 33.8297 17.3673 24.602C7.76586 30.7065 0 17.2199 0 17.2199Z" fill="#E9EDF9"/>
<path d="M130.069 52.7162C135.435 53.0001 149.978 46.4697 157.885 37.668C168.051 45.1921 171.44 46.8956 174.405 46.4697C171.158 51.8644 161.274 63.6474 147.295 64.4992C137.129 58.5367 130.069 52.7162 130.069 52.7162Z" fill="#E9EDF9"/>
<path d="M87.2384 119.307C86.1769 114.04 76.2297 101.582 65.7357 96.1163C70.4903 84.3963 71.2961 80.6901 70.145 77.9245C76.1785 79.7259 90.0522 86.363 94.3591 99.6888C91.1169 111.02 87.2384 119.307 87.2384 119.307Z" fill="white"/>
<defs>
<filter id="filter0_d" x="6.63037" y="0.490479" width="159.7" height="117.916" filterUnits="userSpaceOnUse" color-interpolation-filters="sRGB">
<feFlood flood-opacity="0" result="BackgroundImageFix"/>
<feColorMatrix in="SourceAlpha" type="matrix" values="0 0 0 0 0 0 0 0 0 0 0 0 0 0 0 0 0 0 127 0"/>
<feOffset dy="11"/>
<feGaussianBlur stdDeviation="11"/>
<feColorMatrix type="matrix" values="0 0 0 0 0.397708 0 0 0 0 0.47749 0 0 0 0 0.575 0 0 0 0.27 0"/>
<feBlend mode="normal" in2="BackgroundImageFix" result="effect1_dropShadow"/>
<feBlend mode="normal" in="SourceGraphic" in2="effect1_dropShadow" result="shape"/>
</filter>
<linearGradient id="paint0_linear" x1="86.4804" y1="42.0352" x2="86.4427" y2="86.2029" gradientUnits="userSpaceOnUse">
<stop stop-color="white"/>
<stop offset="0.9964" stop-color="#ECF0F5"/>
</linearGradient>
<linearGradient id="paint1_linear" x1="100.306" y1="39.3218" x2="118.834" y2="59.5855" gradientUnits="userSpaceOnUse">
<stop stop-color="#BCCBE1"/>
<stop offset="0.9942" stop-color="white" stop-opacity="0"/>
</linearGradient>
<linearGradient id="paint2_linear" x1="48.647" y1="31.4757" x2="77.8482" y2="42.903" gradientUnits="userSpaceOnUse">
<stop stop-color="#E2E8F0"/>
<stop offset="0.9942" stop-color="white" stop-opacity="0"/>
</linearGradient>
</defs>
</svg>
