<svg width="127" height="107" viewBox="0 0 127 107" fill="none" xmlns="http://www.w3.org/2000/svg">
<path d="M122.362 55.4592C122.362 69.6592 116.562 82.4592 107.262 91.6592C98.1617 100.759 85.5617 106.259 71.6617 106.259C57.8617 106.259 45.2617 100.659 36.0617 91.6592C26.7617 82.4592 20.9617 69.6592 20.9617 55.4592C20.9617 27.3592 43.6617 4.65918 71.6617 4.65918C99.6617 4.65918 122.362 27.4592 122.362 55.4592Z" fill="#EAEEF9"/>
<path d="M117.962 22.1592C120.226 22.1592 122.062 20.3236 122.062 18.0592C122.062 15.7949 120.226 13.9592 117.962 13.9592C115.697 13.9592 113.862 15.7949 113.862 18.0592C113.862 20.3236 115.697 22.1592 117.962 22.1592Z" fill="#EAEEF9"/>
<path d="M123.962 6.15933C125.508 6.15933 126.762 4.90572 126.762 3.35933C126.762 1.81293 125.508 0.559326 123.962 0.559326C122.415 0.559326 121.162 1.81293 121.162 3.35933C121.162 4.90572 122.415 6.15933 123.962 6.15933Z" fill="#EAEEF9"/>
<path d="M22.5617 22.0592C24.1081 22.0592 25.3617 20.8056 25.3617 19.2592C25.3617 17.7128 24.1081 16.4592 22.5617 16.4592C21.0153 16.4592 19.7617 17.7128 19.7617 19.2592C19.7617 20.8056 21.0153 22.0592 22.5617 22.0592Z" fill="#EAEEF9"/>
<path d="M5.46172 76.0594C8.3336 76.0594 10.6617 73.7313 10.6617 70.8594C10.6617 67.9875 8.3336 65.6594 5.46172 65.6594C2.58984 65.6594 0.261719 67.9875 0.261719 70.8594C0.261719 73.7313 2.58984 76.0594 5.46172 76.0594Z" fill="#EAEEF9"/>
<path d="M107.262 28.8594V91.6594C98.1618 100.759 85.5618 106.259 71.6618 106.259C57.8618 106.259 45.2618 100.659 36.0618 91.6594V28.8594H107.262Z" fill="white"/>
<path opacity="0.5" d="M72.9196 60.913L58.9897 46.9832L54.2522 51.7207L68.182 65.6506L72.9196 60.913Z" fill="#979FAF"/>
<path opacity="0.5" d="M84.3451 40.0582L63.5564 60.8469L68.294 65.5845L89.0827 44.7958L84.3451 40.0582Z" fill="#979FAF"/>
<path d="M89.8617 74.1594H53.4617V78.7594H89.8617V74.1594Z" fill="#D5DAE5"/>
<path d="M89.8617 84.2593H53.4617V88.8593H89.8617V84.2593Z" fill="#D5DAE5"/>
<path d="M80.9618 94.4592H62.3618V99.0592H80.9618V94.4592Z" fill="#D5DAE5"/>
</svg>
